<svg width="520" height="520" viewBox="0 0 520 520" fill="none" xmlns="http://www.w3.org/2000/svg">
<path d="M514.098 356.49C513.738 350.983 509.564 345.258 501.739 340.745L282.375 209.99C267.399 201.351 248.954 204.627 235.991 212.12L14.6153 341.081C8.42553 344.659 5.57038 349.511 5.90066 354.544C6.2604 360.05 10.4345 365.775 18.2598 370.288L233.417 496.838C248.394 505.476 271.044 506.406 284.009 498.914L505.383 369.952C511.574 366.374 514.428 361.523 514.098 356.49Z" fill="url(#paint0_linear)"/>
<path d="M475.33 332.413L276.119 217.573C260.354 208.475 236.503 207.496 222.849 215.379L16.0898 334.822C9.56699 338.578 6.54945 343.694 6.90735 348.988C7.28981 354.778 11.6775 360.818 19.9178 365.564L219.068 480.463C234.845 489.562 258.684 490.54 272.338 482.658L479.121 363.167C485.632 359.399 488.662 354.283 488.291 348.988C487.958 343.194 483.57 337.159 475.33 332.413Z" fill="#02A97B"/>
<path d="M276.117 289.126C260.352 280.038 236.501 279.048 222.847 286.943L87.8421 364.922L6.88281 325.592V345.339C7.28807 351.129 11.653 357.169 19.9178 361.867L219.152 476.827C227.91 481.594 237.695 484.165 247.666 484.316C256.92 484.542 265.852 482.802 272.422 479.009L479.121 359.483C485.632 355.715 488.662 350.611 488.291 345.317V325.592L407.571 364.874L276.117 289.126Z" fill="url(#paint1_linear)"/>
<path d="M475.33 309.011L276.183 194.117C260.419 185.019 236.568 184.04 222.913 191.922L16.0898 311.425C9.56699 315.182 6.54945 320.297 6.90735 325.592C7.28981 331.382 11.6775 337.422 19.9178 342.167L219.068 457.067C234.845 466.165 258.684 467.144 272.338 459.262L479.121 339.771C485.632 336.003 488.662 330.887 488.291 325.592C487.958 319.797 483.57 313.762 475.33 309.011Z" fill="#F0F9F3"/>
<path d="M475.33 306.647L274.689 192.529C258.924 183.442 236.527 181.642 222.85 189.524L16.0898 309.04C9.56699 312.808 6.54945 317.924 6.90735 323.218C7.28981 329.008 11.6775 335.036 19.9178 339.794L219.068 454.693C234.845 463.792 258.684 464.771 272.338 456.888L479.121 337.385C485.632 333.629 488.662 328.513 488.291 323.218C487.958 317.422 483.57 311.383 475.33 306.647Z" fill="url(#paint2_linear)"/>
<path opacity="0.51" d="M388.818 340.978L465.699 344.934C465.699 344.934 477.866 339.387 482.773 334.996C484.615 333.347 487.189 329.039 487.189 329.039L321.914 302.338L388.818 340.978Z" fill="#89BBB0"/>
<path opacity="0.51" d="M83.5772 339.913L182.819 353.229C182.819 353.229 194.985 347.682 199.892 343.291C201.734 341.642 204.309 337.334 204.309 337.334L118.01 316.667L45.6738 315.443L83.5772 339.913Z" fill="#89BBB0"/>
<path opacity="0.51" d="M342.042 298.704L396.563 300.145L451.715 317.779L472.364 305.296L436.452 284.9L376.475 275.457L299.479 286.351L342.042 298.704Z" fill="#89BBB0"/>
<path d="M119.062 263.422L162.191 236.974L212.632 266.85L169.225 292.647L119.062 263.422Z" fill="#C8F7FE" fill-opacity="0.992402"/>
<path opacity="0.5" d="M127.486 132.808L133.591 129.401V108.151L127.486 111.558V132.808Z" fill="#9EAEE9"/>
<path d="M133.602 129.401L135.787 129.38V108.162L133.602 108.157V129.401Z" fill="#1A4090"/>
<path opacity="0.5" d="M127.486 165.026L133.591 161.619V140.369L127.486 143.776V165.026Z" fill="#9EAEE9"/>
<path d="M133.602 161.619L135.787 161.599V140.381L133.602 140.376V161.619Z" fill="#1A4090"/>
<path opacity="0.5" d="M127.486 197.244L133.591 193.838V172.587L127.486 175.994V197.244Z" fill="#9EAEE9"/>
<path d="M133.602 193.838L135.787 193.817V172.599L133.602 172.594V193.838Z" fill="#1A4090"/>
<path opacity="0.5" d="M127.486 229.463L133.591 226.056V204.806L127.486 208.212V229.463Z" fill="#9EAEE9"/>
<path d="M133.602 226.056L135.787 226.035V204.817L133.602 204.811V226.056Z" fill="#1A4090"/>
<path d="M125.055 263.162L169.224 288.261L168.951 134.857L124.781 109.211L125.055 263.162Z" fill="#82D8D8" fill-opacity="0.995833"/>
<path d="M168.951 134.857L206.241 113.214V266.782L169.225 288.261L168.951 134.857Z" fill="#2D4275"/>
<path d="M119.062 282.816L169.225 311.327V292.647L119.062 263.422V282.816Z" fill="#82D8D8"/>
<path d="M124.781 109.211L162.712 87.283L206.241 113.214L168.951 134.857L126.994 110.496L124.781 109.211Z" fill="#C7F6FE" fill-opacity="0.992157"/>
<path d="M137.056 143.229L128.895 138.559V117.308L137.056 121.979V143.229Z" fill="#C8F7FE"/>
<path d="M131.079 137.291L128.895 138.559V117.308L131.079 118.573V137.291Z" fill="#0F90C1"/>
<path d="M137.056 174.762L128.895 170.091V148.841L137.056 153.512V174.762Z" fill="#C8F7FE"/>
<path d="M131.079 168.824L128.895 170.091V148.841L131.079 150.106V168.824Z" fill="#0F90C1"/>
<path d="M137.056 206.295L128.895 201.624V180.374L137.056 185.044V206.295Z" fill="#C8F7FE"/>
<path d="M131.079 200.357L128.895 201.624V180.374L131.079 181.638V200.357Z" fill="#0F90C1"/>
<path d="M137.056 237.827L128.895 233.157V211.906L137.056 216.577V237.827Z" fill="#C8F7FE"/>
<path d="M131.079 231.889L128.895 233.157V211.906L131.079 213.171V231.889Z" fill="#0F90C1"/>
<path d="M150.767 150.998L142.605 146.328V125.077L150.767 129.748V150.998Z" fill="#C8F7FE"/>
<path d="M144.79 145.06L142.605 146.328V125.077L144.79 126.342V145.06Z" fill="#0F90C1"/>
<path d="M150.767 182.531L142.605 177.86V156.61L150.767 161.281V182.531Z" fill="#C8F7FE"/>
<path d="M144.79 176.593L142.605 177.86V156.61L144.79 157.875V176.593Z" fill="#0F90C1"/>
<path d="M150.767 214.064L142.605 209.393V188.143L150.767 192.813V214.064Z" fill="#C8F7FE"/>
<path d="M144.79 208.125L142.605 209.393V188.143L144.79 189.407V208.125Z" fill="#0F90C1"/>
<path d="M150.767 245.596L142.605 240.926V219.675L150.767 224.346V245.596Z" fill="#C8F7FE"/>
<path d="M144.79 239.658L142.605 240.926V219.675L144.79 220.94V239.658Z" fill="#0F90C1"/>
<path d="M164.476 158.767L156.314 154.097V132.846L164.476 137.517V158.767Z" fill="#C8F7FE"/>
<path d="M158.499 152.829L156.314 154.097V132.846L158.499 134.111V152.829Z" fill="#0F90C1"/>
<path d="M175.748 158.755L181.853 155.348V134.098L175.748 137.504V158.755Z" fill="#0F90C1"/>
<path d="M181.863 155.348L184.048 155.327V134.11L181.863 134.105V155.348Z" fill="#49C6C6"/>
<path d="M175.748 190.973L181.853 187.566V166.316L175.748 169.723V190.973Z" fill="#0F90C1"/>
<path d="M181.863 187.566L184.048 187.546V166.328L181.863 166.322V187.566Z" fill="#49C6C6"/>
<path d="M175.748 223.191L181.853 219.784V198.534L175.748 201.941V223.191Z" fill="#0F90C1"/>
<path d="M181.863 219.784L184.048 219.764V198.546L181.863 198.54V219.784Z" fill="#49C6C6"/>
<path d="M175.748 255.409L181.853 252.003V230.752L175.748 234.159V255.409Z" fill="#0F90C1"/>
<path d="M181.863 252.003L184.048 251.982V230.764L181.863 230.759V252.003Z" fill="#49C6C6"/>
<path d="M191.51 150.486L197.615 147.079V125.829L191.51 129.235V150.486Z" fill="#0F90C1"/>
<path d="M197.625 147.079L199.81 147.058V125.84L197.625 125.835V147.079Z" fill="#49C6C6"/>
<path d="M191.51 182.704L197.615 179.297V158.047L191.51 161.454V182.704Z" fill="#0F90C1"/>
<path d="M197.625 179.297L199.81 179.277V158.058L197.625 158.054V179.297Z" fill="#49C6C6"/>
<path d="M191.51 214.922L197.615 211.515V190.265L191.51 193.672V214.922Z" fill="#0F90C1"/>
<path d="M197.625 211.516L199.81 211.495V190.277L197.625 190.272V211.516Z" fill="#49C6C6"/>
<path d="M191.51 247.14L197.615 243.734V222.483L191.51 225.89V247.14Z" fill="#0F90C1"/>
<path d="M197.625 243.734L199.81 243.713V222.495L197.625 222.489V243.734Z" fill="#49C6C6"/>
<path d="M164.476 190.3L156.314 185.629V164.379L164.476 169.05V190.3Z" fill="#C8F7FE"/>
<path d="M158.499 184.362L156.314 185.629V164.379L158.499 165.643V184.362Z" fill="#0F90C1"/>
<path d="M164.476 221.833L156.314 217.162V195.912L164.476 200.582V221.833Z" fill="#C8F7FE"/>
<path d="M158.499 215.894L156.314 217.162V195.912L158.499 197.176V215.894Z" fill="#0F90C1"/>
<path d="M164.476 253.365L156.314 248.695V227.444L164.476 232.115V253.365Z" fill="#C8F7FE"/>
<path d="M158.499 247.427L156.314 248.695V227.444L158.499 228.709V247.427Z" fill="#0F90C1"/>
<path d="M169.167 114.84L133.848 93.7638V109.386L169.167 130.107V114.84Z" fill="#82D8D8"/>
<path d="M133.848 93.7638L165.335 75.7216L200.868 96.4602L169.167 114.84L133.848 93.7638Z" fill="#C7F6FE" fill-opacity="0.992157"/>
<path d="M169.168 114.84L200.868 96.4602L200.891 112.235L169.168 130.107L169.168 114.84Z" fill="#2D4275"/>
<path d="M168.945 102.095L143.543 86.9901V93.9913L168.945 108.836V102.095Z" fill="#82D8D8" fill-opacity="0.996078"/>
<path d="M143.543 86.9901L166.625 73.7642L192.183 88.6213L168.945 102.095L143.543 86.9901Z" fill="#C7F6FE" fill-opacity="0.992157"/>
<path d="M168.945 102.095L192.183 88.6213L192.2 95.7346L168.945 108.836V102.095Z" fill="#2D4275"/>
<path d="M148.057 86.2223L168.938 37.8032L187.872 87.7059L168.927 98.6902L148.057 86.2223Z" fill="#82D8D8"/>
<path d="M168.937 37.8032L168.926 98.6902L187.871 87.7059L168.937 37.8032Z" fill="#2D4275"/>
<path d="M212.632 286.244L169.225 311.327V292.647L212.632 266.85V286.244Z" fill="#2D4275"/>
<path d="M340.175 93.6027L322.498 86.4519V68.3725L340.175 75.5235V93.6027Z" fill="#B5C6FE"/>
<path d="M325.131 85.3736L322.498 86.4519V68.3725L325.131 69.4484V85.3736Z" fill="#002CA7"/>
<path d="M340.175 115.764L322.498 108.614V90.5343L340.175 97.6851V115.764Z" fill="#B5C6FE"/>
<path d="M325.131 107.535L322.498 108.614V90.5343L325.131 91.6101V107.535Z" fill="#002CA7"/>
<path d="M340.175 137.926L322.498 130.775V112.696L340.175 119.847V137.926Z" fill="#B5C6FE"/>
<path d="M325.131 129.697L322.498 130.775V112.696L325.131 113.772V129.697Z" fill="#002CA7"/>
<path d="M340.175 160.477L322.498 153.326V135.246L340.175 142.397V160.477Z" fill="#B5C6FE"/>
<path d="M325.131 152.247L322.498 153.326V135.246L325.131 136.322V152.247Z" fill="#002CA7"/>
<path d="M340.175 182.347L322.498 175.196V157.117L340.175 164.267V182.347Z" fill="#B5C6FE"/>
<path d="M325.131 174.118L322.498 175.196V157.117L325.131 158.192V174.118Z" fill="#002CA7"/>
<path d="M340.175 204.217L322.498 197.066V178.987L340.175 186.138V204.217Z" fill="#B5C6FE"/>
<path d="M325.131 195.988L322.498 197.066V178.987L325.131 180.062V195.988Z" fill="#002CA7"/>
<path d="M259.102 254.061L299.951 273.715L300.976 61.1605L260.126 37.5763L259.102 254.061Z" fill="#D7F0EC"/>
<path d="M300.936 67.7029L341.737 50.2203L340.685 265.788L299.951 273.715L300.936 67.7029Z" fill="#A9DFD6"/>
<path d="M260.127 37.5763L297.572 16.0225L340.642 40.8892L306.658 64.4409L260.127 37.5763Z" fill="#ECF6F6"/>
<path d="M333.393 267.359H336.099V62.3432L333.393 63.4044V267.359Z" fill="#62BEA6"/>
<path d="M328.996 269.109L331.702 269.056V64.0411L328.996 65.1545V269.109Z" fill="#62BEA6"/>
<path d="M324.6 270.892L327.306 270.839V65.824L324.6 66.9375V270.892Z" fill="#62BEA6"/>
<path d="M320.201 272.675L322.907 272.622V67.6068L320.201 68.7204V272.675Z" fill="#62BEA6"/>
<path d="M315.805 274.457L318.511 274.405V69.3898L315.805 70.5032V274.457Z" fill="#62BEA6"/>
<path d="M311.406 276.24L314.112 276.188V71.1727L311.406 72.2862V276.24Z" fill="#62BEA6"/>
<path d="M307.01 278.023L309.716 277.971V72.9555L307.01 74.069V278.023Z" fill="#62BEA6"/>
<path d="M362.608 100.575L359.975 101.653V83.5736L362.608 84.6495V100.575Z" fill="#002CA7"/>
<path d="M362.608 122.736L359.975 123.815V105.735L362.608 106.811V122.736Z" fill="#002CA7"/>
<path d="M362.608 144.898L359.975 145.976V127.897L362.608 128.973V144.898Z" fill="#002CA7"/>
<path d="M362.608 167.448L359.975 168.527V150.448L362.608 151.523V167.448Z" fill="#002CA7"/>
<path d="M362.608 189.319L359.975 190.397V172.318L362.608 173.394V189.319Z" fill="#002CA7"/>
<path d="M377.652 219.418L359.975 212.267V194.188L377.652 201.339V219.418Z" fill="#B5C6FE"/>
<path d="M362.608 211.189L359.975 212.267V194.188L362.608 195.264V211.189Z" fill="#002CA7"/>
<path d="M298.393 273.432L337.601 296.744L338.411 82.904L299.849 60.5102L298.393 273.432Z" fill="#D7F0EC"/>
<path d="M338.411 82.904L375.866 61.0743L378.16 280.989L337.602 296.744L338.411 82.904Z" fill="#A9DFD6"/>
<path d="M303.062 62.3394L340.279 40.441L375.865 61.0743L338.41 82.904L303.062 62.3394Z" fill="#ECF6F6"/>
<path d="M266.42 48.2356V252.957H269.128V49.822L266.42 48.2356Z" fill="#54CDAC"/>
<path d="M270.818 50.8132V254.655L273.524 254.708V52.3976L270.818 50.8132Z" fill="#54CDAC"/>
<path d="M275.215 53.3889V256.439L277.92 256.492V54.9753L275.215 53.3889Z" fill="#54CDAC"/>
<path d="M279.613 55.9665V258.222L282.319 258.273V57.5509L279.613 55.9665Z" fill="#54CDAC"/>
<path d="M284.01 58.5421V260.004L286.715 260.056V60.1285L284.01 58.5421Z" fill="#54CDAC"/>
<path d="M288.406 61.1178V261.787L291.114 261.84V62.7042L288.406 61.1178Z" fill="#54CDAC"/>
<path d="M292.803 63.4196V263.295L295.508 263.348V65.004L292.803 63.4196Z" fill="#54CDAC"/>
<path d="M303.896 69.9176V267.883H306.602V71.504L303.896 69.9176Z" fill="#54CDAC"/>
<path d="M298.906 66.9946V265.913H301.612V68.579L298.906 66.9946Z" fill="#54CDAC"/>
<path d="M308.293 72.4953V269.581L310.999 269.634V74.0796L308.293 72.4953Z" fill="#54CDAC"/>
<path d="M312.781 75.0709V271.365L315.489 271.416V76.6573L312.781 75.0709Z" fill="#54CDAC"/>
<path d="M316.996 77.4627V272.962L319.702 273.015V79.0491L316.996 77.4627Z" fill="#54CDAC"/>
<path d="M321.576 80.1322V274.838L324.282 274.891V81.7166L321.576 80.1322Z" fill="#54CDAC"/>
<path d="M325.883 82.616V276.529L328.588 276.58V84.2024L325.883 82.616Z" fill="#54CDAC"/>
<path d="M330.188 85.1936V278.311L332.893 278.363V86.778L330.188 85.1936Z" fill="#54CDAC"/>
<path d="M373.573 69.2245L372.854 69.5068L370.867 70.6707V274.241H373.573V69.2245Z" fill="#08614B"/>
<path d="M369.178 71.6599L366.471 73.2463V275.989L369.178 275.937V71.6599Z" fill="#08614B"/>
<path d="M364.78 74.2376L362.074 75.822V277.773L364.78 277.72V74.2376Z" fill="#08614B"/>
<path d="M360.383 76.8132L357.678 78.3996V279.556L360.383 279.503V76.8132Z" fill="#08614B"/>
<path d="M355.985 79.3909L353.279 80.9752V281.338L355.985 281.287V79.3909Z" fill="#08614B"/>
<path d="M351.588 81.9665L348.883 83.5529V283.121L351.588 283.068V81.9665Z" fill="#08614B"/>
<path d="M347.192 84.5421L344.484 86.1285V284.905L347.192 284.852V84.5421Z" fill="#08614B"/>
<path d="M321.396 199.189L323.255 199.171V181.119L321.396 181.115V199.189Z" fill="#1A4090"/>
<path d="M321.396 226.016L323.255 225.999V207.947L321.396 207.943V226.016Z" fill="#1A4090"/>
<path d="M321.396 251.677L323.255 251.66V233.608L321.396 233.604V251.677Z" fill="#1A4090"/>
<path d="M316.564 154.388L316.818 297.38L357.844 320.693L398.869 344.513L398.614 202.03L316.564 154.388Z" fill="#44A48B"/>
<path d="M350.897 135.098L316.564 154.388L318.62 155.583L398.615 202.029L433.25 182.078L350.897 135.098Z" fill="#4EB69B"/>
<path d="M327.964 185.986L320.383 181.648V161.91L327.964 166.248V185.986Z" fill="#BAE9DE"/>
<path d="M322.412 180.47L320.383 181.648V161.91L322.412 163.085V180.47Z" fill="#08614B"/>
<path d="M327.964 215.274L320.383 210.935V191.198L327.964 195.536V215.274Z" fill="#BAE9DE"/>
<path d="M322.412 209.758L320.383 210.935V191.198L322.412 192.373V209.758Z" fill="#08614B"/>
<path d="M327.964 244.562L320.383 240.223V220.486L327.964 224.824V244.562Z" fill="#BAE9DE"/>
<path d="M322.412 239.046L320.383 240.223V220.486L322.412 221.66V239.046Z" fill="#08614B"/>
<path d="M327.964 273.849L320.383 269.511V249.774L327.964 254.112V273.849Z" fill="#BAE9DE"/>
<path d="M322.412 268.334L320.383 269.511V249.774L322.412 250.948V268.334Z" fill="#08614B"/>
<path d="M350.251 197.314L342.67 192.976V173.239L350.251 177.577V197.314Z" fill="#BAE9DE"/>
<path d="M350.251 226.602L342.67 222.264V202.527L350.251 206.865V226.602Z" fill="#BAE9DE"/>
<path d="M344.699 221.087L342.67 222.264V202.527L344.699 203.701V221.087Z" fill="#08614B"/>
<path d="M350.251 255.89L342.67 251.552V231.814L350.251 236.152V255.89Z" fill="#BAE9DE"/>
<path d="M344.699 250.375L342.67 251.552V231.814L344.699 232.989V250.375Z" fill="#08614B"/>
<path d="M350.251 285.178L342.67 280.84V261.102L350.251 265.44V285.178Z" fill="#BAE9DE"/>
<path d="M344.699 279.663L342.67 280.84V261.102L344.699 262.277V279.663Z" fill="#08614B"/>
<path d="M344.633 191.776L342.604 192.954V173.216L344.633 174.391V191.776Z" fill="#08614B"/>
<path d="M398.613 202.03L433.249 182.078V324.563L398.867 344.513L398.613 202.03Z" fill="#08614B"/>
<path d="M368.989 209.806L361.408 205.468V185.73L368.989 190.068V209.806Z" fill="#BAE9DE"/>
<path d="M363.438 204.291L361.408 205.468V185.73L363.438 186.905V204.291Z" fill="#08614B"/>
<path d="M368.989 239.094L361.408 234.756V215.018L368.989 219.356V239.094Z" fill="#BAE9DE"/>
<path d="M363.438 233.578L361.408 234.756V215.018L363.438 216.193V233.578Z" fill="#08614B"/>
<path d="M368.989 268.382L361.408 264.044V244.306L368.989 248.644V268.382Z" fill="#BAE9DE"/>
<path d="M363.438 262.866L361.408 264.044V244.306L363.438 245.481V262.866Z" fill="#08614B"/>
<path d="M368.989 297.67L361.408 293.331V273.594L368.989 277.932V297.67Z" fill="#BAE9DE"/>
<path d="M363.438 292.154L361.408 293.331V273.594L363.438 274.768V292.154Z" fill="#08614B"/>
<path d="M404.385 224.496L410.055 221.332V201.595L404.385 204.759V224.496Z" fill="#7CC8B5"/>
<path d="M410.066 221.332L412.096 221.313V201.605L410.066 201.6V221.332Z" fill="#44A48B"/>
<path d="M404.385 254.421L410.055 251.257V231.519L404.385 234.683V254.421Z" fill="#7CC8B5"/>
<path d="M410.066 251.257L412.096 251.237V231.53L410.066 231.526V251.257Z" fill="#44A48B"/>
<path d="M404.385 284.345L410.055 281.181V261.444L404.385 264.608V284.345Z" fill="#7CC8B5"/>
<path d="M410.066 281.181L412.096 281.162V261.455L410.066 261.45V281.181Z" fill="#44A48B"/>
<path d="M404.385 314.27L410.055 311.106V291.368L404.385 294.533V314.27Z" fill="#7CC8B5"/>
<path d="M410.066 311.106L412.096 311.087V291.379L410.066 291.374V311.106Z" fill="#44A48B"/>
<path d="M420.729 216.418L426.399 213.254V193.516L420.729 196.68V216.418Z" fill="#7CC8B5"/>
<path d="M426.408 213.254L428.438 213.234V193.527L426.408 193.522V213.254Z" fill="#44A48B"/>
<path d="M420.729 246.342L426.399 243.178V223.441L420.729 226.605V246.342Z" fill="#7CC8B5"/>
<path d="M426.408 243.178L428.438 243.159V223.451L426.408 223.447V243.178Z" fill="#44A48B"/>
<path d="M420.729 276.267L426.399 273.103V253.365L420.729 256.529V276.267Z" fill="#7CC8B5"/>
<path d="M426.408 273.103L428.438 273.084V253.376L426.408 253.371V273.103Z" fill="#44A48B"/>
<path d="M420.729 306.191L426.399 303.027V283.29L420.729 286.454V306.191Z" fill="#7CC8B5"/>
<path d="M426.408 303.027L428.438 303.008V283.301L426.408 283.295V303.027Z" fill="#44A48B"/>
<path d="M391.274 221.134L383.693 216.796V197.059L391.274 201.397V221.134Z" fill="#BAE9DE"/>
<path d="M391.274 250.422L383.693 246.084V226.347L391.274 230.685V250.422Z" fill="#BAE9DE"/>
<path d="M385.723 244.907L383.693 246.084V226.347L385.723 227.521V244.907Z" fill="#08614B"/>
<path d="M391.274 279.71L383.693 275.372V255.635L391.274 259.973V279.71Z" fill="#BAE9DE"/>
<path d="M385.723 274.195L383.693 275.372V255.635L385.723 256.809V274.195Z" fill="#08614B"/>
<path d="M391.274 308.998L383.693 304.66V284.923L391.274 289.261V308.998Z" fill="#BAE9DE"/>
<path d="M385.723 303.483L383.693 304.66V284.923L385.723 286.097V303.483Z" fill="#08614B"/>
<path d="M385.658 215.597L383.629 216.774V197.036L385.658 198.211V215.597Z" fill="#08614B"/>
<path d="M398.614 202.03L316.564 154.388L316.569 156.723L398.614 204.512V202.03Z" fill="#0C9472"/>
<path d="M211.066 167.732L212.925 167.714V149.662L211.066 149.658V167.732Z" fill="#1A4090"/>
<path d="M211.066 194.559L212.925 194.541V176.489L211.066 176.485V194.559Z" fill="#1A4090"/>
<path d="M211.066 220.22L212.925 220.202V202.15L211.066 202.146V220.22Z" fill="#1A4090"/>
<path d="M206.486 265.923L247.511 289.235L247.258 146.752L206.232 122.932L206.486 265.923Z" fill="#44A48B"/>
<path d="M247.258 146.752L281.893 126.801V269.286L247.512 289.235L247.258 146.752Z" fill="#08614B"/>
<path d="M206.232 122.932L240.565 103.641L281.893 126.801L247.258 146.752L208.288 124.125L206.232 122.932Z" fill="#4EB69B"/>
<path d="M217.633 154.528L210.053 150.19V130.453L217.633 134.791V154.528Z" fill="#BAE9DE"/>
<path d="M212.082 149.013L210.053 150.19V130.453L212.082 131.627V149.013Z" fill="#08614B"/>
<path d="M217.633 183.816L210.053 179.478V159.741L217.633 164.079V183.816Z" fill="#BAE9DE"/>
<path d="M212.082 178.301L210.053 179.478V159.741L212.082 160.915V178.301Z" fill="#08614B"/>
<path d="M217.633 213.104L210.053 208.766V189.028L217.633 193.366V213.104Z" fill="#BAE9DE"/>
<path d="M212.082 207.589L210.053 208.766V189.028L212.082 190.203V207.589Z" fill="#08614B"/>
<path d="M217.633 242.392L210.053 238.054V218.316L217.633 222.654V242.392Z" fill="#BAE9DE"/>
<path d="M212.082 236.877L210.053 238.054V218.316L212.082 219.491V236.877Z" fill="#08614B"/>
<path d="M253.029 169.219L258.7 166.054V146.317L253.029 149.481V169.219Z" fill="#7CC8B5"/>
<path d="M258.709 166.054L260.738 166.035V146.328L258.709 146.323V166.054Z" fill="#44A48B"/>
<path d="M253.029 199.143L258.7 195.979V176.242L253.029 179.406V199.143Z" fill="#7CC8B5"/>
<path d="M258.709 195.979L260.738 195.96V176.252L258.709 176.248V195.979Z" fill="#44A48B"/>
<path d="M253.029 229.068L258.7 225.904V206.166L253.029 209.33V229.068Z" fill="#7CC8B5"/>
<path d="M258.709 225.904L260.738 225.884V206.177L258.709 206.172V225.904Z" fill="#44A48B"/>
<path d="M253.029 258.992L258.7 255.828V236.091L253.029 239.255V258.992Z" fill="#7CC8B5"/>
<path d="M258.709 255.828L260.738 255.809V236.101L258.709 236.096V255.828Z" fill="#44A48B"/>
<path d="M247.026 120.517L227.553 108.866V129.321L247.026 140.745V120.517Z" fill="#8CCFBE"/>
<path d="M227.553 108.866L247.821 97.2515L267.432 108.686L247.026 120.517L227.553 108.866Z" fill="#BADFDF"/>
<path d="M247.025 120.517L267.431 108.686L267.447 129.24L247.027 140.745L247.025 120.517Z" fill="#08614B"/>
<path d="M247.167 106.44L236.617 100.127V111.21L247.167 117.399V106.44Z" fill="#8CCFBE"/>
<path d="M236.617 100.127L247.599 93.8352L258.223 100.03L247.167 106.44L236.617 100.127Z" fill="#ECF6F6"/>
<path d="M247.168 106.44L258.224 100.03L258.231 111.166L247.168 117.399L247.168 106.44Z" fill="#08614B"/>
<path d="M250.267 100.997C250.266 101.985 248.842 102.27 247.086 101.633C245.331 100.997 243.909 99.6792 243.91 98.6912C243.911 97.7021 245.335 97.4172 247.09 98.0537C248.846 98.6901 250.268 100.008 250.267 100.997Z" fill="#8CCFBE"/>
<path d="M250.263 101.045L243.91 98.7462V89.9294L250.266 92.1977L250.263 101.045Z" fill="#8CCFBE"/>
<path d="M250.267 92.3056C250.266 93.2936 248.842 93.5796 247.086 92.9431C245.331 92.3066 243.909 90.9889 243.91 89.9999C243.911 89.0119 245.335 88.7259 247.09 89.3623C248.846 89.9999 250.268 91.3165 250.267 92.3056Z" fill="#ECF6F6"/>
<path d="M248.73 91.4788C248.729 91.9239 248.088 92.0528 247.296 91.7658C246.505 91.4788 245.864 90.8849 245.865 90.4388C245.865 89.9937 246.508 89.8647 247.298 90.1517C248.09 90.4388 248.73 91.0326 248.73 91.4788Z" fill="#08614B"/>
<path d="M248.73 91.4783L245.865 90.464V61.4138L248.73 62.4362L248.73 91.4783Z" fill="#08614B"/>
<path d="M248.73 62.4534C248.729 62.8985 248.088 63.0275 247.296 62.7404C246.505 62.4534 245.864 61.8596 245.865 61.4134C245.865 60.9683 246.508 60.8393 247.298 61.1263C248.09 61.4134 248.73 62.0072 248.73 62.4534Z" fill="#8CCFBE"/>
<path d="M269.373 161.14L275.044 157.976V138.238L269.373 141.403V161.14Z" fill="#7CC8B5"/>
<path d="M275.053 157.976L277.082 157.957V138.249L275.053 138.244V157.976Z" fill="#44A48B"/>
<path d="M269.373 191.065L275.044 187.9V168.163L269.373 171.327V191.065Z" fill="#7CC8B5"/>
<path d="M275.053 187.901L277.082 187.881V168.174L275.053 168.169V187.901Z" fill="#44A48B"/>
<path d="M269.373 220.989L275.044 217.825V198.088L269.373 201.252V220.989Z" fill="#7CC8B5"/>
<path d="M275.053 217.825L277.082 217.806V198.098L275.053 198.093V217.825Z" fill="#44A48B"/>
<path d="M269.373 250.914L275.044 247.75V228.012L269.373 231.176V250.914Z" fill="#7CC8B5"/>
<path d="M275.053 247.75L277.082 247.73V228.023L275.053 228.018V247.75Z" fill="#44A48B"/>
<path d="M239.919 165.857L232.338 161.519V141.781L239.919 146.119V165.857Z" fill="#BAE9DE"/>
<path d="M239.919 195.145L232.338 190.807V171.069L239.919 175.407V195.145Z" fill="#BAE9DE"/>
<path d="M234.367 189.629L232.338 190.807V171.069L234.367 172.244V189.629Z" fill="#08614B"/>
<path d="M239.919 224.433L232.338 220.095V200.357L239.919 204.695V224.433Z" fill="#BAE9DE"/>
<path d="M234.367 218.917L232.338 220.095V200.357L234.367 201.531V218.917Z" fill="#08614B"/>
<path d="M239.919 253.721L232.338 249.382V229.645L239.919 233.983V253.721Z" fill="#BAE9DE"/>
<path d="M234.367 248.205L232.338 249.382V229.645L234.367 230.819V248.205Z" fill="#08614B"/>
<path d="M234.303 160.319L232.273 161.496V141.759L234.303 142.933V160.319Z" fill="#08614B"/>
<path d="M115.203 316.306L79.7754 336.461L80.9455 152.052L116.373 131.896L115.203 316.306Z" fill="#8CCFBE"/>
<path d="M44.8574 315.859L80.0261 336.463L81.1962 152.054L46.0275 131.45L44.8574 315.859Z" fill="#F2F2F2"/>
<path d="M116.212 146.677L80.9863 166.718L81.054 156.058L116.28 136.017L116.212 146.677Z" fill="#08614B"/>
<path d="M116.115 162.138L80.8887 182.179L80.9563 171.519L116.182 151.478L116.115 162.138Z" fill="#08614B"/>
<path d="M116.015 177.802L80.7891 197.843L80.8567 187.183L116.083 167.142L116.015 177.802Z" fill="#08614B"/>
<path d="M115.917 193.162L80.6914 213.203L80.7591 202.544L115.985 182.503L115.917 193.162Z" fill="#08614B"/>
<path d="M115.818 208.826L80.5918 228.867L80.6594 218.207L115.885 198.167L115.818 208.826Z" fill="#08614B"/>
<path d="M115.72 224.288L80.4941 244.329L80.5618 233.669L115.788 213.628L115.72 224.288Z" fill="#08614B"/>
<path d="M115.621 239.951L80.3945 259.992L80.4622 249.332L115.688 229.291L115.621 239.951Z" fill="#08614B"/>
<path d="M115.523 255.312L80.2969 275.353L80.3645 264.694L115.591 244.653L115.523 255.312Z" fill="#08614B"/>
<path d="M115.423 270.989L80.1973 291.03L80.2649 280.37L115.491 260.329L115.423 270.989Z" fill="#08614B"/>
<path d="M115.326 286.451L80.0996 306.492L80.1673 295.832L115.393 275.791L115.326 286.451Z" fill="#08614B"/>
<path d="M115.226 302.115L80 322.155L80.0676 311.495L115.294 291.454L115.226 302.115Z" fill="#08614B"/>
<path d="M115.128 317.475L79.9023 337.516L79.97 326.857L115.196 306.816L115.128 317.475Z" fill="#08614B"/>
<path d="M46.0176 146.231L80.9871 166.718L81.0548 156.058L46.0852 135.571L46.0176 146.231Z" fill="#44A48B"/>
<path d="M45.9199 161.693L80.8895 182.179L80.9572 171.519L45.9876 151.033L45.9199 161.693Z" fill="#44A48B"/>
<path d="M45.8203 177.357L80.7899 197.843L80.8575 187.183L45.888 166.697L45.8203 177.357Z" fill="#44A48B"/>
<path d="M45.7227 192.717L80.6922 213.203L80.7599 202.544L45.7903 182.058L45.7227 192.717Z" fill="#44A48B"/>
<path d="M45.623 208.381L80.5926 228.867L80.6603 218.208L45.6907 197.721L45.623 208.381Z" fill="#44A48B"/>
<path d="M45.5254 223.842L80.495 244.329L80.5626 233.669L45.593 213.183L45.5254 223.842Z" fill="#44A48B"/>
<path d="M45.4258 239.506L80.3954 259.992L80.463 249.332L45.4934 228.846L45.4258 239.506Z" fill="#44A48B"/>
<path d="M45.3281 254.867L80.2977 275.353L80.3654 264.694L45.3958 244.207L45.3281 254.867Z" fill="#44A48B"/>
<path d="M45.2285 270.544L80.1981 291.03L80.2658 280.37L45.2962 259.884L45.2285 270.544Z" fill="#44A48B"/>
<path d="M45.1309 286.005L80.1005 306.492L80.1681 295.832L45.1985 275.346L45.1309 286.005Z" fill="#44A48B"/>
<path d="M45.0312 301.669L80.0008 322.155L80.0685 311.495L45.0989 291.009L45.0312 301.669Z" fill="#44A48B"/>
<path d="M44.9336 317.03L79.9032 337.516L79.9708 326.857L45.0012 306.37L44.9336 317.03Z" fill="#44A48B"/>
<path d="M81.195 152.123L44.7227 130.756L81.4632 109.854L117.936 131.221L81.195 152.123Z" fill="url(#paint3_linear)"/>
<path d="M44.7734 130.746L81.1462 152.123L81.1659 149.233L44.7933 127.856L44.7734 130.746Z" fill="#18418D"/>
<path d="M78.8828 111.303L115.256 132.679L115.276 129.788L78.9025 108.412L78.8828 111.303Z" fill="#2C5B6F"/>
<path d="M117.839 131.21L81.1973 152.123L81.217 149.233L117.859 128.32L117.839 131.21Z" fill="#18418D"/>
<path d="M81.1655 149.233L44.793 127.843L47.3752 126.374L83.7483 147.763L81.1655 149.233Z" fill="#11C599"/>
<path d="M47.3563 129.361L83.998 108.434L81.434 106.933L44.793 127.859L47.3563 129.361Z" fill="#11C599"/>
<path d="M81.2164 149.233L117.858 128.306L115.294 126.805L78.6523 147.731L81.2164 149.233Z" fill="#11C599"/>
<path d="M115.275 129.792L78.9023 108.402L81.4852 106.933L117.858 128.322L115.275 129.792Z" fill="#11C599"/>
<path d="M81.4458 112.744L52.4122 129.335L49.9258 127.874L81.4641 109.854L81.4458 112.744Z" fill="#2C5B6F"/>
<path d="M82.5259 102.265L82.612 88.7069L81.5366 86.8172L80.3781 88.7252L80.2923 102.283L78.1063 104.027L77.9355 130.911C78.6268 131.872 79.1719 132.942 81.2146 132.889C82.728 132.931 84.0451 132.646 84.5176 130.953L84.6202 114.805L84.6884 104.036L82.5259 102.265Z" fill="url(#paint4_linear)"/>
<path d="M44.7734 130.746L81.1462 152.123L81.1659 149.233L44.7933 127.856L44.7734 130.746Z" fill="#08614B"/>
<path d="M117.839 131.21L81.1973 152.123L81.217 149.233L117.859 128.32L117.839 131.21Z" fill="#08614B"/>
<path d="M229.341 398.588L351.635 327.981L284.731 289.341L162.438 359.947L229.341 398.588Z" fill="#3661AA"/>
<path d="M229.341 398.588L351.635 327.981L284.731 289.341L162.438 359.947L229.341 398.588Z" fill="#A7CDC4"/>
<path d="M274.51 357.762L337.44 321.429V323.912L274.504 360.248L274.51 357.762Z" fill="white"/>
<path d="M250.613 374.04L222.172 390.461V387.978L250.608 371.56L250.613 374.04Z" fill="white"/>
<path d="M222.172 374.277L337.438 307.729V310.212L222.172 376.76V374.277Z" fill="white"/>
<path d="M222.172 385.935L333.905 321.429V312.255L222.172 376.76V385.935Z" fill="#44A48B"/>
<path d="M222.172 372.246L333.905 307.74V298.566L222.172 363.071V372.246Z" fill="#44A48B"/>
<path d="M222.174 387.978L167.615 356.479V358.961L222.174 390.461V387.978Z" fill="#A9DFD6"/>
<path d="M222.174 374.277L167.641 342.793L167.615 345.261L222.173 376.76L222.174 374.277Z" fill="#A9DFD6"/>
<path d="M222.173 385.935L171.162 356.479V347.304L222.173 376.76V385.935Z" fill="#F2F2F2"/>
<path d="M222.173 372.246L170.758 342.836V333.661L222.173 363.071V372.246Z" fill="#F2F2F2"/>
<path d="M222.172 360.885L167.639 329.4L167.613 331.868L222.171 363.367L222.172 360.885Z" fill="#A9DFD6"/>
<path d="M328.201 294.394L222.172 355.61V293.503L328.201 232.287V294.394Z" fill="#44A48B"/>
<path d="M174.672 266.075V252.612L222.173 280.04V293.503L174.672 266.075Z" fill="#028E67"/>
<path d="M176.852 329.443V267.336L222.173 293.503V355.61L176.852 329.443Z" fill="#F2F2F2"/>
<path d="M330.383 217.552L282.881 190.123L174.672 252.612L222.173 280.04L330.383 217.552Z" fill="#ECF6F6"/>
<path d="M274.507 344.12L256.338 354.61V341.217L274.507 330.727V344.12Z" fill="url(#paint5_linear)"/>
<path d="M274.507 344.12L256.338 354.61V341.217L274.507 330.727V344.12Z" fill="url(#paint6_linear)"/>
<path d="M330.381 217.548V231.014L222.172 293.503V280.04L330.381 217.548Z" fill="#44A48B"/>
<path d="M250.61 371.553L247.082 373.596V362.379L250.609 360.343L250.61 357.87L247.082 359.904V348.992L274.507 333.16V360.261L269.888 357.575L270.591 357.984L248.813 370.555L250.61 371.553Z" fill="#027A58"/>
<path d="M167.615 329.406L176.852 324.073V329.406L222.19 355.581L328.202 294.394L328.203 289.061L337.439 294.394L222.165 360.9L167.615 329.406Z" fill="#027A58"/>
<path d="M170.757 340.985L167.615 342.799L222.173 374.277L250.612 357.87L247.083 355.91L247.081 357.868L222.256 372.199L170.758 342.536L170.757 340.985Z" fill="#027A58"/>
<path d="M174.671 254.597L171.529 256.411L222.174 285.634L333.915 221.105L330.386 219.145L330.383 221.102L222.256 283.556L174.672 256.148L174.671 254.597Z" fill="#3CBA96"/>
<path d="M171.162 354.434L167.615 356.482L222.173 387.961L250.612 371.553L247.083 369.593L247.081 371.551L222.256 385.882L171.162 356.479L171.162 354.434Z" fill="#027A58"/>
<path opacity="0.31" d="M271.693 358.158L274.507 360.249V333.16L271.693 334.777V358.158Z" fill="#01412F"/>
<path d="M222.172 360.885L337.438 294.336V296.819L222.172 363.367V360.885Z" fill="white"/>
<path d="M269.889 341.382L274.507 344.056V346.547L269.889 343.872V341.382Z" fill="#D7D9E1"/>
<path d="M333.905 305.747L337.438 307.787L274.507 344.047L269.889 341.382L271.687 340.317L274.507 341.963L333.905 307.74V305.747Z" fill="#027A58"/>
<path d="M269.889 355.084L274.507 357.76V360.249L269.889 357.575V355.084Z" fill="#D7D9E1"/>
<path d="M333.905 319.45L337.438 321.49L274.507 357.75L269.889 355.084L271.687 354.02L274.507 355.665L333.905 321.443V319.45Z" fill="#027A58"/>
<path d="M222.172 301.44V302.879L328.201 241.739V240.301L222.172 301.44Z" fill="#A9DFD6"/>
<path d="M222.172 293.589V295.028L328.201 233.888V232.45L222.172 293.589Z" fill="#A9DFD6"/>
<path d="M222.172 309.368V310.807L328.201 249.667V248.228L222.172 309.368Z" fill="#A9DFD6"/>
<path d="M222.172 317.296V318.734L328.201 257.595V256.157L222.172 317.296Z" fill="#A9DFD6"/>
<path d="M222.172 325.147V326.586L328.201 265.446V264.007L222.172 325.147Z" fill="#A9DFD6"/>
<path d="M222.172 332.998V334.436L328.201 273.297V271.859L222.172 332.998Z" fill="#A9DFD6"/>
<path d="M222.172 340.842V342.28L328.201 281.14V279.702L222.172 340.842Z" fill="#A9DFD6"/>
<path d="M222.172 348.692V350.13L328.201 288.991V287.553L222.172 348.692Z" fill="#A9DFD6"/>
<path d="M222.194 340.841V342.28L176.852 316.134V314.695L222.194 340.841Z" fill="#028E67"/>
<path d="M222.194 348.692V350.13L176.852 323.985V322.546L222.194 348.692Z" fill="#028E67"/>
<path d="M222.194 332.913V334.352L176.852 308.206V306.767L222.194 332.913Z" fill="#028E67"/>
<path d="M222.194 324.986V326.424L176.852 300.278V298.84L222.194 324.986Z" fill="#028E67"/>
<path d="M222.194 317.134V318.573L176.852 292.427V290.989L222.194 317.134Z" fill="#028E67"/>
<path d="M222.194 309.284V310.722L176.852 284.576V283.138L222.194 309.284Z" fill="#028E67"/>
<path d="M222.194 301.44V302.879L176.852 276.732V275.294L222.194 301.44Z" fill="#028E67"/>
<path d="M222.194 293.589V295.028L176.852 268.882V267.443L222.194 293.589Z" fill="#028E67"/>
<path d="M251.75 368.815L265.221 361.105V344.115L251.75 351.849V368.815Z" fill="#8BC9B9"/>
<path d="M259.389 357.804L265.222 361.105V344.115L259.389 347.304V357.804Z" fill="#A9DFD6"/>
<path d="M259.388 357.804L265.221 361.105L251.75 368.815V362.269L259.388 357.804Z" fill="#A9DFD6"/>
<path d="M323.569 233.701V298.157L321.389 299.398V234.943L323.569 233.701Z" fill="white"/>
<path d="M323.568 233.701L322.64 233.161L320.461 234.402L321.388 234.943L323.568 233.701Z" fill="white"/>
<path d="M320.461 234.402V298.857L321.388 299.398V234.943L320.461 234.402Z" fill="white"/>
<path d="M315.852 238.142V302.598L313.672 303.839V239.384L315.852 238.142Z" fill="white"/>
<path d="M315.851 238.142L314.924 237.602L312.744 238.843L313.672 239.384L315.851 238.142Z" fill="white"/>
<path d="M312.744 238.843V303.298L313.672 303.839V239.384L312.744 238.843Z" fill="white"/>
<path d="M308.133 242.624V307.08L305.953 308.321V243.866L308.133 242.624Z" fill="white"/>
<path d="M308.133 242.624L307.205 242.084L305.025 243.325L305.953 243.866L308.133 242.624Z" fill="white"/>
<path d="M305.025 243.325V307.78L305.953 308.321V243.866L305.025 243.325Z" fill="white"/>
<path d="M300.419 247.106V311.562L298.238 312.803V248.348L300.419 247.106Z" fill="white"/>
<path d="M300.418 247.106L299.49 246.565L297.311 247.807L298.238 248.348L300.418 247.106Z" fill="white"/>
<path d="M297.311 247.807V312.262L298.238 312.803V248.348L297.311 247.807Z" fill="white"/>
<path d="M292.702 251.547V316.003L290.521 317.244V252.788L292.702 251.547Z" fill="white"/>
<path d="M292.701 251.547L291.774 251.006L289.594 252.247L290.521 252.788L292.701 251.547Z" fill="white"/>
<path d="M289.594 252.247V316.703L290.521 317.244V252.788L289.594 252.247Z" fill="white"/>
<path d="M284.983 256.029V320.485L282.803 321.726V257.27L284.983 256.029Z" fill="white"/>
<path d="M284.983 256.029L284.055 255.488L281.875 256.73L282.803 257.27L284.983 256.029Z" fill="white"/>
<path d="M281.875 256.73V321.185L282.803 321.726V257.27L281.875 256.73Z" fill="white"/>
<path d="M277.186 260.467V324.923L275.006 326.164V261.709L277.186 260.467Z" fill="white"/>
<path d="M277.186 260.467L276.258 259.927L274.078 261.168L275.006 261.709L277.186 260.467Z" fill="white"/>
<path d="M274.078 261.168V325.623L275.006 326.164V261.709L274.078 261.168Z" fill="white"/>
<path d="M269.467 264.908V329.364L267.287 330.605V266.15L269.467 264.908Z" fill="white"/>
<path d="M269.467 264.908L268.54 264.368L266.359 265.609L267.287 266.15L269.467 264.908Z" fill="white"/>
<path d="M266.359 265.609V330.065L267.287 330.605V266.149L266.359 265.609Z" fill="white"/>
<path d="M261.75 269.39V333.846L259.57 335.087V270.631L261.75 269.39Z" fill="white"/>
<path d="M261.75 269.39L260.822 268.849L258.643 270.091L259.57 270.631L261.75 269.39Z" fill="white"/>
<path d="M258.643 270.091V334.546L259.57 335.087V270.631L258.643 270.091Z" fill="white"/>
<path d="M254.035 273.872V338.328L251.855 339.569V275.113L254.035 273.872Z" fill="white"/>
<path d="M254.035 273.872L253.108 273.331L250.928 274.573L251.855 275.113L254.035 273.872Z" fill="white"/>
<path d="M250.928 274.573V339.028L251.855 339.569V275.113L250.928 274.573Z" fill="white"/>
<path d="M246.317 278.313V342.769L244.137 344.01V279.555L246.317 278.313Z" fill="white"/>
<path d="M246.316 278.313L245.389 277.772L243.209 279.014L244.136 279.555L246.316 278.313Z" fill="white"/>
<path d="M243.209 279.014V343.469L244.136 344.01V279.554L243.209 279.014Z" fill="white"/>
<path d="M238.599 282.795V347.251L236.42 348.492V284.036L238.599 282.795Z" fill="white"/>
<path d="M238.599 282.795L237.672 282.254L235.492 283.496L236.42 284.036L238.599 282.795Z" fill="white"/>
<path d="M235.492 283.496V347.951L236.42 348.492V284.036L235.492 283.496Z" fill="white"/>
<path d="M230.967 287.082V351.537L228.787 352.778V288.323L230.967 287.082Z" fill="white"/>
<path d="M230.967 287.082L230.04 286.541L227.859 287.782L228.787 288.323L230.967 287.082Z" fill="white"/>
<path d="M227.859 287.782V352.238L228.787 352.778V288.323L227.859 287.782Z" fill="white"/>
<path d="M229.352 398.555L351.636 327.981V329.378L229.352 399.951V398.555Z" fill="#77C2B1"/>
<path d="M162.438 359.948L229.351 398.555V399.951L162.438 361.344V359.948Z" fill="#79D3BA"/>
<path d="M222.158 285.618L333.913 221.105V224.573L222.158 289.087V285.618Z" fill="white"/>
<path d="M171.529 256.411L222.16 285.618V289.087L171.529 259.88V256.411Z" fill="#F2F2F2"/>
<path fill-rule="evenodd" clip-rule="evenodd" d="M357.839 394.558C362.312 394.558 365.938 396.846 365.938 399.668C365.938 402.49 362.312 404.778 357.839 404.778C353.367 404.778 349.742 402.49 349.742 399.668C349.742 396.846 353.367 394.558 357.839 394.558Z" fill="#ADD5CC"/>
<path d="M343.217 400.978H353.064V398.776H343.217V400.978Z" fill="#ADD5CC"/>
<path d="M345.727 387.318V400.09C345.727 400.234 345.681 400.378 345.585 400.513C345.489 400.648 345.347 400.775 345.157 400.885C344.778 401.104 344.279 401.213 343.784 401.213C343.285 401.213 342.787 401.104 342.407 400.885C342.217 400.775 342.076 400.648 341.98 400.513C341.886 400.378 341.838 400.234 341.838 400.09V391.647V387.318C341.838 387.462 341.886 387.604 341.98 387.741C342.076 387.876 342.217 388.002 342.407 388.111C342.787 388.33 343.285 388.44 343.784 388.44C344.279 388.44 344.778 388.33 345.157 388.111C345.347 388.002 345.489 387.876 345.585 387.741C345.681 387.604 345.727 387.462 345.727 387.318Z" fill="url(#paint7_linear)"/>
<path fill-rule="evenodd" clip-rule="evenodd" d="M355.833 377.435C355.833 380.63 354.564 383.694 352.304 385.954C350.045 388.213 346.981 389.482 343.786 389.482C340.591 389.482 337.526 388.213 335.267 385.954C333.008 383.694 331.738 380.63 331.738 377.435C331.738 375.853 332.05 374.286 332.655 372.825C333.261 371.363 334.148 370.035 335.267 368.916C336.386 367.797 337.714 366.91 339.175 366.305C340.637 365.699 342.204 365.388 343.786 365.388C346.981 365.388 350.045 366.657 352.304 368.916C354.564 371.176 355.833 374.24 355.833 377.435Z" fill="url(#paint8_radial)"/>
<path fill-rule="evenodd" clip-rule="evenodd" d="M387.071 377.46C391.545 377.46 395.17 379.748 395.17 382.57C395.17 385.392 391.545 387.68 387.071 387.68C382.6 387.68 378.975 385.392 378.975 382.57C378.975 379.748 382.6 377.46 387.071 377.46Z" fill="#ADD5CC"/>
<path d="M372.449 383.88H382.297V381.678H372.449V383.88Z" fill="#ADD5CC"/>
<path d="M374.959 370.22V382.993C374.959 383.136 374.914 383.28 374.818 383.415C374.721 383.55 374.58 383.677 374.39 383.787C374.01 384.006 373.512 384.116 373.016 384.116C372.518 384.116 372.019 384.006 371.64 383.787C371.45 383.677 371.308 383.55 371.212 383.415C371.118 383.28 371.07 383.136 371.07 382.993V374.55V370.22C371.07 370.364 371.118 370.507 371.212 370.643C371.308 370.778 371.45 370.904 371.64 371.013C372.019 371.233 372.518 371.342 373.016 371.342C373.512 371.342 374.01 371.233 374.39 371.013C374.58 370.904 374.721 370.778 374.818 370.643C374.914 370.507 374.959 370.364 374.959 370.22Z" fill="url(#paint9_linear)"/>
<path fill-rule="evenodd" clip-rule="evenodd" d="M385.065 360.337C385.065 363.532 383.796 366.597 381.537 368.856C379.278 371.115 376.213 372.385 373.018 372.385C369.823 372.385 366.759 371.115 364.499 368.856C362.24 366.597 360.971 363.532 360.971 360.337C360.971 358.755 361.282 357.188 361.888 355.727C362.493 354.265 363.381 352.937 364.499 351.818C365.618 350.7 366.946 349.812 368.408 349.207C369.869 348.601 371.436 348.29 373.018 348.29C376.213 348.29 379.278 349.559 381.537 351.818C383.796 354.078 385.065 357.142 385.065 360.337Z" fill="url(#paint10_radial)"/>
<path fill-rule="evenodd" clip-rule="evenodd" d="M414.648 361.466C419.121 361.466 422.746 363.753 422.746 366.575C422.746 369.397 419.121 371.685 414.648 371.685C410.176 371.685 406.551 369.397 406.551 366.575C406.551 363.753 410.176 361.466 414.648 361.466Z" fill="#ADD5CC"/>
<path d="M400.025 367.885H409.873V365.683H400.025V367.885Z" fill="#ADD5CC"/>
<path d="M402.535 354.225V366.998C402.535 367.142 402.49 367.286 402.394 367.42C402.298 367.555 402.156 367.683 401.966 367.792C401.587 368.011 401.088 368.121 400.592 368.121C400.094 368.121 399.595 368.011 399.216 367.792C399.026 367.683 398.884 367.555 398.788 367.42C398.695 367.286 398.646 367.142 398.646 366.998V358.555V354.225C398.646 354.369 398.695 354.512 398.788 354.648C398.884 354.783 399.026 354.909 399.216 355.019C399.595 355.238 400.094 355.347 400.592 355.347C401.088 355.347 401.587 355.238 401.966 355.019C402.156 354.909 402.298 354.783 402.394 354.648C402.49 354.512 402.535 354.369 402.535 354.225Z" fill="url(#paint11_linear)"/>
<path fill-rule="evenodd" clip-rule="evenodd" d="M412.642 344.342C412.642 347.537 411.372 350.602 409.113 352.861C406.854 355.12 403.789 356.39 400.594 356.39C397.399 356.39 394.335 355.12 392.075 352.861C389.816 350.602 388.547 347.538 388.547 344.342C388.547 342.76 388.858 341.194 389.464 339.732C390.069 338.27 390.957 336.942 392.075 335.824C393.194 334.705 394.522 333.818 395.984 333.212C397.446 332.607 399.012 332.295 400.594 332.295C403.789 332.295 406.854 333.564 409.113 335.824C411.372 338.083 412.642 341.147 412.642 344.342Z" fill="url(#paint12_radial)"/>
<path fill-rule="evenodd" clip-rule="evenodd" d="M443.88 344.368C448.353 344.368 451.979 346.655 451.979 349.478C451.979 352.299 448.353 354.587 443.88 354.587C439.408 354.587 435.783 352.299 435.783 349.478C435.783 346.655 439.408 344.368 443.88 344.368Z" fill="#ADD5CC"/>
<path d="M429.258 350.787H439.105V348.586H429.258V350.787Z" fill="#ADD5CC"/>
<path d="M431.768 337.127V349.9C431.768 350.044 431.723 350.188 431.626 350.323C431.53 350.458 431.388 350.585 431.199 350.694C430.819 350.913 430.32 351.023 429.825 351.023C429.326 351.023 428.828 350.913 428.448 350.694C428.258 350.585 428.117 350.458 428.021 350.323C427.927 350.188 427.879 350.044 427.879 349.9V341.457V337.127C427.879 337.271 427.927 337.414 428.021 337.55C428.117 337.685 428.258 337.811 428.448 337.921C428.828 338.14 429.326 338.249 429.825 338.249C430.32 338.249 430.819 338.14 431.199 337.921C431.388 337.811 431.53 337.685 431.626 337.55C431.723 337.414 431.768 337.271 431.768 337.127Z" fill="url(#paint13_linear)"/>
<path fill-rule="evenodd" clip-rule="evenodd" d="M441.874 327.245C441.874 330.44 440.605 333.504 438.345 335.763C436.086 338.023 433.022 339.292 429.827 339.292C426.632 339.292 423.567 338.023 421.308 335.763C419.049 333.504 417.779 330.44 417.779 327.245C417.779 325.662 418.091 324.096 418.696 322.634C419.302 321.173 420.189 319.844 421.308 318.726C422.427 317.607 423.755 316.72 425.216 316.114C426.678 315.509 428.245 315.197 429.827 315.197C433.022 315.197 436.086 316.466 438.345 318.726C440.605 320.985 441.874 324.049 441.874 327.245Z" fill="url(#paint14_radial)"/>
<path fill-rule="evenodd" clip-rule="evenodd" d="M216.804 421.584C221.277 421.584 224.902 423.871 224.902 426.694C224.902 429.515 221.277 431.803 216.804 431.803C212.332 431.803 208.707 429.515 208.707 426.694C208.707 423.871 212.332 421.584 216.804 421.584Z" fill="#ADD5CC"/>
<path d="M202.182 428.003H212.029V425.802H202.182V428.003Z" fill="#ADD5CC"/>
<path d="M201.929 414.527V427.3C201.929 427.444 201.975 427.588 202.071 427.722C202.167 427.858 202.309 427.985 202.499 428.094C202.878 428.313 203.377 428.423 203.873 428.423C204.371 428.423 204.869 428.313 205.249 428.094C205.439 427.985 205.58 427.858 205.677 427.722C205.77 427.588 205.818 427.444 205.818 427.3V418.857V414.527C205.818 414.671 205.77 414.814 205.677 414.95C205.58 415.085 205.439 415.211 205.249 415.321C204.869 415.54 204.371 415.649 203.873 415.649C203.377 415.649 202.878 415.54 202.499 415.321C202.309 415.211 202.167 415.085 202.071 414.95C201.975 414.814 201.929 414.671 201.929 414.527Z" fill="url(#paint15_linear)"/>
<path fill-rule="evenodd" clip-rule="evenodd" d="M186.835 404.118C191.308 404.118 194.934 406.406 194.934 409.228C194.934 412.05 191.308 414.338 186.835 414.338C182.363 414.338 178.738 412.05 178.738 409.228C178.738 406.406 182.363 404.118 186.835 404.118Z" fill="#ADD5CC"/>
<path d="M172.213 410.538H182.06V408.336H172.213V410.538Z" fill="#ADD5CC"/>
<path fill-rule="evenodd" clip-rule="evenodd" d="M191.824 404.644C191.824 407.84 193.094 410.904 195.353 413.163C197.612 415.423 200.676 416.692 203.872 416.692C205.454 416.692 207.02 416.38 208.482 415.775C209.944 415.169 211.272 414.282 212.39 413.163C213.509 412.045 214.396 410.716 215.002 409.255C215.607 407.793 215.919 406.227 215.919 404.644C215.919 403.062 215.607 401.496 215.002 400.034C214.396 398.572 213.509 397.244 212.39 396.126C211.272 395.007 209.944 394.12 208.482 393.514C207.02 392.909 205.454 392.597 203.872 392.597C200.676 392.597 197.612 393.866 195.353 396.126C193.093 398.385 191.824 401.449 191.824 404.644Z" fill="url(#paint16_radial)"/>
<path d="M172.697 397.429V410.202C172.697 410.346 172.742 410.49 172.839 410.625C172.935 410.76 173.077 410.887 173.266 410.996C173.646 411.215 174.144 411.325 174.64 411.325C175.139 411.325 175.637 411.215 176.017 410.996C176.206 410.887 176.348 410.76 176.444 410.625C176.538 410.49 176.586 410.346 176.586 410.202V401.759V397.429C176.586 397.573 176.538 397.716 176.444 397.852C176.348 397.987 176.206 398.113 176.017 398.223C175.637 398.442 175.139 398.551 174.64 398.551C174.144 398.551 173.646 398.442 173.266 398.223C173.077 398.113 172.935 397.987 172.839 397.852C172.742 397.716 172.697 397.573 172.697 397.429Z" fill="url(#paint17_linear)"/>
<path fill-rule="evenodd" clip-rule="evenodd" d="M159.809 388.307C164.283 388.307 167.908 390.595 167.908 393.417C167.908 396.239 164.283 398.527 159.809 398.527C155.338 398.527 151.713 396.239 151.713 393.417C151.713 390.595 155.338 388.307 159.809 388.307Z" fill="#ADD5CC"/>
<path d="M145.188 394.727H155.035V392.525H145.188V394.727Z" fill="#ADD5CC"/>
<path fill-rule="evenodd" clip-rule="evenodd" d="M162.592 387.547C162.592 390.742 163.861 393.806 166.12 396.065C168.38 398.325 171.444 399.594 174.639 399.594C176.221 399.594 177.788 399.282 179.249 398.677C180.711 398.071 182.039 397.184 183.158 396.065C184.277 394.947 185.164 393.619 185.769 392.157C186.375 390.695 186.687 389.129 186.687 387.547C186.687 385.965 186.375 384.398 185.769 382.936C185.164 381.475 184.277 380.147 183.158 379.028C182.039 377.909 180.711 377.022 179.249 376.416C177.788 375.811 176.221 375.499 174.639 375.499C171.444 375.499 168.38 376.769 166.12 379.028C163.861 381.287 162.592 384.351 162.592 387.547Z" fill="url(#paint18_radial)"/>
<path d="M145.121 381.435V394.207C145.121 394.351 145.166 394.495 145.262 394.63C145.359 394.765 145.5 394.892 145.69 395.002C146.07 395.221 146.568 395.33 147.064 395.33C147.562 395.33 148.061 395.221 148.44 395.002C148.63 394.892 148.772 394.765 148.868 394.63C148.962 394.495 149.01 394.351 149.01 394.207V385.764V381.435C149.01 381.578 148.962 381.721 148.868 381.857C148.772 381.992 148.63 382.118 148.44 382.228C148.061 382.447 147.562 382.557 147.064 382.557C146.568 382.557 146.07 382.447 145.69 382.228C145.5 382.118 145.359 381.992 145.262 381.857C145.166 381.721 145.121 381.578 145.121 381.435Z" fill="url(#paint19_linear)"/>
<path fill-rule="evenodd" clip-rule="evenodd" d="M130.946 371.577C135.42 371.577 139.045 373.864 139.045 376.687C139.045 379.509 135.42 381.797 130.946 381.797C126.475 381.797 122.849 379.509 122.849 376.687C122.849 373.864 126.475 371.577 130.946 371.577Z" fill="#ADD5CC"/>
<path d="M116.324 377.997H126.172V375.795H116.324V377.997Z" fill="#ADD5CC"/>
<path fill-rule="evenodd" clip-rule="evenodd" d="M135.016 371.552C135.016 374.747 136.285 377.811 138.544 380.071C140.804 382.33 143.868 383.599 147.063 383.599C148.645 383.599 150.212 383.288 151.673 382.682C153.135 382.077 154.463 381.189 155.582 380.071C156.7 378.952 157.588 377.624 158.193 376.162C158.799 374.701 159.11 373.134 159.11 371.552C159.11 369.97 158.799 368.403 158.193 366.942C157.588 365.48 156.7 364.152 155.582 363.033C154.463 361.914 153.135 361.027 151.673 360.422C150.212 359.816 148.645 359.504 147.063 359.504C143.868 359.504 140.804 360.774 138.544 363.033C136.285 365.292 135.016 368.357 135.016 371.552Z" fill="url(#paint20_radial)"/>
<path d="M115.888 364.337V377.109C115.888 377.253 115.934 377.397 116.03 377.532C116.126 377.667 116.268 377.794 116.458 377.904C116.837 378.123 117.336 378.232 117.831 378.232C118.33 378.232 118.828 378.123 119.208 377.904C119.398 377.794 119.539 377.667 119.636 377.532C119.729 377.397 119.777 377.253 119.777 377.109V368.666V364.337C119.777 364.481 119.729 364.623 119.636 364.76C119.539 364.895 119.398 365.021 119.208 365.13C118.828 365.349 118.33 365.459 117.831 365.459C117.336 365.459 116.837 365.349 116.458 365.13C116.268 365.021 116.126 364.895 116.03 364.76C115.934 364.623 115.888 364.481 115.888 364.337Z" fill="url(#paint21_linear)"/>
<path fill-rule="evenodd" clip-rule="evenodd" d="M105.783 354.454C105.783 357.649 107.052 360.713 109.312 362.973C111.571 365.232 114.635 366.501 117.831 366.501C119.413 366.501 120.979 366.19 122.441 365.584C123.903 364.979 125.231 364.091 126.349 362.973C127.468 361.854 128.355 360.526 128.961 359.064C129.566 357.603 129.878 356.036 129.878 354.454C129.878 352.872 129.566 351.305 128.961 349.844C128.355 348.382 127.468 347.054 126.349 345.935C125.231 344.817 123.903 343.929 122.441 343.324C120.979 342.718 119.413 342.407 117.831 342.407C114.635 342.407 111.571 343.676 109.312 345.935C107.052 348.195 105.783 351.259 105.783 354.454Z" fill="url(#paint22_radial)"/>
<defs>
<linearGradient id="paint0_linear" x1="161.498" y1="452.857" x2="514.124" y2="355.079" gradientUnits="userSpaceOnUse">
<stop stop-color="#ECF6F6"/>
<stop offset="1" stop-color="#CDEAEA"/>
</linearGradient>
<linearGradient id="paint1_linear" x1="-28.8362" y1="367.758" x2="574.965" y2="286.036" gradientUnits="userSpaceOnUse">
<stop offset="0.40017" stop-color="#C7EDE2"/>
<stop offset="0.621069" stop-color="#67CDB1"/>
</linearGradient>
<linearGradient id="paint2_linear" x1="24.3594" y1="319.354" x2="496.215" y2="318.385" gradientUnits="userSpaceOnUse">
<stop stop-color="#F2FFFD"/>
<stop offset="1" stop-color="#01C38D"/>
</linearGradient>
<linearGradient id="paint3_linear" x1="44.7227" y1="130.988" x2="117.936" y2="130.988" gradientUnits="userSpaceOnUse">
<stop stop-color="#03F2AF"/>
<stop offset="1" stop-color="#02A376"/>
</linearGradient>
<linearGradient id="paint4_linear" x1="77.6836" y1="112.106" x2="84.266" y2="112.106" gradientUnits="userSpaceOnUse">
<stop stop-color="#11C599"/>
<stop offset="0.571589" stop-color="#2C5B6F"/>
<stop offset="1" stop-color="#095F52"/>
</linearGradient>
<linearGradient id="paint5_linear" x1="1934.67" y1="342.669" x2="2104.49" y2="342.669" gradientUnits="userSpaceOnUse">
<stop stop-color="#2979E7"/>
<stop offset="0.552896" stop-color="#505ED7"/>
<stop offset="1" stop-color="#6D4CCC"/>
</linearGradient>
<linearGradient id="paint6_linear" x1="1934.67" y1="342.669" x2="2104.49" y2="342.669" gradientUnits="userSpaceOnUse">
<stop stop-color="#2979E7"/>
<stop offset="0.552896" stop-color="#505ED7"/>
<stop offset="1" stop-color="#6D4CCC"/>
</linearGradient>
<linearGradient id="paint7_linear" x1="341.838" y1="381.652" x2="345.749" y2="381.652" gradientUnits="userSpaceOnUse">
<stop stop-color="#5A3433"/>
<stop offset="1" stop-color="#210E10"/>
</linearGradient>
<radialGradient id="paint8_radial" cx="0" cy="0" r="1" gradientUnits="userSpaceOnUse" gradientTransform="translate(337.815 370.97) rotate(91.8843) scale(17.9628 21.1728)">
<stop stop-color="#8AD8C5"/>
<stop offset="0.199236" stop-color="#87D5C2"/>
<stop offset="0.58242" stop-color="#4EA891"/>
<stop offset="0.77624" stop-color="#3D917B"/>
<stop offset="1" stop-color="#08614B"/>
</radialGradient>
<linearGradient id="paint9_linear" x1="371.07" y1="364.554" x2="374.981" y2="364.554" gradientUnits="userSpaceOnUse">
<stop stop-color="#5A3433"/>
<stop offset="1" stop-color="#210E10"/>
</linearGradient>
<radialGradient id="paint10_radial" cx="0" cy="0" r="1" gradientUnits="userSpaceOnUse" gradientTransform="translate(367.047 353.872) rotate(91.8843) scale(17.9627 21.1728)">
<stop stop-color="#8AD8C5"/>
<stop offset="0.199236" stop-color="#87D5C2"/>
<stop offset="0.58242" stop-color="#4EA891"/>
<stop offset="0.77624" stop-color="#3D917B"/>
<stop offset="1" stop-color="#08614B"/>
</radialGradient>
<linearGradient id="paint11_linear" x1="398.646" y1="348.559" x2="402.558" y2="348.559" gradientUnits="userSpaceOnUse">
<stop stop-color="#5A3433"/>
<stop offset="1" stop-color="#210E10"/>
</linearGradient>
<radialGradient id="paint12_radial" cx="0" cy="0" r="1" gradientUnits="userSpaceOnUse" gradientTransform="translate(394.623 337.878) rotate(91.8843) scale(17.9627 21.1727)">
<stop stop-color="#8AD8C5"/>
<stop offset="0.199236" stop-color="#87D5C2"/>
<stop offset="0.58242" stop-color="#4EA891"/>
<stop offset="0.77624" stop-color="#3D917B"/>
<stop offset="1" stop-color="#08614B"/>
</radialGradient>
<linearGradient id="paint13_linear" x1="427.879" y1="331.461" x2="431.79" y2="331.461" gradientUnits="userSpaceOnUse">
<stop stop-color="#5A3433"/>
<stop offset="1" stop-color="#210E10"/>
</linearGradient>
<radialGradient id="paint14_radial" cx="0" cy="0" r="1" gradientUnits="userSpaceOnUse" gradientTransform="translate(423.856 320.78) rotate(91.8843) scale(17.9627 21.1728)">
<stop stop-color="#8AD8C5"/>
<stop offset="0.199236" stop-color="#87D5C2"/>
<stop offset="0.58242" stop-color="#4EA891"/>
<stop offset="0.77624" stop-color="#3D917B"/>
<stop offset="1" stop-color="#08614B"/>
</radialGradient>
<linearGradient id="paint15_linear" x1="205.818" y1="408.861" x2="201.907" y2="408.861" gradientUnits="userSpaceOnUse">
<stop stop-color="#5A3433"/>
<stop offset="1" stop-color="#210E10"/>
</linearGradient>
<radialGradient id="paint16_radial" cx="0" cy="0" r="1" gradientUnits="userSpaceOnUse" gradientTransform="translate(209.842 398.18) rotate(88.1157) scale(17.9627 21.1727)">
<stop stop-color="#8AD8C5"/>
<stop offset="0.199236" stop-color="#87D5C2"/>
<stop offset="0.58242" stop-color="#4EA891"/>
<stop offset="0.77624" stop-color="#3D917B"/>
<stop offset="1" stop-color="#08614B"/>
</radialGradient>
<linearGradient id="paint17_linear" x1="176.586" y1="391.763" x2="172.675" y2="391.763" gradientUnits="userSpaceOnUse">
<stop stop-color="#5A3433"/>
<stop offset="1" stop-color="#210E10"/>
</linearGradient>
<radialGradient id="paint18_radial" cx="0" cy="0" r="1" gradientUnits="userSpaceOnUse" gradientTransform="translate(180.61 381.082) rotate(88.1157) scale(17.9627 21.1727)">
<stop stop-color="#8AD8C5"/>
<stop offset="0.199236" stop-color="#87D5C2"/>
<stop offset="0.58242" stop-color="#4EA891"/>
<stop offset="0.77624" stop-color="#3D917B"/>
<stop offset="1" stop-color="#08614B"/>
</radialGradient>
<linearGradient id="paint19_linear" x1="149.01" y1="375.769" x2="145.099" y2="375.769" gradientUnits="userSpaceOnUse">
<stop stop-color="#5A3433"/>
<stop offset="1" stop-color="#210E10"/>
</linearGradient>
<radialGradient id="paint20_radial" cx="0" cy="0" r="1" gradientUnits="userSpaceOnUse" gradientTransform="translate(153.034 365.087) rotate(88.1157) scale(17.9627 21.1727)">
<stop stop-color="#8AD8C5"/>
<stop offset="0.199236" stop-color="#87D5C2"/>
<stop offset="0.58242" stop-color="#4EA891"/>
<stop offset="0.77624" stop-color="#3D917B"/>
<stop offset="1" stop-color="#08614B"/>
</radialGradient>
<linearGradient id="paint21_linear" x1="119.777" y1="358.671" x2="115.866" y2="358.671" gradientUnits="userSpaceOnUse">
<stop stop-color="#5A3433"/>
<stop offset="1" stop-color="#210E10"/>
</linearGradient>
<radialGradient id="paint22_radial" cx="0" cy="0" r="1" gradientUnits="userSpaceOnUse" gradientTransform="translate(123.801 347.989) rotate(88.1157) scale(17.9627 21.1727)">
<stop stop-color="#8AD8C5"/>
<stop offset="0.199236" stop-color="#87D5C2"/>
<stop offset="0.58242" stop-color="#4EA891"/>
<stop offset="0.77624" stop-color="#3D917B"/>
<stop offset="1" stop-color="#08614B"/>
</radialGradient>
</defs>
</svg>
