<svg width="112" height="112" viewBox="0 0 112 112" fill="none" xmlns="http://www.w3.org/2000/svg">
<g clip-path="url(#clip0)">
<path d="M111.544 47.7661L92.798 23.4148C92.1041 22.5141 90.8386 22.2919 89.879 22.9021L77.776 30.5993H61.991C61.7867 30.5993 61.5834 30.6429 61.3868 30.7002L49.1479 34.2232L36.4485 30.7497L24.1088 22.9021C23.1654 22.3022 21.923 22.5056 21.2214 23.3754L0.487187 49.0581C-0.25793 49.9809 -0.134883 51.3285 0.764043 52.1018L11.6315 61.4542L21.3812 74.5929C18.5298 77.6306 18.5853 82.4217 21.5521 85.3894C22.8672 86.7036 24.5394 87.4461 26.2595 87.6187C26.1997 88.0084 26.1689 88.404 26.1689 88.8056C26.1689 90.8786 26.9764 92.8277 28.4419 94.2932C29.9082 95.7595 31.8573 96.567 33.9303 96.567C33.9585 96.567 33.9858 96.5653 34.0132 96.5644C34.0123 96.6174 34.0098 96.6695 34.0098 96.7225C34.0098 98.7955 34.8173 100.745 36.2827 102.211C37.749 103.676 39.6981 104.484 41.7711 104.484C42.1804 104.484 42.5854 104.451 42.9828 104.389C43.1511 106.115 43.8954 107.795 45.2147 109.114C46.7272 110.628 48.7147 111.384 50.7023 111.384C52.6898 111.384 54.6774 110.628 56.1907 109.114L57.3776 107.927L57.8757 108.329C59.3762 109.783 61.3245 110.509 63.2727 110.509C65.2603 110.509 67.2478 109.753 68.7603 108.239C70.3043 106.695 71.0605 104.657 71.0289 102.63C73.0558 102.66 75.0946 101.905 76.6387 100.362C78.181 98.8186 78.9373 96.7823 78.9073 94.7555C81.0188 94.7888 83.0217 93.9779 84.5162 92.4834C86.0603 90.9393 86.8165 88.9013 86.7849 86.8736C88.8135 86.9044 90.8506 86.149 92.3947 84.605C95.0299 81.9697 95.3691 77.8963 93.4149 74.8894L100.534 59.9802L111.236 50.7705C112.121 50.0091 112.256 48.6898 111.544 47.7661ZM23.4064 27.6607L32.2794 33.3029L12.9773 56.8186L5.24244 50.1612L23.4064 27.6607ZM24.6582 77.5186L27.3362 74.8407C27.4174 74.7595 27.5028 74.6826 27.59 74.6108C28.1138 74.1836 28.7478 73.9289 29.4194 73.8683C29.4382 73.8665 29.4579 73.8665 29.4767 73.8657C29.5724 73.858 29.6681 73.8529 29.7647 73.8537C30.6824 73.8665 31.5352 74.2417 32.1675 74.909C33.4082 76.2207 33.3416 78.3637 32.0188 79.6865L29.422 82.2833C28.1086 83.5967 25.9716 83.5967 24.6582 82.2833C23.3449 80.9691 23.3449 78.832 24.6582 77.5186ZM31.548 91.1871C30.9114 90.5514 30.561 89.7054 30.561 88.8056C30.561 87.9059 30.9114 87.0599 31.548 86.4233L36.7407 81.2306C37.7354 80.2359 39.2991 79.9634 40.5706 80.5692C41.8813 81.1938 42.6188 82.6166 42.4265 84.0478C42.324 84.8117 41.9685 85.5312 41.4233 86.0772L36.3126 91.1871C35.676 91.8237 34.8301 92.174 33.9303 92.174C33.0305 92.174 32.1846 91.8237 31.548 91.1871ZM39.3888 99.104C38.7522 98.4682 38.4019 97.6223 38.4019 96.7225C38.4019 95.8227 38.7522 94.9768 39.3888 94.3402L44.5807 89.1474C45.6445 88.0844 47.351 87.8554 48.6532 88.6134C49.8427 89.3055 50.4656 90.6642 50.2614 92.0177C50.1494 92.7619 49.7957 93.4618 49.2633 93.9941L44.1534 99.104C43.5168 99.7406 42.6709 100.091 41.7711 100.091C40.8713 100.091 40.0254 99.7406 39.3888 99.104ZM48.3199 106.008C47.0066 104.695 47.0066 102.558 48.3199 101.244L50.9979 98.5665C51.0791 98.4853 51.1637 98.4093 51.2509 98.3375C51.2534 98.3358 51.2551 98.3341 51.2568 98.3324C51.6926 97.9786 52.2045 97.7419 52.7505 97.6385C52.7633 97.6368 52.7761 97.6351 52.7889 97.6334C52.8829 97.6163 52.9786 97.6026 53.0743 97.5941C53.1128 97.5907 53.1512 97.5907 53.1906 97.5881C53.2692 97.5838 53.3469 97.5787 53.4264 97.5796C54.3433 97.5924 55.1969 97.9667 55.8292 98.6349C55.907 98.7169 55.9796 98.8023 56.0463 98.8904C57.0563 100.211 56.9204 102.172 55.6669 103.426L53.0837 106.009C51.7704 107.322 49.6333 107.322 48.3199 106.008ZM89.2886 81.4989C87.9752 82.8131 85.8381 82.8122 84.5248 81.4989C84.4769 81.451 84.4265 81.4066 84.3752 81.3647L70.2539 67.0947C69.4003 66.2325 68.01 66.2257 67.1478 67.0793C66.2856 67.9321 66.2788 69.3224 67.1316 70.1845L81.4059 84.6075C81.4076 84.6092 81.4093 84.6109 81.411 84.6126C82.7244 85.926 82.7244 88.0639 81.411 89.3773C80.7744 90.0139 79.9285 90.3642 79.0287 90.3642C78.1281 90.3642 77.2821 90.0139 76.6464 89.3773L67.0974 79.7292C66.2446 78.867 64.8544 78.8602 63.9922 79.713C63.13 80.5666 63.1232 81.9569 63.976 82.8191L73.3788 92.3193C73.4266 92.3791 73.4779 92.4364 73.5326 92.4911C74.8459 93.8044 74.8459 95.9424 73.5326 97.2557C72.2184 98.5691 70.0804 98.5682 68.7671 97.2549L63.5555 91.9886C62.7019 91.1264 61.3116 91.1188 60.4495 91.9724C59.5873 92.8252 59.5804 94.2154 60.4332 95.0776L65.4995 100.196C65.5474 100.256 65.5986 100.314 65.6542 100.369C66.9675 101.682 66.9675 103.82 65.6542 105.133C64.3408 106.447 62.2037 106.447 60.8904 105.133C60.7391 104.982 60.5614 104.866 60.3922 104.736C60.2487 104.627 60.2111 104.551 60.2828 104.376C60.3555 104.199 60.464 104.04 60.5366 103.862C60.6169 103.664 60.6819 103.459 60.7451 103.254C61.0818 102.169 61.1809 101.002 61.0297 99.8756C60.7391 97.7146 59.5505 95.7646 57.7493 94.5307C56.776 93.8651 55.6498 93.4284 54.4825 93.2644C55.0482 90.7693 54.3689 88.0639 52.6018 86.1969C51.1475 84.6605 49.183 83.7983 47.0698 83.7693C46.9929 83.7684 46.916 83.7684 46.8383 83.7693C46.8853 81.7527 46.1521 79.7489 44.7618 78.28C43.3066 76.7436 41.3422 75.8814 39.2299 75.8524C38.6018 75.8438 37.9678 75.9105 37.356 76.0515C37.0945 74.2323 36.1776 72.5489 34.7891 71.3449C33.4091 70.1504 31.6736 69.4873 29.8253 69.4616C27.8796 69.4334 25.9681 70.1512 24.5232 71.456L16.0338 60.0169L36.3434 35.2743L42.8162 37.0448L34.3627 51.9616C33.3407 53.7655 33.0826 55.859 33.6355 57.8568C34.1884 59.8554 35.4855 61.5183 37.2893 62.5402C37.4021 62.6043 37.5158 62.665 37.6311 62.7231C37.6397 62.7274 37.6482 62.7317 37.6576 62.7359C37.9609 62.8872 38.2728 63.0171 38.589 63.1264C40.0613 63.6366 41.6515 63.6921 43.1853 63.2683C45.1831 62.7154 46.8459 61.4174 47.8679 59.6145L53.3615 49.9202L63.1702 50.6158L89.2894 76.7342C90.6019 78.0484 90.6019 80.1855 89.2886 81.4989ZM90.1986 71.4321L65.696 46.9304C65.6499 46.8834 65.6012 46.839 65.5508 46.7971C65.1979 46.5031 64.7604 46.3254 64.299 46.2929L52.2891 45.441C51.4585 45.3838 50.6331 45.8255 50.2229 46.5493L44.0466 57.4492C43.6031 58.2319 42.8811 58.795 42.0138 59.0351C41.1473 59.2752 40.2382 59.1624 39.4546 58.719C38.6719 58.2755 38.1088 57.5534 37.8687 56.6861C37.6285 55.8188 37.7405 54.9096 38.1848 54.1269L46.4298 39.5758L49.7709 38.6145C49.7931 38.6076 49.8145 38.5991 49.8367 38.5922L62.3063 34.9914H77.3727L96.1818 58.9018L90.1986 71.4321ZM99.0588 55.4548L81.6648 33.3311L90.5421 27.6855L106.795 48.7974L99.0588 55.4548Z" fill="#02A97B"/>
<path d="M67.8523 26.4755C68.4146 26.4755 68.9768 26.261 69.4058 25.832L84.4072 10.8306C85.2652 9.97266 85.2652 8.5824 84.4072 7.72449C83.5493 6.86658 82.1591 6.86658 81.3012 7.72449L66.2997 22.726C65.4418 23.5839 65.4418 24.9741 66.2997 25.832C66.7286 26.261 67.2909 26.4755 67.8523 26.4755Z" fill="#02A97B"/>
<path d="M42.5941 25.832C43.0231 26.261 43.5853 26.4755 44.1476 26.4755C44.709 26.4755 45.2713 26.261 45.7002 25.832C46.5581 24.9741 46.5581 23.5839 45.7002 22.726L30.6987 7.72449C29.8408 6.86658 28.4506 6.86658 27.5927 7.72449C26.7347 8.5824 26.7347 9.97266 27.5927 10.8306L42.5941 25.832Z" fill="#02A97B"/>
<path d="M56.0007 26.4757C57.2132 26.4757 58.1968 25.4922 58.1968 24.2797V11.8647C58.1968 10.6522 57.2132 9.6687 56.0007 9.6687C54.7882 9.6687 53.8047 10.6522 53.8047 11.8647V24.2797C53.8047 25.4922 54.7882 26.4757 56.0007 26.4757Z" fill="#02A97B"/>
<path d="M53.9742 3.90501C54.3228 4.7501 55.1918 5.30467 56.1087 5.25682C57.0145 5.20982 57.81 4.598 58.0903 3.73582C58.3714 2.8668 58.0655 1.87645 57.3375 1.32273C56.5949 0.757061 55.5593 0.725445 54.7825 1.23899C53.9161 1.8115 53.5803 2.9514 53.9742 3.90501Z" fill="#02A97B"/>
</g>
<defs>
<clipPath id="clip0">
<rect width="112" height="112" fill="white"/>
</clipPath>
</defs>
</svg>
