<svg width="112" height="112" viewBox="0 0 112 112" fill="none" xmlns="http://www.w3.org/2000/svg">
<g clip-path="url(#clip0)">
<path d="M56.0011 29.3152C41.2871 29.3152 29.3164 41.2861 29.3164 55.9998C29.3164 70.7136 41.2871 82.6845 56.0011 82.6845C70.7151 82.6845 82.6857 70.7138 82.6857 55.9998C82.6857 41.2858 70.7151 29.3152 56.0011 29.3152ZM78.116 53.0461C75.4891 53.7504 70.8354 54.5368 68.5499 52.1343C67.9855 51.5402 67.501 50.9242 67.0324 50.3283C65.7131 48.6509 64.218 46.7498 61.3119 46.3134C58.7402 45.9275 56.8568 47.0956 55.4811 47.9481C54.8758 48.3235 54.1235 48.7881 53.8488 48.7194C48.039 47.2135 48.4588 42.5498 49.5368 37.0637C49.735 36.0547 49.8962 35.2346 49.9487 34.5245C51.8741 33.9811 53.9041 33.6904 56.0011 33.6904C67.3015 33.6902 76.6664 42.1355 78.116 53.0461ZM45.1913 36.4882C44.7265 38.8617 44.1498 42.0232 44.7665 45.0553C45.5855 49.0812 48.3463 51.8127 52.7517 52.9544C54.8373 53.4947 56.4718 52.4808 57.7856 51.6668C58.9603 50.9386 59.7277 50.4989 60.6628 50.64C61.8038 50.8111 62.3857 51.4973 63.5932 53.0329C64.0992 53.6761 64.6725 54.4052 65.3789 55.1487C67.5349 57.4147 70.5013 58.116 73.3484 58.116C75.1036 58.1158 76.8134 57.8492 78.2593 57.5182C78.0725 60.2843 77.3793 62.9139 76.2717 65.3144C74.8136 64.2111 73.0391 62.8992 72.1013 62.3226C68.9552 60.3886 65.985 59.8376 63.2732 60.6855C59.0255 62.0131 56.6715 66.4093 55.2702 69.6008C53.6919 73.1962 50.7683 75.1645 47.8441 76.7559C47.8406 76.7577 47.8373 76.7599 47.8338 76.7616C46.1941 76.1143 44.6488 75.2781 43.2247 74.2799C43.3652 74.1998 43.5056 74.12 43.6454 74.0406C46.2391 72.5686 49.1791 70.8998 49.1376 67.6334C49.1163 65.9683 48.0353 64.6486 46.891 63.2516C45.9182 62.0638 44.8155 60.7178 44.3804 59.1619C43.9254 57.5346 43.6813 55.6466 43.6548 53.5503C43.6006 49.2378 41.473 45.3117 37.975 42.8683C39.8847 40.2544 42.3482 38.0696 45.1913 36.4882ZM33.6914 55.9998C33.6914 52.6652 34.4268 49.499 35.7442 46.6551C37.9273 48.3064 39.2459 50.8391 39.2809 53.6054C39.3122 56.0812 39.6106 58.3472 40.1677 60.3398C40.8498 62.78 42.3233 64.5788 43.5072 66.0241C43.9845 66.6066 44.6311 67.3958 44.7602 67.7437C44.6689 68.4297 42.7606 69.5127 41.4863 70.2359C40.9069 70.5649 40.3171 70.8996 39.7401 71.2587C35.9907 67.2659 33.6914 61.8962 33.6914 55.9998ZM56.0011 78.3095C55.2455 78.3095 54.4987 78.2716 53.7622 78.1979C55.7587 76.6802 57.897 74.5013 59.2764 71.3594C60.3338 68.9505 62.0342 65.6563 64.5787 64.861C66.0294 64.4077 67.7897 64.8076 69.8105 66.0496C70.6219 66.5486 72.467 67.9178 74.0401 69.1132C69.9796 74.6833 63.406 78.3095 56.0011 78.3095Z" fill="#02A97B"/>
<path d="M111.597 54.7352C111.345 54.3795 105.311 45.9254 95.4897 37.3544C89.6939 32.2962 83.7815 28.2596 77.9168 25.3564C70.4927 21.6809 63.1188 19.8176 56.0003 19.8176C48.8817 19.8176 41.5079 21.6812 34.0837 25.3564C28.219 28.2596 22.3066 32.2962 16.5109 37.3544C6.68943 45.9254 0.654992 54.3795 0.402773 54.7352C-0.134258 55.4929 -0.134258 56.5073 0.402773 57.2648C0.654773 57.6205 6.68921 66.0743 16.5104 74.6456C22.3062 79.7037 28.2186 83.7403 34.0833 86.6436C41.5074 90.319 48.8813 92.1823 55.9998 92.1823C63.1184 92.1823 70.4922 90.3188 77.9164 86.6436C83.7811 83.7403 89.6935 79.7037 95.4892 74.6456C105.31 66.0743 111.345 57.6205 111.597 57.2648C112.134 56.507 112.134 55.4929 111.597 54.7352ZM92.6129 71.3492C84.0097 78.8574 70.6745 87.8073 56.0001 87.8073C41.3563 87.8073 28.0469 78.8922 19.4605 71.4133C12.1785 65.0707 6.95849 58.6503 4.91887 55.9993C6.94821 53.3594 12.1286 46.9853 19.3872 40.6507C27.9904 33.1426 41.3256 24.1926 56.0001 24.1926C70.6438 24.1926 83.9532 33.1078 92.5396 40.5866C99.8216 46.9293 105.041 53.3492 107.081 56.0006C105.052 58.6405 99.8712 65.0147 92.6129 71.3492Z" fill="#02A97B"/>
<path d="M56 15.1387C57.2082 15.1387 58.1875 14.1592 58.1875 12.9512V9.60107C58.1875 8.39314 57.2082 7.41357 56 7.41357C54.7918 7.41357 53.8125 8.39314 53.8125 9.60107V12.9514C53.8125 14.1594 54.7918 15.1387 56 15.1387Z" fill="#02A97B"/>
<path d="M23.633 24.14C24.0602 24.567 24.62 24.7807 25.1798 24.7807C25.7396 24.7807 26.2996 24.567 26.7266 24.14C27.5808 23.2857 27.5808 21.9006 26.7266 21.0462L24.3575 18.6771C23.5033 17.8231 22.1181 17.8231 21.2637 18.6771C20.4095 19.5313 20.4095 20.9165 21.2637 21.7709L23.633 24.14Z" fill="#02A97B"/>
<path d="M86.8203 24.7804C87.38 24.7804 87.94 24.5667 88.367 24.1397L90.7361 21.7707C91.5903 20.9164 91.5903 19.5313 90.7361 18.6769C89.8819 17.8229 88.4968 17.8229 87.6425 18.6769L85.2735 21.0459C84.4193 21.9002 84.4193 23.2853 85.2735 24.1397C85.7005 24.5669 86.2605 24.7804 86.8203 24.7804Z" fill="#02A97B"/>
<path d="M56 96.8611C54.7918 96.8611 53.8125 97.8406 53.8125 99.0486V102.399C53.8125 103.607 54.7918 104.586 56 104.586C57.2082 104.586 58.1875 103.607 58.1875 102.399V99.0486C58.1875 97.8406 57.2082 96.8611 56 96.8611Z" fill="#02A97B"/>
<path d="M88.3672 87.86C87.513 87.006 86.1279 87.006 85.2735 87.86C84.4193 88.7142 84.4193 90.0993 85.2735 90.9538L87.6425 93.3228C88.0697 93.7498 88.6295 93.9635 89.1893 93.9635C89.7491 93.9635 90.3091 93.7498 90.7361 93.3228C91.5903 92.4686 91.5903 91.0835 90.7361 90.2293L88.3672 87.86Z" fill="#02A97B"/>
<path d="M23.6328 87.8602L21.2637 90.2292C20.4095 91.0835 20.4095 92.4686 21.2637 93.3228C21.6909 93.7498 22.2507 93.9635 22.8105 93.9635C23.3703 93.9635 23.9303 93.7498 24.3573 93.3228L26.7263 90.9537C27.5806 90.0995 27.5806 88.7144 26.7263 87.86C25.8721 87.006 24.487 87.006 23.6328 87.8602Z" fill="#02A97B"/>
</g>
<defs>
<clipPath id="clip0">
<rect width="112" height="112" fill="white"/>
</clipPath>
</defs>
</svg>
