<svg width="112" height="112" viewBox="0 0 112 112" fill="none" xmlns="http://www.w3.org/2000/svg">
<g clip-path="url(#clip0)">
<path d="M68.4438 31.3651C68.8711 31.7923 69.4308 32.0058 69.9906 32.0058C70.5504 32.0058 71.1104 31.7923 71.5374 31.3651C72.3916 30.5108 72.3916 29.1257 71.5374 28.2713L71.5079 28.2417C70.6537 27.3875 69.2685 27.3875 68.4141 28.2417C67.5599 29.096 67.5599 30.4811 68.4141 31.3355L68.4438 31.3651Z" fill="#02A97B"/>
<path d="M103.735 52.0625L111.359 44.438C111.985 43.8123 112.172 42.8713 111.833 42.054C111.495 41.2366 110.697 40.7037 109.812 40.7037H94.0074C91.9415 32.2468 87.6057 24.5409 81.4074 18.3424C72.4008 9.33537 60.4253 4.375 47.6875 4.375C34.9497 4.375 22.9742 9.33537 13.9674 18.3424C4.96038 27.3494 0 39.3247 0 52.0625C0 64.8003 4.96038 76.7758 13.9674 85.7826C16.6458 88.461 19.5882 90.7784 22.7336 92.717L16.1433 104.36C15.7601 105.037 15.7653 105.867 16.1573 106.539C16.5491 107.212 17.2686 107.625 18.0469 107.625H29.3125C30.1007 107.625 30.828 107.201 31.2163 106.515L35.8761 98.2824C39.69 99.2499 43.6502 99.75 47.6875 99.75C51.7248 99.75 55.685 99.2499 59.4989 98.2824L64.1587 106.515C64.547 107.201 65.2743 107.625 66.0625 107.625H77.3281C78.1064 107.625 78.8259 107.212 79.2179 106.539C79.6099 105.867 79.6152 105.037 79.2319 104.36L72.6416 92.7172C75.787 90.7784 78.7294 88.4612 81.4078 85.7828C87.6037 79.5869 91.9417 71.8778 94.0074 63.4215H109.812C110.697 63.4215 111.495 62.8884 111.834 62.0712C112.172 61.2539 111.985 60.3129 111.359 59.6872L103.735 52.0625ZM99.7349 49.875H84.4686L89.2649 45.0787H104.531L99.7349 49.875ZM28.037 103.25H21.7987L26.56 94.8384C28.194 95.6473 29.8716 96.3629 31.5879 96.9767L28.037 103.25ZM73.5763 103.25H67.338L63.7871 96.9767C65.5034 96.3629 67.181 95.6473 68.815 94.8384L73.5763 103.25ZM78.314 82.689C75.4243 85.5787 72.1969 88.0073 68.7227 89.9432C68.6798 89.964 68.6365 89.9837 68.5943 90.0075C68.5678 90.0226 68.5438 90.0399 68.5182 90.0559C65.8532 91.5219 63.0448 92.699 60.1309 93.5683C60.0163 93.5911 59.9029 93.6248 59.7912 93.6668C55.9075 94.7907 51.8427 95.375 47.6875 95.375C43.5323 95.375 39.4675 94.7907 35.5838 93.667C35.4718 93.625 35.3585 93.5913 35.2437 93.5686C32.3299 92.6992 29.5216 91.5222 26.8568 90.0561C26.8312 90.0401 26.8072 90.0228 26.7807 90.0078C26.7385 89.9839 26.6954 89.9642 26.6525 89.9434C23.1783 88.0075 19.9509 85.5789 17.0612 82.689C8.88038 74.5084 4.375 63.6318 4.375 52.0625C4.375 40.4932 8.88037 29.6166 17.061 21.436C25.2416 13.2554 36.1182 8.75 47.6875 8.75C59.2568 8.75 70.1334 13.2554 78.314 21.436C83.6894 26.8113 87.5232 33.4331 89.4917 40.7037H88.359C87.7789 40.7037 87.2224 40.9342 86.8122 41.3444L81.0064 47.1503C80.4206 43.1732 79.1348 39.3061 77.1932 35.7892C76.6093 34.7316 75.2784 34.3479 74.2208 34.9315C73.1631 35.5154 72.7792 36.8462 73.3631 37.9039C75.4397 41.6651 76.5997 45.7544 76.8965 49.8752H67.2514C66.7645 45.4442 64.8064 41.3394 61.6088 38.1417C57.8902 34.4229 52.9463 32.375 47.6875 32.375C42.4287 32.375 37.4848 34.4229 33.7665 38.1413C30.0479 41.86 28 46.8037 28 52.0625C28 57.3213 30.0479 62.2652 33.7663 65.9835C37.4848 69.7021 42.4287 71.75 47.6875 71.75C52.9463 71.75 57.8902 69.7021 61.6085 65.9838C64.8062 62.7861 66.7643 58.6812 67.2512 54.25H76.8869C76.3652 61.0881 73.4797 67.7241 68.4145 72.7895C62.8782 78.3261 55.517 81.375 47.6875 81.375C39.858 81.375 32.4968 78.3261 26.9605 72.7895C21.4239 67.2532 18.375 59.8922 18.375 52.0625C18.375 44.2328 21.4239 36.8718 26.9605 31.3355C36.1441 22.1519 50.4897 20.1171 61.8463 26.3872C62.9038 26.9708 64.2346 26.5871 64.8187 25.5294C65.4025 24.4718 65.0186 23.1411 63.961 22.5571C57.6949 19.0975 50.3167 17.7188 43.1861 18.6756C35.8175 19.6639 29.1368 22.9718 23.8669 28.2419C17.5042 34.6047 14 43.0642 14 52.0625C14 61.0608 17.5042 69.5205 23.8667 75.8831C30.2295 82.2458 38.6892 85.75 47.6875 85.75C56.6858 85.75 65.1455 82.2458 71.5081 75.8833C76.6782 70.7133 79.9582 64.1856 81.0141 56.9828L86.812 62.7808C87.2222 63.191 87.7787 63.4215 88.3588 63.4215H89.4911C87.5225 70.6917 83.6872 77.3159 78.314 82.689ZM54.8319 47.9377C54.2279 46.8913 52.89 46.5329 51.8438 47.1371L46.5938 50.1681C45.9169 50.5588 45.5 51.2809 45.5 52.0625C45.5 52.8441 45.9169 53.5662 46.5938 53.9569L51.8438 56.9879C52.1883 57.1867 52.5643 57.2812 52.9355 57.2812C53.6915 57.2812 54.4268 56.889 54.8319 56.1872C55.1869 55.5726 55.2072 54.8579 54.9533 54.25H62.844C62.3805 57.51 60.8849 60.5203 58.515 62.89C55.6229 65.7823 51.7777 67.375 47.6875 67.375C43.5973 67.375 39.7521 65.7823 36.8598 62.89C33.9677 59.9979 32.375 56.1527 32.375 52.0625C32.375 47.9723 33.9677 44.1271 36.86 41.2348C39.7521 38.3427 43.5973 36.75 47.6875 36.75C51.7777 36.75 55.6229 38.3427 58.5152 41.235C60.8849 43.6048 62.3807 46.615 62.8442 49.875H54.9535C55.2073 49.2669 55.1869 48.5524 54.8319 47.9377ZM89.2649 59.0463L84.4686 54.25H99.7349L104.531 59.0463H89.2649Z" fill="#02A97B"/>
</g>
<defs>
<clipPath id="clip0">
<rect width="112" height="112" fill="white"/>
</clipPath>
</defs>
</svg>
