<svg width="162" height="315" viewBox="0 0 162 315" fill="none" xmlns="http://www.w3.org/2000/svg">
<path d="M6.58078 270.292V254.75L83.6112 297.245L160.641 254.748V270.291L83.6095 314.758L6.58078 270.292Z" fill="url(#paint0_linear)"/>
<path d="M83.6095 299.215L160.641 254.748L83.6118 210.282L6.58078 254.749L83.6095 299.215Z" fill="url(#paint1_linear)"/>
<path opacity="0.5" d="M83.6095 297.934L159.532 254.108L160.641 254.748L83.6095 299.215L6.58078 254.75L7.68991 254.109L83.6095 297.934Z" fill="white"/>
<path d="M83.6095 282.238L131.23 254.748L83.6109 227.259L35.9902 254.749L83.6095 282.238Z" fill="#0F054C"/>
<path opacity="0.5" d="M83.6105 282.239L131.232 254.749L83.6119 227.259L35.9902 254.749L83.6105 282.239Z" fill="url(#paint2_linear)"/>
<path opacity="0.5" d="M83.6113 188.802L35.9896 216.292V254.749L83.6113 227.259V188.802Z" fill="url(#paint3_linear)"/>
<path opacity="0.5" d="M83.6105 227.259L131.232 254.748V216.291L83.6119 188.802L83.6105 227.259Z" fill="url(#paint4_linear)"/>
<path opacity="0.5" d="M83.6105 243.781L131.232 216.291L83.6119 188.802L35.9902 216.292L83.6105 243.781Z" fill="url(#paint5_linear)"/>
<path opacity="0.5" d="M83.6113 243.781V282.238L35.991 254.749V216.292L83.6113 243.781Z" fill="url(#paint6_linear)"/>
<path opacity="0.5" d="M131.232 216.291V254.748L83.6105 282.238V243.781L131.232 216.291Z" fill="url(#paint7_linear)"/>
<path d="M84.414 232.848L27.0996 199.763L84.4123 166.678L141.727 199.763L84.414 232.848Z" fill="#2C5B6F"/>
<path d="M84.4144 223.814L42.75 199.763L84.4132 175.712L126.078 199.763L84.4144 223.814Z" fill="#C7F6FE" fill-opacity="0.992157"/>
<path d="M84.4132 177.341L124.667 200.578L126.078 199.763L84.4132 175.712L42.75 199.762L44.1609 200.577L84.4132 177.341Z" fill="white"/>
<path d="M141.727 199.763V218.517L84.4141 251.601V232.847L141.727 199.763Z" fill="url(#paint8_linear)"/>
<g opacity="0.51">
<path opacity="0.51" d="M30.9824 208.188V214.094L80.5316 242.697V236.791L30.9824 208.188Z" fill="#67CDB1"/>
</g>
<path d="M84.414 231.773L28.0307 199.225L27.0996 199.763L84.414 232.848L141.727 199.764L140.795 199.226L84.414 231.773Z" fill="white"/>
<path d="M133.131 212.905V216.262L93.0117 239.421V236.064L133.131 212.905Z" fill="#236B7A"/>
<path d="M27.0996 199.763V218.516L84.414 251.602V232.848L27.0996 199.763Z" fill="#2C5B6F"/>
<path d="M67.6827 231.852L57.3039 225.86L57.3027 227.097L67.6816 233.089L67.6827 231.852Z" fill="#1AD372"/>
<path d="M55.8092 225.009L52.9973 223.385L52.9961 224.623L55.808 226.246L55.8092 225.009Z" fill="#1AD372"/>
<path d="M42.6355 217.406L36.8821 214.084L36.8809 215.322L42.6343 218.643L42.6355 217.406Z" fill="#1AD372"/>
<path d="M47.8864 220.437L43.7258 218.035L43.7246 219.273L47.8852 221.675L47.8864 220.437Z" fill="#1AD372"/>
<path d="M51.7877 222.69L48.9758 221.066L48.9746 222.304L51.7866 223.927L51.7877 222.69Z" fill="#1AD372"/>
<path d="M84.4723 183.97L82.6523 182.92L84.4723 181.869L86.2922 182.92L84.4723 183.97Z" fill="#1AD372"/>
<path opacity="0.1" d="M88.1129 186.071L86.293 185.021L88.1129 183.97L89.9328 185.021L88.1129 186.071Z" fill="#1AD372"/>
<path opacity="0.4" d="M91.7517 188.173L89.9316 187.122L91.7516 186.072L93.5716 187.122L91.7517 188.173Z" fill="#1AD372"/>
<path d="M95.3922 190.273L93.5723 189.223L95.3921 188.172L97.212 189.223L95.3922 190.273Z" fill="#1AD372"/>
<path opacity="0.4" d="M99.031 192.375L97.2109 191.325L99.0309 190.274L100.851 191.325L99.031 192.375Z" fill="#1AD372"/>
<path d="M102.672 194.476L100.852 193.426L102.671 192.375L104.491 193.426L102.672 194.476Z" fill="#1AD372"/>
<path d="M106.312 196.577L104.492 195.527L106.312 194.476L108.132 195.527L106.312 196.577Z" fill="#1AD372"/>
<path d="M109.951 198.679L108.131 197.628L109.951 196.578L111.771 197.628L109.951 198.679Z" fill="#1AD372"/>
<path opacity="0.1" d="M113.591 200.78L111.771 199.729L113.591 198.679L115.411 199.729L113.591 200.78Z" fill="#1AD372"/>
<path d="M80.818 186.08L78.998 185.029L80.818 183.979L82.6379 185.029L80.818 186.08Z" fill="#1AD372"/>
<path d="M84.4587 188.181L82.6387 187.13L84.4586 186.08L86.2785 187.13L84.4587 188.181Z" fill="#1AD372"/>
<path d="M88.0974 190.282L86.2773 189.232L88.0973 188.181L89.9172 189.232L88.0974 190.282Z" fill="#1AD372"/>
<path d="M91.738 192.383L89.918 191.332L91.7378 190.282L93.5579 191.332L91.738 192.383Z" fill="#1AD372"/>
<path d="M95.3786 194.484L93.5586 193.434L95.3785 192.383L97.1986 193.434L95.3786 194.484Z" fill="#1AD372"/>
<path d="M99.0172 196.586L97.1973 195.535L99.0171 194.484L100.837 195.535L99.0172 196.586Z" fill="#1AD372"/>
<path d="M102.658 198.686L100.838 197.636L102.658 196.585L104.478 197.636L102.658 198.686Z" fill="#1AD372"/>
<path d="M106.296 200.788L104.477 199.738L106.296 198.687L108.116 199.738L106.296 200.788Z" fill="#1AD372"/>
<path d="M109.937 202.889L108.117 201.838L109.937 200.788L111.757 201.838L109.937 202.889Z" fill="#1AD372"/>
<path d="M77.1637 188.19L75.3438 187.139L77.1637 186.088L78.9836 187.139L77.1637 188.19Z" fill="#1AD372"/>
<path d="M80.8043 190.291L78.9844 189.24L80.8043 188.189L82.6243 189.24L80.8043 190.291Z" fill="#1AD372"/>
<path d="M84.443 192.392L82.623 191.342L84.443 190.291L86.2629 191.342L84.443 192.392Z" fill="#1AD372"/>
<path opacity="0.1" d="M88.0836 194.493L86.2637 193.442L88.0835 192.392L89.9035 193.442L88.0836 194.493Z" fill="#1AD372"/>
<path opacity="0.4" d="M91.7243 196.594L89.9043 195.544L91.7241 194.493L93.5441 195.544L91.7243 196.594Z" fill="#1AD372"/>
<path opacity="0.4" d="M95.363 198.695L93.543 197.645L95.3629 196.594L97.1828 197.645L95.363 198.695Z" fill="#1AD372"/>
<path d="M99.0034 200.796L97.1836 199.746L99.0034 198.695L100.823 199.746L99.0034 200.796Z" fill="#1AD372"/>
<path d="M102.644 202.898L100.824 201.847L102.644 200.797L104.464 201.847L102.644 202.898Z" fill="#1AD372"/>
<path d="M106.283 204.999L104.463 203.948L106.283 202.898L108.103 203.948L106.283 204.999Z" fill="#1AD372"/>
<path opacity="0.4" d="M73.5094 190.299L71.6895 189.249L73.5093 188.198L75.3293 189.249L73.5094 190.299Z" fill="#1AD372"/>
<path opacity="0.4" d="M77.1501 192.4L75.3301 191.35L77.15 190.299L78.97 191.35L77.1501 192.4Z" fill="#1AD372"/>
<path opacity="0.1" d="M80.7887 194.502L78.9688 193.451L80.7887 192.401L82.6086 193.451L80.7887 194.502Z" fill="#1AD372"/>
<path d="M84.4293 196.603L82.6094 195.552L84.4292 194.501L86.2492 195.552L84.4293 196.603Z" fill="#1AD372"/>
<path d="M88.0699 198.704L86.25 197.653L88.0698 196.603L89.8898 197.653L88.0699 198.704Z" fill="#1AD372"/>
<path d="M91.7085 200.805L89.8887 199.755L91.7084 198.704L93.5284 199.755L91.7085 200.805Z" fill="#1AD372"/>
<path opacity="0.4" d="M95.3492 202.906L93.5293 201.856L95.3492 200.805L97.1691 201.856L95.3492 202.906Z" fill="#1AD372"/>
<path d="M98.9879 205.008L97.168 203.957L98.9879 202.907L100.808 203.957L98.9879 205.008Z" fill="#1AD372"/>
<path d="M102.629 207.109L100.809 206.058L102.629 205.008L104.448 206.058L102.629 207.109Z" fill="#1AD372"/>
<path d="M69.8551 192.409L68.0352 191.359L69.8551 190.308L71.675 191.359L69.8551 192.409Z" fill="#1AD372"/>
<path d="M73.4957 194.511L71.6758 193.46L73.4957 192.41L75.3156 193.46L73.4957 194.511Z" fill="#1AD372"/>
<path d="M77.1344 196.612L75.3145 195.561L77.1343 194.511L78.9543 195.561L77.1344 196.612Z" fill="#1AD372"/>
<path d="M80.775 198.713L78.9551 197.662L80.7749 196.612L82.5949 197.662L80.775 198.713Z" fill="#1AD372"/>
<path d="M84.4156 200.814L82.5957 199.763L84.4155 198.713L86.2355 199.763L84.4156 200.814Z" fill="#1AD372"/>
<path d="M88.0543 202.915L86.2344 201.864L88.0543 200.814L89.8741 201.865L88.0543 202.915Z" fill="#1AD372"/>
<path d="M91.6949 205.016L89.875 203.966L91.6949 202.915L93.5149 203.966L91.6949 205.016Z" fill="#1AD372"/>
<path d="M95.3336 207.118L93.5137 206.067L95.3336 205.017L97.1534 206.067L95.3336 207.118Z" fill="#1AD372"/>
<path d="M98.9743 209.218L97.1543 208.168L98.9743 207.117L100.794 208.168L98.9743 209.218Z" fill="#1AD372"/>
<path d="M66.1989 194.519L64.3789 193.468L66.1988 192.417L68.0189 193.468L66.1989 194.519Z" fill="#1AD372"/>
<path d="M69.8394 196.62L68.0195 195.569L69.8394 194.519L71.6593 195.569L69.8394 196.62Z" fill="#1AD372"/>
<path opacity="0.4" d="M73.4781 198.721L71.6582 197.671L73.478 196.62L75.2979 197.671L73.4781 198.721Z" fill="#1AD372"/>
<path d="M77.1187 200.822L75.2988 199.772L77.1187 198.721L78.9385 199.772L77.1187 200.822Z" fill="#1AD372"/>
<path opacity="0.1" d="M80.7593 202.923L78.9395 201.873L80.7593 200.822L82.5792 201.873L80.7593 202.923Z" fill="#1AD372"/>
<path d="M84.398 205.025L82.5781 203.974L84.398 202.923L86.2178 203.974L84.398 205.025Z" fill="#1AD372"/>
<path d="M88.0387 207.125L86.2188 206.075L88.0387 205.024L89.8586 206.075L88.0387 207.125Z" fill="#1AD372"/>
<path d="M91.6793 209.227L89.8594 208.177L91.6792 207.126L93.4991 208.177L91.6793 209.227Z" fill="#1AD372"/>
<path d="M95.3179 211.328L93.498 210.278L95.3179 209.227L97.1377 210.278L95.3179 211.328Z" fill="#1AD372"/>
<path d="M62.5445 196.628L60.7246 195.578L62.5445 194.527L64.3645 195.578L62.5445 196.628Z" fill="#1AD372"/>
<path d="M66.1852 198.73L64.3652 197.679L66.1851 196.628L68.0051 197.679L66.1852 198.73Z" fill="#1AD372"/>
<path opacity="0.4" d="M69.8238 200.831L68.0039 199.78L69.8238 198.73L71.6437 199.78L69.8238 200.831Z" fill="#1AD372"/>
<path d="M73.4644 202.932L71.6445 201.882L73.4644 200.831L75.2843 201.882L73.4644 202.932Z" fill="#1AD372"/>
<path d="M77.105 205.033L75.2852 203.983L77.105 202.932L78.9249 203.983L77.105 205.033Z" fill="#1AD372"/>
<path opacity="0.1" d="M80.7438 207.134L78.9238 206.084L80.7437 205.033L82.5636 206.084L80.7438 207.134Z" fill="#1AD372"/>
<path opacity="0.4" d="M84.3845 209.235L82.5645 208.185L84.3844 207.134L86.2043 208.185L84.3845 209.235Z" fill="#1AD372"/>
<path d="M88.0231 211.337L86.2031 210.286L88.0231 209.236L89.8431 210.286L88.0231 211.337Z" fill="#1AD372"/>
<path opacity="0.1" d="M91.6637 213.438L89.8438 212.387L91.6636 211.336L93.4836 212.387L91.6637 213.438Z" fill="#1AD372"/>
<path d="M58.8902 198.738L57.0703 197.687L58.8902 196.637L60.7101 197.687L58.8902 198.738Z" fill="#1AD372"/>
<path opacity="0.4" d="M62.5309 200.839L60.7109 199.788L62.5309 198.738L64.351 199.788L62.5309 200.839Z" fill="#1AD372"/>
<path d="M66.1695 202.94L64.3496 201.89L66.1695 200.839L67.9894 201.89L66.1695 202.94Z" fill="#1AD372"/>
<path d="M69.8102 205.042L67.9902 203.991L69.8102 202.94L71.6301 203.991L69.8102 205.042Z" fill="#1AD372"/>
<path d="M73.4509 207.143L71.6309 206.092L73.4507 205.042L75.2707 206.092L73.4509 207.143Z" fill="#1AD372"/>
<path d="M77.0895 209.244L75.2695 208.193L77.0894 207.143L78.9093 208.193L77.0895 209.244Z" fill="#1AD372"/>
<path d="M80.7302 211.345L78.9102 210.294L80.7301 209.244L82.5501 210.294L80.7302 211.345Z" fill="#1AD372"/>
<path opacity="0.4" d="M84.3688 213.446L82.5488 212.396L84.3687 211.345L86.1887 212.396L84.3688 213.446Z" fill="#1AD372"/>
<path d="M88.0094 215.547L86.1895 214.497L88.0094 213.446L89.8294 214.497L88.0094 215.547Z" fill="#1AD372"/>
<path d="M55.2359 200.848L53.416 199.797L55.2359 198.747L57.0559 199.797L55.2359 200.848Z" fill="#1AD372"/>
<path opacity="0.1" d="M58.8765 202.949L57.0566 201.898L58.8765 200.848L60.6964 201.898L58.8765 202.949Z" fill="#1AD372"/>
<path d="M62.5153 205.05L60.6953 203.999L62.5152 202.949L64.3351 203.999L62.5153 205.05Z" fill="#1AD372"/>
<path d="M66.1559 207.151L64.3359 206.101L66.1558 205.05L67.9757 206.101L66.1559 207.151Z" fill="#1AD372"/>
<path d="M69.7966 209.252L67.9766 208.202L69.7965 207.151L71.6165 208.202L69.7966 209.252Z" fill="#1AD372"/>
<path d="M73.4352 211.354L71.6152 210.303L73.4352 209.252L75.2552 210.303L73.4352 211.354Z" fill="#1AD372"/>
<path opacity="0.4" d="M77.0759 213.455L75.2559 212.404L77.0758 211.354L78.8957 212.404L77.0759 213.455Z" fill="#1AD372"/>
<path d="M80.7146 215.556L78.8945 214.505L80.7145 213.455L82.5345 214.505L80.7146 215.556Z" fill="#1AD372"/>
<path d="M84.3552 217.657L82.5352 216.606L84.3551 215.556L86.175 216.606L84.3552 217.657Z" fill="#1AD372"/>
<g filter="url(#filter0_f)">
<path d="M147.756 149.038L143.33 152.231L97.9475 119.498C95.593 117.799 92.0322 117.615 89.9928 119.086L44.0378 152.232L40.1822 149.451C37.8277 147.754 37.5726 145.184 39.612 143.713L89.9928 107.375C92.0322 105.905 95.593 106.089 97.9475 107.787L147.185 143.3C149.539 144.998 149.796 147.568 147.756 149.038Z" fill="url(#paint9_linear)"/>
</g>
<g opacity="0.5">
<g opacity="0.5">
<path opacity="0.5" d="M99.6957 74.5569L110.402 67.5634V61.9688L99.6957 68.9622V74.5569Z" fill="#42E8E0"/>
<path opacity="0.5" d="M99.6957 87.052L110.402 80.0585V74.4639L99.6957 81.4573V87.052Z" fill="#42E8E0"/>
<path opacity="0.5" d="M99.6957 99.5461L110.402 92.5527V86.958L99.6957 93.9515V99.5461Z" fill="#42E8E0"/>
<path opacity="0.5" d="M99.6957 112.041L110.402 105.047V99.4526L99.6957 106.446V112.041Z" fill="#42E8E0"/>
<path opacity="0.5" d="M99.6957 124.536L110.402 117.542V111.948L99.6957 118.941V124.536Z" fill="#42E8E0"/>
<path opacity="0.848" d="M115.306 83.9025L120.704 80.3769C122.221 79.3854 123.156 77.5535 123.156 75.5705V57.8919C123.156 56.232 121.569 55.1952 120.299 56.0251L114.902 59.5496C113.385 60.5411 112.45 62.373 112.45 64.356V82.0357C112.45 83.6945 114.037 84.7314 115.306 83.9025Z" fill="#85F0EB" stroke="white" stroke-width="0.665814"/>
<path opacity="0.713" d="M128.062 91.169L133.459 87.6445C134.977 86.653 135.912 84.8211 135.912 82.8381V65.1584C135.912 63.4996 134.325 62.4627 133.054 63.2927L127.658 66.8172C126.14 67.8087 125.205 69.6406 125.205 71.6236V89.3033C125.205 90.9621 126.793 91.9989 128.062 91.169Z" fill="#C1F7F5" stroke="white" stroke-width="0.665814"/>
<path opacity="0.736" d="M140.817 100.676L146.213 97.1518C147.731 96.1603 148.666 94.3284 148.666 92.3454V74.6657C148.666 73.007 147.078 71.9701 145.808 72.8L140.412 76.3245C138.894 77.316 137.959 79.1479 137.959 81.1309V98.8096C137.959 100.469 139.547 101.506 140.817 100.676Z" fill="#C3F8F5" stroke="white" stroke-width="0.665814"/>
<path opacity="0.713" d="M153.571 107.544L158.967 104.018C160.485 103.027 161.42 101.195 161.42 99.2116V81.533C161.42 79.8731 159.832 78.8363 158.562 79.6662L153.166 83.1907C151.648 84.1822 150.713 86.0142 150.713 87.9971V105.677C150.713 107.336 152.301 108.372 153.571 107.544Z" fill="#42E8E0" stroke="white" stroke-width="0.665814"/>
<path opacity="0.5" d="M99.6957 61.366L110.402 54.3724V48.7778L99.6957 55.7712V61.366Z" fill="#42E8E0"/>
<path opacity="0.5" d="M99.6957 49.2737L110.402 42.2802V36.6855L99.6957 43.679V49.2737Z" fill="#42E8E0"/>
<path opacity="0.5" d="M99.6957 37.1819L110.402 30.1884V24.5938L99.6957 31.5872V37.1819Z" fill="#7CEFEA" fill-opacity="0.681818"/>
<path opacity="0.5" d="M99.6957 23.991L110.402 16.9974V11.4028L99.6957 18.3962V23.991Z" fill="#85F0EB" fill-opacity="0.69697"/>
<path opacity="0.5" d="M99.4494 12.8865L110.156 5.89293V0.29834L99.4494 7.29174V12.8865Z" fill="#8CF1EC" fill-opacity="0.464646"/>
<path opacity="0.713" d="M41.5094 136.55L62.2075 124.495C65.3359 122.452 67.2637 118.675 67.2637 114.587V78.1431C67.2637 74.7213 63.991 72.5838 61.3725 74.2947L40.6744 86.3466C37.546 88.3905 35.6182 92.1671 35.6182 96.2549V132.701C35.6182 136.121 38.8909 138.258 41.5094 136.55Z" fill="#42E8E0" stroke="white" stroke-width="2.03273"/>
<path opacity="0.713" d="M63.3232 66.873L71.5056 61.5272C73.8066 60.0238 75.2246 57.246 75.2246 54.2393V27.4333C75.2246 24.9165 72.8174 23.3443 70.8914 24.6027L62.709 29.9469C60.408 31.4503 58.99 34.2281 58.99 37.2348V64.0423C58.99 66.5576 61.3972 68.1298 63.3232 66.873Z" fill="#42E8E0" stroke="white" stroke-width="1.49515"/>
</g>
<g opacity="0.5">
<path opacity="0.5" d="M81.8842 86.1916L85.4727 83.8475V78.2529L81.8842 80.5969V86.1916Z" fill="#42E8E0"/>
<path opacity="0.5" d="M81.8842 98.6862L85.4727 96.3421V90.7476L81.8842 93.0915V98.6862Z" fill="#42E8E0"/>
<path opacity="0.5" d="M81.8842 111.181L85.4727 108.837V103.242L81.8842 105.586V111.181Z" fill="#42E8E0"/>
<path opacity="0.5" d="M81.8842 123.675L85.4727 121.331V115.737L81.8842 118.081V123.675Z" fill="#42E8E0"/>
<path opacity="0.5" d="M81.8842 136.17L85.4727 133.826V128.231L81.8842 130.575V136.17Z" fill="#42E8E0"/>
<path opacity="0.5" d="M81.8842 73.6964L85.4727 71.3524L85.2273 64.0283L81.6388 66.3724L81.8842 73.6964Z" fill="#42E8E0"/>
<path opacity="0.5" d="M81.8842 48.4136L85.4727 46.0697L85.2273 38.7456L81.6388 41.0897L81.8842 48.4136Z" fill="#42E8E0"/>
</g>
<g opacity="0.5">
<path opacity="0.5" d="M94.6113 113.869L90.5551 116.519V130.505L94.6113 127.856V113.869Z" fill="#42E8E0"/>
<path opacity="0.5" d="M94.6113 101.375L90.5551 104.025V109.619L94.6113 106.97V101.375Z" fill="#42E8E0"/>
<path opacity="0.5" d="M94.6113 88.8804L90.5551 91.5299V97.1245L94.6113 94.4751V88.8804Z" fill="#42E8E0"/>
<path opacity="0.5" d="M94.6113 59.4438L90.5551 62.0934V84.6293L94.6113 81.9799V59.4438Z" fill="#91F2ED"/>
<path opacity="0.5" d="M94.6113 47.1079L90.5551 49.7574V55.352L94.6113 52.7026V47.1079Z" fill="#42E8E0"/>
<path opacity="0.5" d="M94.6113 18.771L90.5551 21.4205V43.9565L94.6113 41.307V18.771Z" fill="#42E8E0" fill-opacity="0.590909"/>
</g>
</g>
<g opacity="0.625" filter="url(#filter1_f)">
<path d="M106.823 201.893L137.656 146.537L122.562 147.852L99.1889 200.794L106.823 201.893Z" fill="url(#paint10_linear)"/>
</g>
<g opacity="0.625" filter="url(#filter2_f)">
<path d="M95.5444 199.94L118.643 144.193L107.093 146.289L93.0663 199.622L95.5444 199.94Z" fill="url(#paint11_linear)"/>
</g>
<g opacity="0.625" filter="url(#filter3_f)">
<path d="M89.0931 195.253L50.2031 123.103L61.7528 125.198L91.5712 194.935L89.0931 195.253Z" fill="url(#paint12_linear)"/>
</g>
<g opacity="0.625" filter="url(#filter4_f)">
<path d="M92.6367 198.768L81.4629 152.005L93.0126 154.1L95.1148 198.451L92.6367 198.768Z" fill="url(#paint13_linear)"/>
</g>
<g opacity="0.625" filter="url(#filter5_f)">
<path d="M80.8269 202.815L8.93945 125.695L19.1836 127.146L82.8785 203.165L80.8269 202.815Z" fill="url(#paint14_linear)"/>
</g>
<g opacity="0.625" filter="url(#filter6_f)">
<path d="M83.6903 202.443L36.0215 138.493L47.6996 138.388L86.0976 201.662L83.6903 202.443Z" fill="url(#paint15_linear)"/>
</g>
<g opacity="0.625" filter="url(#filter7_f)">
<path d="M84.4427 190.291L29.4648 100.335L39.2106 103.808L86.3827 191.045L84.4427 190.291Z" fill="url(#paint16_linear)"/>
</g>
<defs>
<filter id="filter0_f" x="36.1087" y="104.257" width="115.149" height="50.1009" filterUnits="userSpaceOnUse" color-interpolation-filters="sRGB">
<feFlood flood-opacity="0" result="BackgroundImageFix"/>
<feBlend mode="normal" in="SourceGraphic" in2="BackgroundImageFix" result="shape"/>
<feGaussianBlur stdDeviation="1.06282" result="effect1_foregroundBlur"/>
</filter>
<filter id="filter1_f" x="93.4439" y="140.792" width="49.9585" height="66.8468" filterUnits="userSpaceOnUse" color-interpolation-filters="sRGB">
<feFlood flood-opacity="0" result="BackgroundImageFix"/>
<feBlend mode="normal" in="SourceGraphic" in2="BackgroundImageFix" result="shape"/>
<feGaussianBlur stdDeviation="2.87278" result="effect1_foregroundBlur"/>
</filter>
<filter id="filter2_f" x="87.3209" y="138.448" width="37.0674" height="67.2374" filterUnits="userSpaceOnUse" color-interpolation-filters="sRGB">
<feFlood flood-opacity="0" result="BackgroundImageFix"/>
<feBlend mode="normal" in="SourceGraphic" in2="BackgroundImageFix" result="shape"/>
<feGaussianBlur stdDeviation="2.87278" result="effect1_foregroundBlur"/>
</filter>
<filter id="filter3_f" x="44.4576" y="117.357" width="52.8591" height="83.6413" filterUnits="userSpaceOnUse" color-interpolation-filters="sRGB">
<feFlood flood-opacity="0" result="BackgroundImageFix"/>
<feBlend mode="normal" in="SourceGraphic" in2="BackgroundImageFix" result="shape"/>
<feGaussianBlur stdDeviation="2.87278" result="effect1_foregroundBlur"/>
</filter>
<filter id="filter4_f" x="75.7173" y="146.259" width="25.1431" height="58.2543" filterUnits="userSpaceOnUse" color-interpolation-filters="sRGB">
<feFlood flood-opacity="0" result="BackgroundImageFix"/>
<feBlend mode="normal" in="SourceGraphic" in2="BackgroundImageFix" result="shape"/>
<feGaussianBlur stdDeviation="2.87278" result="effect1_foregroundBlur"/>
</filter>
<filter id="filter5_f" x="0.962419" y="117.718" width="89.8931" height="93.424" filterUnits="userSpaceOnUse" color-interpolation-filters="sRGB">
<feFlood flood-opacity="0" result="BackgroundImageFix"/>
<feBlend mode="normal" in="SourceGraphic" in2="BackgroundImageFix" result="shape"/>
<feGaussianBlur stdDeviation="3.98852" result="effect1_foregroundBlur"/>
</filter>
<filter id="filter6_f" x="30.2709" y="132.637" width="61.5773" height="75.5562" filterUnits="userSpaceOnUse" color-interpolation-filters="sRGB">
<feFlood flood-opacity="0" result="BackgroundImageFix"/>
<feBlend mode="normal" in="SourceGraphic" in2="BackgroundImageFix" result="shape"/>
<feGaussianBlur stdDeviation="2.87531" result="effect1_foregroundBlur"/>
</filter>
<filter id="filter7_f" x="21.4878" y="92.3579" width="72.8719" height="106.664" filterUnits="userSpaceOnUse" color-interpolation-filters="sRGB">
<feFlood flood-opacity="0" result="BackgroundImageFix"/>
<feBlend mode="normal" in="SourceGraphic" in2="BackgroundImageFix" result="shape"/>
<feGaussianBlur stdDeviation="3.98852" result="effect1_foregroundBlur"/>
</filter>
<linearGradient id="paint0_linear" x1="160.641" y1="284.753" x2="50.862" y2="284.753" gradientUnits="userSpaceOnUse">
<stop offset="0.247312" stop-color="#53BCA2"/>
<stop offset="0.436282" stop-color="#0B8869"/>
<stop offset="0.824479" stop-color="#98D7C7"/>
<stop offset="1" stop-color="#0B8869"/>
</linearGradient>
<linearGradient id="paint1_linear" x1="160.641" y1="254.748" x2="6.58077" y2="254.748" gradientUnits="userSpaceOnUse">
<stop stop-color="#E9FBF7"/>
<stop offset="0.37736" stop-color="#7BCCB8"/>
<stop offset="0.639919" stop-color="#72C8B3"/>
<stop offset="1" stop-color="#0B8869"/>
</linearGradient>
<linearGradient id="paint2_linear" x1="131.232" y1="254.749" x2="35.9902" y2="254.749" gradientUnits="userSpaceOnUse">
<stop stop-color="#42E8E0"/>
<stop offset="0.150735" stop-color="#42E3DF"/>
<stop offset="0.328491" stop-color="#44D4DE"/>
<stop offset="0.519898" stop-color="#48BDDD"/>
<stop offset="0.720931" stop-color="#4D9BDA"/>
<stop offset="0.927423" stop-color="#5471D8"/>
<stop offset="1" stop-color="#5761D7"/>
</linearGradient>
<linearGradient id="paint3_linear" x1="83.6114" y1="221.775" x2="35.9896" y2="221.775" gradientUnits="userSpaceOnUse">
<stop stop-color="#42E8E0"/>
<stop offset="0.150735" stop-color="#42E3DF"/>
<stop offset="0.328491" stop-color="#44D4DE"/>
<stop offset="0.519898" stop-color="#48BDDD"/>
<stop offset="0.720931" stop-color="#4D9BDA"/>
<stop offset="0.927423" stop-color="#5471D8"/>
<stop offset="1" stop-color="#5761D7"/>
</linearGradient>
<linearGradient id="paint4_linear" x1="131.232" y1="221.775" x2="83.6105" y2="221.775" gradientUnits="userSpaceOnUse">
<stop stop-color="#42E8E0"/>
<stop offset="0.150735" stop-color="#42E3DF"/>
<stop offset="0.328491" stop-color="#44D4DE"/>
<stop offset="0.519898" stop-color="#48BDDD"/>
<stop offset="0.720931" stop-color="#4D9BDA"/>
<stop offset="0.927423" stop-color="#5471D8"/>
<stop offset="1" stop-color="#5761D7"/>
</linearGradient>
<linearGradient id="paint5_linear" x1="131.232" y1="216.291" x2="35.9902" y2="216.291" gradientUnits="userSpaceOnUse">
<stop stop-color="#42E8E0"/>
<stop offset="0.150735" stop-color="#42E3DF"/>
<stop offset="0.328491" stop-color="#44D4DE"/>
<stop offset="0.519898" stop-color="#48BDDD"/>
<stop offset="0.720931" stop-color="#4D9BDA"/>
<stop offset="0.927423" stop-color="#5471D8"/>
<stop offset="1" stop-color="#5761D7"/>
</linearGradient>
<linearGradient id="paint6_linear" x1="83.6113" y1="249.265" x2="35.991" y2="249.265" gradientUnits="userSpaceOnUse">
<stop stop-color="#42E8E0"/>
<stop offset="0.150735" stop-color="#42E3DF"/>
<stop offset="0.328491" stop-color="#44D4DE"/>
<stop offset="0.519898" stop-color="#48BDDD"/>
<stop offset="0.720931" stop-color="#4D9BDA"/>
<stop offset="0.927423" stop-color="#5471D8"/>
<stop offset="1" stop-color="#5761D7"/>
</linearGradient>
<linearGradient id="paint7_linear" x1="131.232" y1="249.265" x2="83.6105" y2="249.265" gradientUnits="userSpaceOnUse">
<stop stop-color="#42E8E0"/>
<stop offset="0.150735" stop-color="#42E3DF"/>
<stop offset="0.328491" stop-color="#44D4DE"/>
<stop offset="0.519898" stop-color="#48BDDD"/>
<stop offset="0.720931" stop-color="#4D9BDA"/>
<stop offset="0.927423" stop-color="#5471D8"/>
<stop offset="1" stop-color="#5761D7"/>
</linearGradient>
<linearGradient id="paint8_linear" x1="140.795" y1="199.226" x2="90.1912" y2="256.689" gradientUnits="userSpaceOnUse">
<stop offset="0.40017" stop-color="#E5E7F4"/>
<stop offset="0.810563" stop-color="#F3F4FA"/>
</linearGradient>
<linearGradient id="paint9_linear" x1="93.9893" y1="152.799" x2="93.4325" y2="107.405" gradientUnits="userSpaceOnUse">
<stop stop-color="#8EF2EB"/>
<stop offset="1" stop-color="#9CF3EF" stop-opacity="0"/>
</linearGradient>
<linearGradient id="paint10_linear" x1="124.335" y1="148.411" x2="100.284" y2="205.988" gradientUnits="userSpaceOnUse">
<stop stop-color="#92DEDC"/>
<stop offset="1" stop-color="#90EBE6"/>
</linearGradient>
<linearGradient id="paint11_linear" x1="113.056" y1="146.458" x2="89.0048" y2="204.035" gradientUnits="userSpaceOnUse">
<stop stop-color="#90EDE7"/>
<stop offset="1" stop-color="#90EDE7"/>
</linearGradient>
<linearGradient id="paint12_linear" x1="61.2686" y1="123.024" x2="94.417" y2="199.917" gradientUnits="userSpaceOnUse">
<stop stop-color="#92E4E0"/>
<stop offset="1" stop-color="#90EDE7"/>
</linearGradient>
<linearGradient id="paint13_linear" x1="82.8599" y1="144.896" x2="106.911" y2="202.473" gradientUnits="userSpaceOnUse">
<stop stop-color="#91ECE7"/>
<stop offset="1" stop-color="#91EAE5"/>
</linearGradient>
<linearGradient id="paint14_linear" x1="36.3907" y1="142.215" x2="55.9079" y2="212.35" gradientUnits="userSpaceOnUse">
<stop stop-color="#67CDB1"/>
<stop offset="1" stop-color="#13382D"/>
</linearGradient>
<linearGradient id="paint15_linear" x1="46.9424" y1="136.331" x2="91.8556" y2="204.528" gradientUnits="userSpaceOnUse">
<stop stop-color="#92E0DD"/>
<stop offset="1" stop-color="#A7F1EB"/>
</linearGradient>
<linearGradient id="paint16_linear" x1="53.0496" y1="122.018" x2="58.1228" y2="194.641" gradientUnits="userSpaceOnUse">
<stop stop-color="#67CDB1"/>
<stop offset="1" stop-color="#13382D"/>
</linearGradient>
</defs>
</svg>
