<svg width="32" height="32" viewBox="0 0 32 32" fill="none" xmlns="http://www.w3.org/2000/svg">
<path opacity="0.1" d="M16 32C24.8366 32 32 24.8366 32 16C32 7.16344 24.8366 0 16 0C7.16344 0 0 7.16344 0 16C0 24.8366 7.16344 32 16 32Z" fill="white"/>
<path d="M15.9973 7.87747C12.6689 7.87747 9.50826 7.58138 8.30101 10.6797C7.80235 11.9594 7.87476 13.6213 7.87476 16.001C7.87476 18.0891 7.80785 20.0517 8.30101 21.3213C9.50551 24.4215 12.6918 24.1245 15.9955 24.1245C19.1828 24.1245 22.469 24.4563 23.6909 21.3213C24.1905 20.0288 24.1172 18.3916 24.1172 16.001C24.1172 12.8275 24.2923 10.7787 22.7532 9.24055C21.1948 7.68222 19.0874 7.87747 15.9937 7.87747H15.9973ZM15.2695 9.34139C22.2123 9.33039 23.096 8.55855 22.6083 19.2808C22.4351 23.0731 19.5476 22.6569 15.9983 22.6569C9.52659 22.6569 9.34051 22.4717 9.34051 15.9973C9.34051 9.44772 9.85385 9.34505 15.2695 9.33955V9.34139ZM20.3332 10.6898C19.7951 10.6898 19.3588 11.1261 19.3588 11.6642C19.3588 12.2023 19.7951 12.6386 20.3332 12.6386C20.8713 12.6386 21.3076 12.2023 21.3076 11.6642C21.3076 11.1261 20.8713 10.6898 20.3332 10.6898ZM15.9973 11.8292C13.6938 11.8292 11.8265 13.6974 11.8265 16.001C11.8265 18.3046 13.6938 20.1718 15.9973 20.1718C18.3009 20.1718 20.1673 18.3046 20.1673 16.001C20.1673 13.6974 18.3009 11.8292 15.9973 11.8292ZM15.9973 13.2931C19.5769 13.2931 19.5815 18.7088 15.9973 18.7088C12.4187 18.7088 12.4132 13.2931 15.9973 13.2931Z" fill="white"/>
</svg>
