<svg width="89" height="32" viewBox="0 0 89 32" fill="none" xmlns="http://www.w3.org/2000/svg">
<path fill-rule="evenodd" clip-rule="evenodd" d="M6.26057 0L0 5.77778V26.2222L6.26057 32H23.03L29.2905 26.2222V5.77778L23.03 0H6.26057ZM6.26057 8L9.16726 5.33333H20.1233L23.03 8V24L20.1233 26.6667H9.16726L6.26057 24V8Z" fill="white"/>
<path d="M40.9138 13.7778L34.6532 19.5556V31.5556H61.4842V26.2222H40.9138V21.7778L43.8205 19.1111H55.8944L62.155 13.3333V5.11111L57.0124 0.444444H35.7712V5.77778H54.1057L55.8944 7.33333V11.1111L52.9878 13.7778H40.9138Z" fill="white"/>
<path d="M74.6901 18.6667H65.7464V13.3333H74.6901V4.44445H80.0563V13.3333H89V18.6667H80.0563V27.5556H74.6901V18.6667Z" fill="white"/>
</svg>
