<svg width="120" height="43" viewBox="0 0 120 43" fill="none" xmlns="http://www.w3.org/2000/svg">
<path fill-rule="evenodd" clip-rule="evenodd" d="M8.44122 0L0 7.76389V35.2361L8.44122 43H31.0516L39.4928 35.2361V7.76389L31.0516 0H8.44122ZM8.44122 10.75L12.3604 7.16667H27.1325L31.0516 10.75V32.25L27.1325 35.8333H12.3604L8.44122 32.25V10.75Z" fill="white"/>
<path d="M55.1647 18.5139L46.7235 26.2778V42.4028H82.9001V35.2361H55.1647V29.2639L59.0838 25.6806H75.3633L83.8045 17.9167V6.86806L76.8707 0.597222H48.2308V7.76389H72.9515L75.3633 9.85417V14.9306L71.4442 18.5139H55.1647Z" fill="white"/>
<path d="M100.706 25.0833H88.6469V17.9167H100.706V5.97222H107.941V17.9167H120V25.0833H107.941V37.0278H100.706V25.0833Z" fill="white"/>
</svg>
