<svg width="112" height="112" viewBox="0 0 112 112" fill="none" xmlns="http://www.w3.org/2000/svg">
<path d="M89.1897 40.0433C90.1196 40.0433 90.8735 39.2902 90.8735 38.3595V33.3081C90.8735 32.3774 90.1196 31.6243 89.1897 31.6243C88.2598 31.6243 87.5059 32.3774 87.5059 33.3081V38.3595C87.5059 39.2902 88.2598 40.0433 89.1897 40.0433Z" fill="#02A97B"/>
<path d="M89.1897 43.4109C88.2598 43.4109 87.5059 44.164 87.5059 45.0947V50.1461C87.5059 51.0769 88.2598 51.8299 89.1897 51.8299C90.1196 51.8299 90.8735 51.0769 90.8735 50.1461V45.0947C90.8735 44.164 90.1196 43.4109 89.1897 43.4109Z" fill="#02A97B"/>
<path d="M80.7756 43.4111H85.827C86.7569 43.4111 87.5109 42.658 87.5109 41.7273C87.5109 40.7965 86.7569 40.0435 85.827 40.0435H80.7756C79.8457 40.0435 79.0918 40.7965 79.0918 41.7273C79.0918 42.658 79.8457 43.4111 80.7756 43.4111Z" fill="#02A97B"/>
<path d="M92.5549 43.4111H97.6063C98.5362 43.4111 99.2902 42.658 99.2902 41.7273C99.2902 40.7965 98.5362 40.0435 97.6063 40.0435H92.5549C91.625 40.0435 90.8711 40.7965 90.8711 41.7273C90.8711 42.658 91.625 43.4111 92.5549 43.4111Z" fill="#02A97B"/>
<path d="M42.0395 75.4043H25.2014C24.2715 75.4043 23.5176 76.1574 23.5176 77.0881V98.9777C23.5176 99.9084 24.2715 100.661 25.2014 100.661H42.0395C42.9694 100.661 43.7233 99.9084 43.7233 98.9777V77.0881C43.7233 76.1574 42.9694 75.4043 42.0395 75.4043ZM26.8852 78.7719H31.9366V97.2938H26.8852V78.7719ZM40.3557 97.2938H35.3043V78.7719H40.3557V97.2938Z" fill="#02A97B"/>
<path d="M106.029 105.712H95.9258V65.3009C95.9258 64.3702 95.1719 63.6171 94.242 63.6171H88.1171L73.4305 51.3783C72.9283 50.9607 72.2287 50.8702 71.6381 51.148C71.0471 51.4242 70.6687 52.0194 70.6687 52.6723V63.6171H67.9114L53.2248 51.3783C52.7226 50.9607 52.023 50.8702 51.4324 51.148C50.8414 51.4242 50.4629 52.0194 50.4629 52.6723V63.6171H46.8048L41.9369 38.0459C41.7858 37.2498 41.0908 36.6761 40.2826 36.6761H34.6477C34.5231 34.3966 34.1257 32.3066 33.5549 30.422C33.9481 29.125 36.0533 25.9569 38.3988 22.9156C39.0425 24.0913 40.0123 25.3727 41.4246 26.1472C42.2649 26.6094 43.18 26.8409 44.136 26.8409C44.8167 26.8409 45.5188 26.7227 46.2277 26.4857C52.4645 24.407 57.5728 16.552 54.049 4.22103C53.9017 3.70326 53.5152 3.28862 53.0114 3.10298C52.5066 2.9186 51.9442 2.98385 51.4959 3.28231C51.45 3.31346 46.817 6.36705 42.3272 6.36705C38.5281 6.36705 33.2965 10.0045 32.6074 14.2486C32.4015 15.516 32.4386 18.3608 36.0882 20.4138C34.5071 22.4357 33.0224 24.5371 31.938 26.3C30.6575 23.6884 29.1901 21.7062 28.0808 20.4117C31.7263 18.3587 31.7629 15.516 31.5575 14.2486C30.8688 10.0049 25.6372 6.36747 21.8381 6.36747C17.3739 6.36747 12.7144 3.31219 12.6677 3.28104C12.2206 2.98511 11.6591 2.91776 11.1531 3.10509C10.6492 3.29073 10.2636 3.70536 10.1163 4.22145C6.59246 16.5524 11.7007 24.4074 17.9376 26.4861C18.6473 26.7227 19.3478 26.8414 20.0293 26.8414C20.9848 26.8414 21.9004 26.6094 22.7406 26.1476C24.1563 25.3714 25.1274 24.0862 25.7707 22.908C27.7651 25.3335 30.8621 30.124 31.2767 36.6765H26.1251C25.3169 36.6765 24.6223 37.2503 24.4708 38.0463L19.6029 63.6171H15.1029C14.173 63.6171 13.4191 64.3702 13.4191 65.3009V105.712H6.68381C5.75393 105.712 5 106.465 5 107.396C5 108.327 5.75393 109.08 6.68381 109.08H106.029C106.959 109.08 107.713 108.327 107.713 107.396C107.713 106.465 106.959 105.712 106.029 105.712ZM35.9325 14.7882C36.3277 12.3479 40.0245 9.7351 42.3272 9.7351C45.8223 9.7351 49.2443 8.31943 51.3301 7.25063C53.184 16.222 49.5894 21.8164 45.1623 23.2927C44.341 23.5672 43.67 23.5377 43.0516 23.1989C41.8894 22.5657 41.1258 20.9809 40.7726 19.9908C42.2901 18.2202 43.7041 16.7781 44.6104 16.2203C45.4022 15.7337 45.6489 14.696 45.1614 13.9034C44.6731 13.1107 43.6372 12.864 42.8445 13.3523C41.6789 14.0696 40.0111 15.7375 38.27 17.7542C36.5378 16.9561 35.7418 15.9635 35.9325 14.7882ZM21.1137 23.1993C20.4953 23.5381 19.8239 23.5642 19.003 23.2931C14.5758 21.8164 10.9813 16.2224 12.8352 7.25063C14.921 8.31943 18.3429 9.7351 21.8381 9.7351C24.1411 9.7351 27.8375 12.3479 28.2328 14.7882C28.434 16.0246 27.5559 17.0622 25.6288 17.8801L21.3448 13.5961C20.6872 12.9385 19.6214 12.9385 18.9639 13.5961C18.3063 14.2536 18.3063 15.3195 18.9639 15.977L23.2811 20.2909C22.8888 21.2776 22.1618 22.628 21.1137 23.1993ZM74.0363 56.2668L82.8557 63.6171H74.0363V56.2668ZM53.8305 56.2668L62.6499 63.6171H53.8305V56.2668ZM23.6722 60.2495H31.941C32.8709 60.2495 33.6248 59.4964 33.6248 58.5656C33.6248 57.6349 32.8709 56.8818 31.941 56.8818H24.3133L24.9637 53.4654C25.0462 53.478 25.1199 53.5142 25.2057 53.5142H31.941C32.8709 53.5142 33.6248 52.7611 33.6248 51.8304C33.6248 50.8997 32.8709 50.1466 31.941 50.1466H25.5951L26.2362 46.779H31.941C32.8709 46.779 33.6248 46.0259 33.6248 45.0951C33.6248 44.1644 32.8709 43.4113 31.941 43.4113H26.8773L27.5185 40.0437H38.8892L43.3766 63.6171H23.0311L23.6722 60.2495ZM16.7867 66.9847H92.5582V105.712H16.7867V66.9847Z" fill="#02A97B"/>
<path d="M62.2483 43.4111C63.1782 43.4111 63.9321 42.6572 63.9321 41.7273C63.9321 40.7973 63.1782 40.0435 62.2483 40.0435C61.3183 40.0435 60.5645 40.7973 60.5645 41.7273C60.5645 42.6572 61.3183 43.4111 62.2483 43.4111Z" fill="#02A97B"/>
<path d="M58.883 34.9919C59.813 34.9919 60.5669 34.238 60.5669 33.3081C60.5669 32.3781 59.813 31.6243 58.883 31.6243C57.9531 31.6243 57.1992 32.3781 57.1992 33.3081C57.1992 34.238 57.9531 34.9919 58.883 34.9919Z" fill="#02A97B"/>
<path d="M65.6155 29.9406C66.5454 29.9406 67.2993 29.1868 67.2993 28.2568C67.2993 27.3269 66.5454 26.573 65.6155 26.573C64.6855 26.573 63.9316 27.3269 63.9316 28.2568C63.9316 29.1868 64.6855 29.9406 65.6155 29.9406Z" fill="#02A97B"/>
<path d="M50.4592 36.6757C51.3891 36.6757 52.143 35.9219 52.143 34.9919C52.143 34.062 51.3891 33.3081 50.4592 33.3081C49.5293 33.3081 48.7754 34.062 48.7754 34.9919C48.7754 35.9219 49.5293 36.6757 50.4592 36.6757Z" fill="#02A97B"/>
<path d="M67.2973 75.4043H50.4592C49.5293 75.4043 48.7754 76.1574 48.7754 77.0881V98.9777C48.7754 99.9084 49.5293 100.661 50.4592 100.661H67.2973C68.2272 100.661 68.9811 99.9084 68.9811 98.9777V77.0881C68.9811 76.1574 68.2272 75.4043 67.2973 75.4043ZM52.143 78.7719H57.1945V97.2938H52.143V78.7719ZM65.6135 97.2938H60.5621V78.7719H65.6135V97.2938Z" fill="#02A97B"/>
</svg>
