<svg width="112" height="112" viewBox="0 0 112 112" fill="none" xmlns="http://www.w3.org/2000/svg">
<path d="M55.9768 95.9973C55.7135 95.9973 55.4468 95.934 55.2068 95.8073L16.9006 75.8075C16.3506 75.5208 16.0039 74.9509 16.0039 74.3309V36.8312C16.0039 36.2546 16.3039 35.7179 16.7939 35.4146C17.2839 35.1113 17.9006 35.0846 18.4139 35.3413L56.7201 54.5077C57.2835 54.7911 57.6401 55.3677 57.6401 55.9977V94.3306C57.6401 94.914 57.3368 95.454 56.8368 95.7573C56.5768 95.9173 56.2768 95.9973 55.9768 95.9973ZM19.3372 73.3209L54.3102 91.5807V57.0277L19.3372 39.5279V73.3209Z" fill="#02A97B"/>
<path d="M56.0299 95.9973C55.7299 95.9973 55.4299 95.9173 55.1666 95.7573C54.6699 95.454 54.3633 94.914 54.3633 94.3307V55.9978C54.3633 55.3678 54.7199 54.7911 55.2833 54.5078L93.5895 35.3413C94.0995 35.0813 94.7195 35.108 95.2095 35.4146C95.7028 35.718 96.0028 36.2546 96.0028 36.8313V74.3309C96.0028 74.9509 95.6562 75.5209 95.1062 75.8076L56.7999 95.8073C56.5599 95.934 56.2933 95.9973 56.0299 95.9973ZM57.6966 57.0277V91.5807L92.6695 73.3209V39.5279L57.6966 57.0277ZM94.3362 74.3309H94.3695H94.3362Z" fill="#02A97B"/>
<path d="M17.6701 38.4981C17.0568 38.4981 16.4701 38.1614 16.1768 37.5781C15.7635 36.7548 16.1001 35.7548 16.9235 35.3415L55.2831 16.175C55.7531 15.9417 56.3064 15.9417 56.773 16.175L95.0793 35.3415C95.9026 35.7548 96.236 36.7548 95.826 37.5781C95.4126 38.4014 94.416 38.7314 93.5893 38.3248L56.0297 19.5283L18.4168 38.3214C18.1768 38.4414 17.9234 38.4981 17.6701 38.4981Z" fill="#02A97B"/>
<path d="M76.005 65.9975C75.085 65.9975 74.3383 65.2508 74.3383 64.3309V47.0277L36.9521 28.3212C36.1287 27.9112 35.7954 26.9079 36.2087 26.0846C36.6221 25.2613 37.622 24.9313 38.4454 25.3379L76.7517 44.5044C77.315 44.7911 77.6716 45.3677 77.6716 45.9977V64.3309C77.6716 65.2508 76.925 65.9975 76.005 65.9975Z" fill="#02A97B"/>
</svg>
