<svg width="112" height="112" viewBox="0 0 112 112" fill="none" xmlns="http://www.w3.org/2000/svg">
<path d="M106 29.8129V20.8984L101.766 19.7403C101.627 19.371 101.473 19.0016 101.305 18.6355L103.484 14.821L97.1806 8.51774L93.3661 10.6968C93 10.529 92.6323 10.3742 92.2613 10.2355L91.1032 6H82.1887L81.0306 10.2339C80.6613 10.3726 80.2919 10.5274 79.9258 10.6952L76.1113 8.51613L69.8081 14.8194L71.9871 18.6339C71.8952 18.8323 71.8274 19.0355 71.7452 19.2371C70.1081 19.5226 68.5065 19.9823 66.9661 20.6597C61.8081 13.4742 53.5919 9.22581 44.7097 9.22581C29.5903 9.22581 17.2903 21.5258 17.2903 36.6452C17.2903 36.6823 17.2935 36.7194 17.2935 36.7565C10.9371 37.5532 6 42.979 6 49.5484C6 56.6629 11.7887 62.4516 18.9032 62.4516H19.8484L41.4839 84.0871V106H70.5161V84.0871L92.1516 62.4516H93.0968C100.211 62.4516 106 56.6629 106 49.5484C106 45.1565 103.79 41.2758 100.429 38.9435L103.484 35.8887L101.305 32.0742C101.473 31.7081 101.627 31.3403 101.766 30.9694L106 29.8129ZM67.2903 82.7516V102.774H44.7097V82.7516L21.379 59.421C20.8306 58.8726 20.5161 58.1129 20.5161 57.3355C20.5161 55.7097 21.8387 54.3871 23.4645 54.3871C24.2403 54.3871 25.0016 54.7016 25.55 55.25L38.1532 67.8532C40.85 70.55 44.4129 72.3306 48.1903 72.8726L52.3871 73.4726L51.1032 88.8677L56 93.7645L60.8952 88.8694L59.6113 73.4629L63.8097 72.8742C67.5871 72.3323 71.15 70.5516 73.8468 67.8548L86.45 55.2516C86.9984 54.7016 87.7581 54.3871 88.5355 54.3871C90.1613 54.3871 91.4839 55.7097 91.4839 57.3355C91.4839 58.1113 91.1694 58.8726 90.621 59.421L67.2903 82.7516ZM43.2081 62.4516C43.5194 64.9371 44.5306 67.2065 46.0516 69.0468C43.9484 68.3323 42.0097 67.1468 40.4339 65.5726L37.3129 62.4516H43.2081ZM68.7919 62.4516H74.6871L71.5645 65.5742C69.9887 67.1484 68.05 68.3323 65.9468 69.0484C67.4694 67.2065 68.479 64.9371 68.7919 62.4516ZM57.5565 87.6468L56 89.2032L54.4436 87.6468L55.6016 73.7323L55.8403 73.7339C55.8935 73.7339 55.9468 73.7419 56 73.7419H56.3984L57.5565 87.6468ZM56 70.5161C50.6629 70.5161 46.3226 66.1758 46.3226 60.8387C46.3226 55.5016 50.6629 51.1613 56 51.1613C61.3371 51.1613 65.6774 55.5016 65.6774 60.8387C65.6774 66.1758 61.3371 70.5161 56 70.5161ZM102.774 49.5484C102.774 54.4355 99.129 58.4774 94.4161 59.1258C94.5919 58.55 94.7097 57.9548 94.7097 57.3355C94.7097 53.9323 91.9387 51.1613 88.5355 51.1613C86.8871 51.1613 85.3355 51.8032 84.1694 52.9694L77.9129 59.2258H68.7919C67.9935 52.871 62.5677 47.9355 56 47.9355C49.4323 47.9355 44.0065 52.871 43.2081 59.2258H34.0871L27.8306 52.9694C26.6645 51.8032 25.1145 51.1613 23.4645 51.1613C20.0613 51.1613 17.2903 53.9323 17.2903 57.3355C17.2903 57.9532 17.4081 58.5484 17.5839 59.1242C12.871 58.4774 9.22581 54.4355 9.22581 49.5484C9.22581 44.2113 13.5661 39.871 18.9032 39.871C22.0629 39.871 25.0339 41.421 26.8452 44.0161L29.4919 42.1694C27.3871 39.1565 24.1129 37.2032 20.521 36.7484C20.5194 36.7145 20.5161 36.6806 20.5161 36.6452C20.5161 23.3048 31.3694 12.4516 44.7097 12.4516C52.9645 12.4516 60.571 16.6145 65.0548 23.5871L65.8516 24.8258L67.1581 24.1452C69.721 22.8081 72.479 22.129 75.3548 22.129C83.9452 22.129 91.2742 28.379 92.8 36.6597C85.8226 36.821 80.1936 42.5339 80.1936 49.5484H83.4194C83.4194 44.2113 87.7597 39.871 93.0968 39.871C98.4339 39.871 102.774 44.2113 102.774 49.5484ZM92.5419 27.9339C90.1194 24.4694 86.6903 21.771 82.6968 20.2597C83.8113 19.3952 85.1855 18.9032 86.6452 18.9032C90.2032 18.9032 93.0968 21.7968 93.0968 25.3548C93.0968 26.2565 92.8952 27.1274 92.5419 27.9339ZM99.4597 35.35L97.4081 37.4016C96.9823 37.25 96.5484 37.1194 96.1048 37.0129C95.8194 34.9306 95.2306 32.9468 94.3758 31.1081C95.6161 29.4452 96.3226 27.4532 96.3226 25.3548C96.3226 20.0177 91.9823 15.6774 86.6452 15.6774C83.6936 15.6774 80.9629 17.0016 79.1355 19.2597C77.9403 19.0387 76.7145 18.9161 75.4645 18.9097L75.6532 18.5548L73.8306 15.3613L76.65 12.5419L79.8436 14.3645L80.6258 13.9484C81.3468 13.5661 82.0903 13.2548 82.8355 13.0258L83.6806 12.7661L84.6516 9.22581H88.6403L89.6097 12.7629L90.4548 13.0226C91.2 13.2532 91.9436 13.5629 92.6645 13.9452L93.4468 14.3613L96.6403 12.5387L99.4597 15.3581L97.6371 18.5516L98.0532 19.3339C98.4355 20.0548 98.7468 20.7984 98.9758 21.5435L99.2355 22.3887L102.774 23.3613V27.35L99.2371 28.3194L98.9774 29.1645C98.7468 29.9097 98.4371 30.6532 98.0548 31.3742L97.6387 32.1565L99.4597 35.35Z" fill="#02A97B"/>
<path d="M70.991 39.3978L73.0765 41.4833H38.9281L41.0136 39.3978L38.7329 37.1172L32.7539 43.0962L38.7329 49.0753L41.0136 46.7946L38.9281 44.7091H73.0765L70.991 46.7946L73.2716 49.0753L79.2507 43.0962L73.2716 37.1172L70.991 39.3978Z" fill="#02A97B"/>
<path d="M51.7029 16.8716C50.5706 16.47 49.3932 16.1652 48.2061 15.9668L47.6738 19.1491C48.6771 19.3168 49.6706 19.5749 50.6287 19.912L51.7029 16.8716Z" fill="#02A97B"/>
<path d="M44.7145 15.6782C34.4323 15.6782 25.7355 23.0282 24.0371 33.154L27.2194 33.6863C28.6549 25.1202 36.0129 18.904 44.7145 18.904V15.6782Z" fill="#02A97B"/>
</svg>
