<svg width="112" height="112" viewBox="0 0 112 112" fill="none" xmlns="http://www.w3.org/2000/svg">
<g clip-path="url(#clip0)">
<path d="M79.1841 107.625H74.389C74.389 107.625 56.7353 91.9658 56.0878 91.4885C53.4875 89.5727 49.7066 90.1788 47.8282 92.7994C46.2714 94.971 43.7492 96.2675 41.0809 96.2675C38.4132 96.2675 35.891 94.9714 34.3346 92.8005C32.4569 90.1812 28.6788 89.5755 26.0785 91.4883C25.4267 91.968 7.77508 107.625 7.77508 107.625H3.24805C2.04011 107.625 1.06055 108.604 1.06055 109.813C1.06055 111.021 2.04011 112 3.24805 112H79.1841C80.392 112 81.3716 111.021 81.3716 109.813C81.3716 108.604 80.392 107.625 79.1841 107.625ZM14.356 107.625C14.356 107.625 28.1276 95.4122 28.671 95.0123C29.3318 94.5263 30.302 94.6846 30.779 95.3496C33.1551 98.6639 37.0062 100.643 41.0809 100.643C45.156 100.643 49.0073 98.6635 51.384 95.3483C51.8609 94.6831 52.8317 94.5236 53.4925 95.0108C54.0322 95.4083 67.8075 107.625 67.8075 107.625H14.356V107.625Z" fill="#02A97B"/>
<path d="M109.129 28.9177L102.404 22.1915C101.55 21.3373 100.165 21.3373 99.3098 22.1915C98.4556 23.0458 98.4556 24.4309 99.3098 25.2851L106.035 32.0112C106.742 32.718 106.742 33.8678 106.035 34.5743L76.725 63.8848C75.5905 65.0193 74.0256 65.6418 72.2914 65.6418C71.2895 65.6418 70.3101 65.8656 69.4262 66.344L66.6259 63.5438C65.7715 62.6896 64.3868 62.6896 63.5322 63.5438C62.6779 64.398 62.6779 65.7832 63.5322 66.6376L66.622 69.7274C66.4444 70.2861 66.3477 70.8809 66.3477 71.4978C66.3468 73.3337 65.6844 74.9254 64.3899 76.2199L34.7215 46.5513C36.0069 45.2666 37.6079 44.5638 39.4425 44.5928C40.2379 44.6031 41.0267 44.4518 41.7619 44.1486L45.0299 47.4165C45.8727 48.2591 47.2806 48.2591 48.1236 47.4165C48.9779 46.5623 48.9779 45.1771 48.1236 44.3227L44.8892 41.0883C45.228 40.3139 45.3971 39.4741 45.382 38.6288C45.3501 36.8963 45.9519 35.3229 47.0763 34.1987L76.3691 4.90569C77.0675 4.207 78.2335 4.207 78.9322 4.90569L85.6544 11.6285C86.5088 12.483 87.8935 12.483 88.7481 11.6285C89.6024 10.7743 89.6024 9.38919 88.7481 8.53497L82.0259 1.81213C80.8574 0.643563 79.3034 0 77.6507 0C77.6507 0 77.6507 0 77.6505 0C75.9979 0 74.4441 0.643563 73.2755 1.81213L43.9825 31.1052C42.0102 33.0772 40.9539 35.7777 41.0077 38.7074C41.0197 39.5242 40.3335 40.2413 39.5049 40.2183C36.5572 40.1756 33.8408 41.2447 31.8591 43.2265L30.0811 45.0043C29.2385 45.8465 29.2387 47.2557 30.0809 48.0981L62.8433 80.8603C63.6857 81.7023 65.0947 81.7027 65.9371 80.8603L67.6845 79.1127C69.6696 77.128 70.7487 74.4284 70.7231 71.5306V71.4976C70.7231 70.681 71.3884 70.0166 72.2187 70.0166C75.1312 70.0431 77.836 68.9614 79.819 66.9784L109.129 37.6679C111.541 35.2555 111.541 31.3303 109.129 28.9177Z" fill="#02A97B"/>
<path d="M54.0079 50.2073C53.1534 49.3531 51.7688 49.3531 50.9141 50.2073C50.0599 51.0615 50.0599 52.4467 50.9141 53.3011L57.5584 59.9454C58.4013 60.788 59.8091 60.788 60.6522 59.9454C61.5064 59.0912 61.5064 57.7061 60.6522 56.8516L54.0079 50.2073Z" fill="#02A97B"/>
<path d="M91.1995 31.6572C91.9938 27.2428 89.7271 22.8455 85.6824 20.9251C85.6702 20.9192 85.659 20.912 85.6466 20.9063C85.6415 20.9039 85.6363 20.9023 85.631 20.9001C85.6183 20.8942 85.6063 20.8877 85.5936 20.882C81.7983 19.1256 77.345 19.9488 74.426 22.847C73.612 22.809 72.7898 22.8901 71.9955 23.0938C67.3855 24.2844 63.1693 26.6931 59.8032 30.0594C57.4878 32.3747 55.6378 35.0649 54.3045 38.056C53.158 40.6307 54.8623 43.7757 57.7065 44.0918C60.4754 44.4626 63.3002 44.3875 66.0481 43.8873C65.9551 46.6225 66.1918 49.3912 66.7768 52.1405C67.4507 55.3086 71.0844 56.9983 73.9476 55.4587C83.0758 50.5379 89.3638 41.8627 91.1995 31.6572ZM58.3345 39.7612C59.446 37.2917 60.981 35.0686 62.897 33.1528C65.0893 30.9602 67.713 29.254 70.5861 28.1368C68.5618 31.6182 67.1926 35.4011 66.5169 39.32C63.8536 39.9657 61.0527 40.1195 58.3345 39.7612ZM71.8719 51.6072C71.5553 51.7815 71.1294 51.5744 71.0562 51.2296C70.1341 46.8962 70.203 42.4044 71.2524 38.1013C72.2026 34.2082 73.9771 30.4897 76.4029 27.2876C77.0639 26.4179 77.7318 25.5936 78.6991 25.0509C79.5938 24.5489 80.6208 24.3035 81.6456 24.3444L76.8119 34.7905C76.3046 35.8869 76.7819 37.1872 77.8785 37.6945C78.9614 38.1954 80.2822 37.7093 80.7822 36.6278L85.5956 26.2256C86.6893 27.4699 87.2012 29.1741 86.8939 30.8826C85.295 39.7689 79.8199 47.3227 71.8719 51.6072Z" fill="#02A97B"/>
<path d="M39.6563 66.9316C38.4483 66.9316 37.4688 67.911 37.4688 69.1191V73.4909C37.4688 74.699 38.4483 75.6784 39.6563 75.6784C40.8642 75.6784 41.8438 74.699 41.8438 73.4909V69.1191C41.8438 67.911 40.8644 66.9316 39.6563 66.9316Z" fill="#02A97B"/>
<path d="M41.3633 86.4789C41.7906 86.9061 42.3503 87.1196 42.9101 87.1196C43.4699 87.1196 44.0297 86.9061 44.4569 86.4789L47.6476 83.2882C48.5018 82.4339 48.5018 81.0488 47.6476 80.1944C46.7932 79.3402 45.4085 79.3402 44.5538 80.1944L41.3631 83.3851C40.5091 84.2393 40.5091 85.6244 41.3633 86.4789Z" fill="#02A97B"/>
<path d="M92.0871 17.8237C92.8394 19.6295 95.5033 19.5691 96.1659 17.7242C96.8419 15.8423 94.7333 14.1034 93.0135 15.0924C92.0716 15.634 91.6769 16.822 92.0871 17.8237Z" fill="#02A97B"/>
</g>
<defs>
<clipPath id="clip0">
<rect width="112" height="112" fill="white"/>
</clipPath>
</defs>
</svg>
