<svg width="112" height="112" viewBox="0 0 112 112" fill="none" xmlns="http://www.w3.org/2000/svg">
<g clip-path="url(#clip0)">
<path d="M89.1581 81.1675C85.9952 81.1675 83.4219 83.7409 83.4219 86.9038C83.4219 90.0669 85.9952 92.6403 89.1581 92.6403C92.3213 92.6403 94.8946 90.0669 94.8946 86.9038C94.8946 83.7406 92.3213 81.1675 89.1581 81.1675ZM89.1581 89.3588C87.8045 89.3588 86.7031 88.2574 86.7031 86.9035C86.7031 85.5497 87.8043 84.4485 89.1581 84.4485C90.512 84.4485 91.6134 85.5497 91.6134 86.9035C91.6134 88.2574 90.512 89.3588 89.1581 89.3588Z" fill="#02A97B"/>
<path d="M110.996 57.8809L101.457 40.4151C100.803 39.2165 99.5481 38.4721 98.1827 38.4721H68.9836C66.9264 38.4721 65.2526 40.1458 65.2526 42.2033V51.4123C65.2526 52.3185 65.9869 53.0529 66.8932 53.0529C67.7995 53.0529 68.5338 52.3185 68.5338 51.4123V42.2033C68.5338 41.9553 68.7355 41.7534 68.9836 41.7534H81.2337V61.7313C81.2337 63.8099 82.9247 65.5008 85.0032 65.5008H108.719V69.2749H107.165C104.86 69.2749 102.984 71.1505 102.984 73.4557C102.984 75.7608 104.86 77.6362 107.165 77.6362H108.719V80.9102H101.769C99.5221 76.2003 94.714 72.9374 89.1571 72.9374C83.6002 72.9374 78.7923 76.2005 76.5451 80.9102C76.5059 80.9102 69.7041 80.91 68.5338 80.91V57.9719C68.5338 57.0656 67.7995 56.3313 66.8932 56.3313C65.9869 56.3313 65.2526 57.0656 65.2526 57.9719V67.8001H63.0495V65.2145C63.0495 63.4802 61.6388 62.0695 59.9046 62.0695H57.2973V34.1608C57.2973 21.4617 46.966 11.1306 34.2669 11.1306C26.6207 11.1306 19.4904 14.9137 15.1937 21.2504C14.6851 22.0003 14.8807 23.0205 15.6307 23.5289C16.3806 24.0379 17.4009 23.8419 17.9092 23.0918C21.595 17.6568 27.7101 14.4119 34.2671 14.4119C45.1567 14.4119 54.016 23.2712 54.016 34.1608V53.621C48.0015 51.6562 41.9559 50.5909 35.9075 50.4279V37.017H38.2934C42.6538 37.017 46.201 33.4695 46.201 29.1094V25.0829C46.201 24.1766 45.4667 23.4423 44.5604 23.4423H40.5339C37.9841 23.4423 35.7139 24.6566 34.2669 26.5358C32.8199 24.6566 30.5497 23.4423 27.9999 23.4423H23.9734C23.0671 23.4423 22.3328 24.1766 22.3328 25.0829V29.1094C22.3328 33.4698 25.88 37.017 30.2402 37.017H32.6261V50.4279C26.5776 50.5909 20.5321 51.656 14.5178 53.621V34.1608C14.5178 32.2596 14.7886 30.3771 15.3225 28.5661C15.5789 27.697 15.0819 26.7846 14.213 26.5286C13.3431 26.2712 12.4313 26.7692 12.1756 27.6381C11.5526 29.7506 11.2367 31.9451 11.2367 34.1608V62.0693H8.62923C6.89499 62.0693 5.48427 63.48 5.48427 65.2143V67.7999H1.64062C0.734342 67.7999 0 68.5342 0 69.4405V78.2323C0 81.5181 2.67334 84.1915 5.95918 84.1915H7.59061V85.9423H1.64062C0.734342 85.9423 0 86.6767 0 87.583C0 88.4892 0.734342 89.2236 1.64062 89.2236H9.23123C10.1375 89.2236 10.8719 88.4892 10.8719 87.583V84.1915H12.5868C12.4134 85.0691 12.3204 85.9754 12.3204 86.9031C12.3204 94.6039 18.5856 100.869 26.2865 100.869C28.9325 100.869 31.5111 100.122 33.7439 98.7094C34.5095 98.2249 34.7374 97.2112 34.2529 96.4456C33.7682 95.68 32.7545 95.4522 31.9891 95.9366C30.2819 97.0167 28.3101 97.5879 26.2865 97.5879C20.3949 97.5879 15.6017 92.7947 15.6017 86.9031C15.6017 81.0115 20.3949 76.2185 26.2865 76.2185C32.1781 76.2185 36.9713 81.0115 36.9713 86.9031C36.9713 88.5955 36.5843 90.2171 35.8213 91.723C35.4118 92.5311 35.7349 93.5185 36.5434 93.928C37.3515 94.3375 38.3385 94.0146 38.7484 93.2059C39.7464 91.2363 40.2525 89.1157 40.2525 86.9031C40.2525 85.9754 40.1596 85.0691 39.9861 84.1915H48.0405V85.4016C48.0405 87.8682 50.0475 89.875 52.5141 89.875H66.9262C69.3928 89.875 71.3996 87.8682 71.3996 85.4016V84.1915H75.4579C75.2844 85.0691 75.1914 85.9754 75.1914 86.9031C75.1914 94.6039 81.4566 100.869 89.1573 100.869C96.8581 100.869 103.123 94.6039 103.123 86.9031C103.123 85.9754 103.03 85.0691 102.857 84.1915H108.753C110.544 84.1915 112 82.7348 112 80.9441V61.8116C112 60.4431 111.653 59.0838 110.996 57.8809ZM108.719 74.3552H107.165C106.669 74.3552 106.265 73.9516 106.265 73.4559C106.265 72.9598 106.669 72.5564 107.165 72.5564H108.719V74.3552ZM40.5339 26.7235H42.9198V29.1094C42.9198 31.6605 40.8445 33.7358 38.2934 33.7358H35.9075V31.3499C35.9073 28.7988 37.9828 26.7235 40.5339 26.7235ZM25.614 29.1094V26.7235H27.9999C30.5508 26.7235 32.6261 28.7988 32.6261 31.3499V33.7358H30.2402C27.6893 33.736 25.614 31.6605 25.614 29.1094ZM14.5178 57.0803C20.5296 55.0087 26.5763 53.8879 32.6261 53.7161V55.7855C32.6261 56.6918 33.3604 57.4261 34.2667 57.4261C35.173 57.4261 35.9073 56.6918 35.9073 55.7855V53.7161C41.957 53.8879 48.0037 55.0087 54.0158 57.0803V62.0693H14.5178V57.0803ZM8.76551 65.3506H59.7681V67.7999H8.76551V65.3506ZM26.2865 72.9377C20.7296 72.9377 15.9215 76.2008 13.6743 80.9104C10.7209 80.9104 8.67473 80.9104 5.95918 80.9104C4.48262 80.9104 3.28124 79.7091 3.28124 78.2325V71.0814H65.2526V80.9104C62.6486 80.9104 43.896 80.9106 38.8987 80.9106C36.6515 76.2005 31.8434 72.9377 26.2865 72.9377ZM68.1182 85.4018C68.1182 86.0591 67.5833 86.594 66.926 86.594H52.5139C51.8563 86.594 51.3215 86.0591 51.3215 85.4018V84.1917H68.1182V85.4018ZM89.1571 97.5881C83.2655 97.5881 78.4725 92.7949 78.4725 86.9033C78.4725 81.0117 83.2655 76.2187 89.1571 76.2187C95.0486 76.2187 99.8419 81.0117 99.8419 86.9033C99.8419 92.7949 95.0486 97.5881 89.1571 97.5881ZM98.1827 41.7534C98.3478 41.7534 98.4983 41.8433 98.5773 41.9872C98.5773 41.9874 98.5775 41.9874 98.5775 41.9874C109.936 62.9111 108.397 59.2474 108.719 62.2196H107.915L102.293 56.5977L103.039 55.8522C103.68 55.2113 103.68 54.1727 103.039 53.5319C102.398 52.8914 101.359 52.8914 100.719 53.5319L96.9072 57.3434C96.2664 57.9844 96.2664 59.023 96.9072 59.6637C97.5483 60.3044 98.5867 60.3042 99.2274 59.6637L99.9729 58.9182L103.275 62.2198H91.7963L91.3852 53.1833C91.2127 49.3875 88.2427 46.3766 84.515 46.094V41.7534H98.1827ZM84.5148 61.7313V49.395C86.4807 49.6649 88.0145 51.2948 88.1073 53.3322L88.5115 62.2196H85.003C84.7339 62.2198 84.5148 62.0006 84.5148 61.7313Z" fill="#02A97B"/>
<path d="M20.5508 86.9033C20.5508 90.0664 23.1242 92.6398 26.2871 92.6398C29.4502 92.6398 32.0236 90.0664 32.0236 86.9033C32.0236 83.7404 29.4502 81.167 26.2871 81.167C23.1242 81.1672 20.5508 83.7404 20.5508 86.9033ZM28.7423 86.9033C28.7423 88.2569 27.6409 89.3585 26.2871 89.3585C24.9332 89.3585 23.832 88.2571 23.832 86.9033C23.832 85.5494 24.9332 84.4482 26.2871 84.4482C27.6409 84.4482 28.7423 85.5496 28.7423 86.9033Z" fill="#02A97B"/>
<path d="M76.1953 56.408V50.7078C76.1953 49.8015 75.461 49.0671 74.5547 49.0671C73.6484 49.0671 72.9141 49.8015 72.9141 50.7078V56.408C72.9141 57.3142 73.6484 58.0486 74.5547 58.0486C75.461 58.0486 76.1953 57.3142 76.1953 56.408Z" fill="#02A97B"/>
</g>
<defs>
<clipPath id="clip0">
<rect width="112" height="112" fill="white"/>
</clipPath>
</defs>
</svg>
