<svg width="112" height="112" viewBox="0 0 112 112" fill="none" xmlns="http://www.w3.org/2000/svg">
<path d="M100.8 34.3131V32.9243L90.72 20.8264L74.6667 14.8064L58.6133 20.8264L48.5333 32.9243V44.8H28V37.3333H28.2389C31.7441 37.3284 34.5816 34.4832 34.577 30.978C34.5765 30.6054 34.5431 30.2335 34.4773 29.8667L32.3717 18.2784C31.727 14.833 28.4114 12.5627 24.966 13.2074C22.3911 13.689 20.3768 15.7033 19.8949 18.2784L17.7893 29.8667C17.1708 33.3167 19.4663 36.6151 22.9164 37.2337C23.2832 37.2995 23.6551 37.3329 24.0277 37.3333H24.2667V44.8H11.2V31.5467C15.543 30.6542 18.6618 26.8338 18.6667 22.4V9.33333C18.6667 4.17877 14.4879 0 9.33333 0C4.17877 0 0 4.17877 0 9.33333V22.4C0.0049 26.8338 3.12363 30.6542 7.46667 31.5467V44.8H0V112H112V39.9131L100.8 34.3131ZM52.2667 34.2757L60.8533 23.9736L74.6667 18.7936L88.48 23.9736L97.0667 34.2757V44.8H84V33.6H65.3333V44.8H52.2667V34.2757ZM80.2667 37.3333V44.8H76.5333V37.3333H80.2667ZM72.8 37.3333V44.8H69.0667V37.3333H72.8ZM24.0277 33.6C22.5843 33.5937 21.4195 32.4184 21.4261 30.975C21.4268 30.825 21.4403 30.6752 21.4667 30.5275L23.5723 18.9411C23.8492 17.5245 25.2219 16.6007 26.6385 16.8775C27.682 17.0814 28.4979 17.8974 28.7021 18.9411L30.8 30.5275C31.0536 31.9482 30.1075 33.3058 28.6865 33.5594C28.5388 33.5858 28.389 33.5993 28.2389 33.6H28V29.8667H24.2667V33.6H24.0277ZM3.73333 22.4V9.33333C3.73333 6.2405 6.2405 3.73333 9.33333 3.73333C12.4262 3.73333 14.9333 6.2405 14.9333 9.33333V22.4C14.9235 24.7646 13.4295 26.8683 11.2 27.6565V20.5333H7.46667V27.6565C5.23717 26.8683 3.74313 24.7646 3.73333 22.4ZM3.73333 48.5333H29.0939L3.73333 73.8939V48.5333ZM3.73333 79.1728L34.3728 48.5333H35.7747L3.73333 98.196V79.1728ZM3.73333 108.267V105.082L40.2173 48.5333H42.084L19.2491 108.267H3.73333ZM23.2456 108.267L46.0843 48.5333H48.1749L37.6339 108.267H23.2456ZM54.1333 108.267H41.4251L51.9661 48.5333H54.1333V108.267ZM57.8667 108.267V48.5333H60.0339L70.5749 108.267H57.8667ZM74.3661 108.267L63.8251 48.5333H65.9157L88.7544 108.267H74.3661ZM108.267 108.267H92.7509L69.9123 48.5333H71.7789L108.267 105.082V108.267ZM108.267 98.196L76.2253 48.5333H77.6272L108.267 79.1728V98.196ZM108.267 73.8939L82.9061 48.5333H108.267V73.8939ZM108.267 44.8H100.8V38.4869L108.267 42.2203V44.8Z" fill="#02A97B"/>
<path d="M76.5341 24.2666H72.8008V27.9999H76.5341V24.2666Z" fill="#02A97B"/>
<path d="M47.5992 0C42.9601 0 39.1992 3.76087 39.1992 8.4C39.1992 13.0391 42.9601 16.8 47.5992 16.8C52.2383 16.8 55.9992 13.0391 55.9992 8.4C55.9992 3.76087 52.2383 0 47.5992 0ZM47.5992 13.0667C45.0218 13.0667 42.9326 10.9774 42.9326 8.4C42.9326 5.8226 45.0218 3.73333 47.5992 3.73333C50.1766 3.73333 52.2659 5.8226 52.2659 8.4C52.2659 10.9774 50.1766 13.0667 47.5992 13.0667Z" fill="#02A97B"/>
</svg>
