<?xml version="1.0" encoding="UTF-8" standalone="no"?>
<!-- Created with Inkscape (http://www.inkscape.org/) -->

<svg
   xmlns:dc="http://purl.org/dc/elements/1.1/"
   xmlns:cc="http://creativecommons.org/ns#"
   xmlns:rdf="http://www.w3.org/1999/02/22-rdf-syntax-ns#"
   xmlns:svg="http://www.w3.org/2000/svg"
   xmlns="http://www.w3.org/2000/svg"
   xmlns:sodipodi="http://sodipodi.sourceforge.net/DTD/sodipodi-0.dtd"
   xmlns:inkscape="http://www.inkscape.org/namespaces/inkscape"
   width="87.814957mm"
   height="28.502287mm"
   viewBox="0 0 87.814957 28.502287"
   version="1.1"
   id="svg15669"
   inkscape:version="0.92.4 (5da689c313, 2019-01-14)"
   sodipodi:docname="oxg_logo_W.svg">
  <defs
     id="defs15663" />
  <sodipodi:namedview
     id="base"
     pagecolor="#ffffff"
     bordercolor="#666666"
     borderopacity="1.0"
     inkscape:pageopacity="0.0"
     inkscape:pageshadow="2"
     inkscape:zoom="1.979899"
     inkscape:cx="163.23693"
     inkscape:cy="46.171725"
     inkscape:document-units="mm"
     inkscape:current-layer="layer1"
     showgrid="false"
     inkscape:window-width="1288"
     inkscape:window-height="746"
     inkscape:window-x="-8"
     inkscape:window-y="-8"
     inkscape:window-maximized="1"
     fit-margin-left="1"
     fit-margin-right="1"
     fit-margin-bottom="1"
     fit-margin-top="1" />
  <metadata
     id="metadata15666">
    <rdf:RDF>
      <cc:Work
         rdf:about="">
        <dc:format>image/svg+xml</dc:format>
        <dc:type
           rdf:resource="http://purl.org/dc/dcmitype/StillImage" />
        <dc:title></dc:title>
      </cc:Work>
    </rdf:RDF>
  </metadata>
  <g
     inkscape:label="Layer 1"
     inkscape:groupmode="layer"
     id="layer1"
     transform="translate(-35.844945,-17.098929)">
    <g
       aria-label="OXG"
       style="font-style:normal;font-weight:normal;font-size:36.38444519px;line-height:1.25;font-family:sans-serif;text-align:center;letter-spacing:0px;word-spacing:0px;text-anchor:middle;opacity:1;fill:#ffffff;fill-opacity:1;stroke:#ffffff;stroke-width:0.26153353;stroke-miterlimit:4;stroke-dasharray:none;stroke-opacity:1"
       id="text16216"
       inkscape:export-filename="C:\Users\root\Documents\Графика\Vlad\фалы png 200\лого белыйй.png"
       inkscape:export-xdpi="96"
       inkscape:export-ydpi="96">
      <path
         d="m 42.082782,44.602741 q -2.183067,0 -3.711213,-1.528146 -1.528147,-1.528147 -1.528147,-3.711214 v -15.71808 q 0,-2.183067 1.528147,-3.711214 1.528146,-1.528146 3.711213,-1.528146 h 15.71808 q 2.146683,0 3.674829,1.528146 1.564532,1.528147 1.564532,3.711214 v 15.71808 q 0,2.183067 -1.564532,3.711214 -1.528146,1.528146 -3.674829,1.528146 z m 1.200687,-5.23936 h 13.243938 q 1.091533,0 1.164302,-0.07277 0.07277,-0.07277 0.07277,-1.164302 V 24.882372 q 0,-1.091533 -0.07277,-1.164302 -0.07277,-0.07277 -1.164302,-0.07277 H 43.283469 q -1.091534,0 -1.164302,0.07277 -0.03638,0.07277 -0.03638,1.164302 V 38.12631 q 0,1.091533 0.03638,1.164302 0.07277,0.07277 1.164302,0.07277 z"
         style="font-style:normal;font-variant:normal;font-weight:800;font-stretch:normal;font-size:36.38444519px;font-family:Orbitron;-inkscape-font-specification:'Orbitron, Ultra-Bold';font-variant-ligatures:normal;font-variant-caps:normal;font-variant-numeric:normal;font-feature-settings:normal;text-align:center;writing-mode:lr-tb;text-anchor:middle;fill:#ffffff;fill-opacity:1;stroke:#ffffff;stroke-width:0.26153353;stroke-miterlimit:4;stroke-dasharray:none;stroke-opacity:1"
         id="path25022" />
      <path
         d="m 65.546201,44.602741 v -1.6373 l 9.605493,-11.4611 -9.605493,-11.4611 v -1.6373 h 5.530436 l 7.567964,8.950573 7.495196,-8.950573 h 5.530436 v 1.6373 l -9.641878,11.4611 9.641878,11.424716 v 1.673684 h -5.530436 l -7.567965,-8.914189 -7.495195,8.914189 z"
         style="font-style:normal;font-variant:normal;font-weight:800;font-stretch:normal;font-size:36.38444519px;font-family:Orbitron;-inkscape-font-specification:'Orbitron, Ultra-Bold';font-variant-ligatures:normal;font-variant-caps:normal;font-variant-numeric:normal;font-feature-settings:normal;text-align:center;writing-mode:lr-tb;text-anchor:middle;fill:#ffffff;fill-opacity:1;stroke:#ffffff;stroke-width:0.26153353;stroke-miterlimit:4;stroke-dasharray:none;stroke-opacity:1"
         id="path25024" />
      <path
         d="m 100.71177,44.602741 q -2.183069,0 -3.711215,-1.528146 -1.528147,-1.528147 -1.528147,-3.711214 v -15.71808 q 0,-2.183067 1.528147,-3.711214 1.528146,-1.528146 3.711215,-1.528146 h 15.71808 q 2.14668,0 3.67483,1.528146 1.56453,1.528147 1.56453,3.711214 v 2.255835 h -5.27575 v -1.018764 q 0,-1.091533 -0.0728,-1.164302 -0.0728,-0.07277 -1.16431,-0.07277 h -13.24394 q -1.09153,0 -1.1643,0.07277 -0.0364,0.07277 -0.0364,1.164302 V 38.12631 q 0,1.091533 0.0364,1.164302 0.0728,0.07277 1.1643,0.07277 h 13.24394 q 1.09154,0 1.16431,-0.07277 0.0728,-0.07277 0.0728,-1.164302 v -3.310985 h -5.82151 v -5.275744 h 11.09726 v 9.8238 q 0,2.183067 -1.56453,3.711214 -1.52815,1.528146 -3.67483,1.528146 z"
         style="font-style:normal;font-variant:normal;font-weight:800;font-stretch:normal;font-size:36.38444519px;font-family:Orbitron;-inkscape-font-specification:'Orbitron, Ultra-Bold';font-variant-ligatures:normal;font-variant-caps:normal;font-variant-numeric:normal;font-feature-settings:normal;text-align:center;writing-mode:lr-tb;text-anchor:middle;fill:#ffffff;fill-opacity:1;stroke:#ffffff;stroke-width:0.26153353;stroke-miterlimit:4;stroke-dasharray:none;stroke-opacity:1"
         id="path25026" />
    </g>
  </g>
</svg>
