<svg width="32" height="32" viewBox="0 0 32 32" fill="none" xmlns="http://www.w3.org/2000/svg">
<circle opacity="0.1" cx="16" cy="16" r="16" fill="white"/>
<path fill-rule="evenodd" clip-rule="evenodd" d="M24.5929 13.7708C25.9236 13.7708 27 14.8472 27 16.1779C27 17.1618 26.409 18.0038 25.5736 18.3802C25.6099 18.6179 25.6297 18.8589 25.6297 19.1033C25.6297 22.8079 21.3176 25.8093 15.9983 25.8093C10.6791 25.8093 6.36694 22.8079 6.36694 19.1033C6.36694 18.8556 6.38675 18.6114 6.423 18.3735C5.58444 17.9972 5 17.1551 5 16.1779C5 14.8504 6.0764 13.7708 7.40709 13.7708C8.05414 13.7708 8.63858 14.0251 9.07112 14.4412C10.7419 13.2361 13.0531 12.4667 15.6252 12.4007C15.6252 12.3676 16.8271 6.64221 16.8271 6.64221C16.8501 6.52992 16.9163 6.43425 17.0119 6.37148C17.1078 6.30887 17.2233 6.28889 17.3356 6.31206L21.3374 7.16388C21.618 6.59605 22.1959 6.20312 22.8728 6.20312C23.8237 6.20312 24.5931 6.97253 24.5931 7.92339C24.5931 8.87424 23.8237 9.64365 22.8728 9.64365C21.9515 9.64365 21.2054 8.91721 21.1625 8.00597L17.5799 7.2431L16.4837 12.4039C19.0097 12.493 21.2779 13.2591 22.9223 14.4478C23.3547 14.0283 23.9425 13.7708 24.5929 13.7708ZM18.0586 17.898C18.0586 18.8457 18.8312 19.6183 19.7789 19.6183C20.7265 19.6183 21.4991 18.8457 21.4991 17.898C21.4991 16.9503 20.7265 16.1777 19.7789 16.1777C18.8312 16.1777 18.0586 16.9503 18.0586 17.898ZM20.0827 22.4415C18.9072 23.6136 16.6586 23.7061 15.9983 23.7061C15.338 23.7061 13.0861 23.6136 11.9139 22.4415C11.739 22.2664 11.739 21.9858 11.9139 21.8107C12.089 21.6358 12.3696 21.6358 12.5447 21.8107C13.2842 22.5504 14.8658 22.8146 15.9983 22.8146C17.1275 22.8146 18.7123 22.5504 19.4521 21.8107C19.6269 21.6358 19.9076 21.6358 20.0827 21.8107C20.2544 21.9858 20.2544 22.2664 20.0827 22.4415ZM12.211 16.1788C11.2633 16.1788 10.4907 16.9514 10.4907 17.8991C10.4907 18.8466 11.2633 19.6192 12.211 19.6194C13.1586 19.6194 13.9312 18.8466 13.9312 17.8991C13.9312 16.9514 13.1586 16.1788 12.211 16.1788Z" fill="white"/>
</svg>
