<svg width="520" height="520" viewBox="0 0 520 520" fill="none" xmlns="http://www.w3.org/2000/svg">
<path d="M513.733 309.626C513.374 304.13 509.208 298.416 501.398 293.912L282.456 163.406C267.508 154.784 249.1 158.054 236.162 165.533L15.2175 294.242C9.03977 297.813 6.19009 302.655 6.51976 307.678C6.87879 313.174 11.0447 318.887 18.8551 323.392L233.593 449.694C248.541 458.316 271.147 459.244 284.087 451.767L505.032 323.057C511.21 319.486 514.059 314.644 513.729 309.621L513.733 309.626Z" fill="url(#paint0_linear)"/>
<path d="M475.038 285.596L276.213 170.982C260.479 161.902 236.674 160.925 223.046 168.792L16.6851 288.004C10.175 291.753 7.16331 296.859 7.52058 302.144C7.9023 307.922 12.2815 313.951 20.5057 318.687L219.269 433.363C235.015 442.444 258.808 443.421 272.436 435.554L478.818 316.3C485.315 312.539 488.339 307.433 487.97 302.148C487.637 296.365 483.258 290.341 475.034 285.605L475.038 285.596Z" fill="#02A97B"/>
<path d="M276.214 242.385C260.479 233.315 236.675 232.328 223.047 240.207L88.3067 318.034L7.50391 278.78V298.49C7.90838 304.268 12.2648 310.297 20.514 314.985L219.36 429.724C228.101 434.483 237.867 437.048 247.819 437.199C257.055 437.425 265.969 435.688 272.527 431.902L478.826 312.607C485.324 308.846 488.348 303.752 487.978 298.467V278.781L407.414 317.987L276.214 242.385Z" fill="url(#paint1_linear)"/>
<path d="M475.038 262.242L276.275 147.565C260.54 138.485 236.736 137.508 223.109 145.375L16.6851 264.65C10.175 268.398 7.16331 273.504 7.52058 278.789C7.9023 284.567 12.2815 290.596 20.5057 295.332L219.269 410.009C235.015 419.089 258.808 420.066 272.436 412.199L478.818 292.945C485.315 289.184 488.339 284.078 487.97 278.793C487.637 273.01 483.258 266.986 475.034 262.245L475.038 262.242Z" fill="#F0F9F3"/>
<path d="M475.038 259.875L274.791 145.977C259.056 136.907 236.703 135.111 223.052 142.978L16.691 262.263C10.1809 266.024 7.16917 271.13 7.52644 276.415C7.90816 282.193 12.2874 288.209 20.5116 292.958L219.275 407.634C235.021 416.715 258.814 417.692 272.441 409.825L478.823 290.55C485.321 286.801 488.345 281.696 487.976 276.411C487.643 270.626 483.264 264.599 475.039 259.872L475.038 259.875Z" fill="url(#paint2_linear)"/>
<path d="M403.16 280.758L339.946 245.907C331.824 241.219 319.54 240.709 312.506 244.77L195.34 311.748C188.307 315.808 189.189 322.901 197.31 327.59L257.041 364.061C265.162 368.75 273.711 372.772 280.745 368.712L315.866 348.391L405.951 296.532C412.983 292.472 411.285 285.447 403.164 280.759L403.16 280.758Z" fill="#90CFCF" stroke="white" stroke-width="1.533"/>
<path d="M348.792 208.042L429.967 254.988L429.998 282.565L409.17 294.589L327.863 247.203L327.981 241.402L333.697 238.17L333.471 230.63L338.911 227.24L338.733 220L342.094 222.069L341.829 212.073L348.792 208.042Z" fill="#0EB188"/>
<path d="M341.851 212.07L348.815 208.037L348.903 235.858L327.887 247.199L328.004 241.399L333.72 238.166L333.495 230.626L338.934 227.236L338.757 219.997L341.837 217.812L341.851 212.07Z" fill="url(#paint3_linear)"/>
<path d="M342.37 224.674L427.881 274.258C427.922 275.928 427.401 283.625 427.881 279.921L342.355 230.417L342.37 224.674Z" fill="#0B8869"/>
<path d="M338.766 232.515L423.489 281.349L427.858 279.914L342.431 230.432L338.766 232.515Z" fill="#2C5B6F"/>
<path d="M415.684 272.807L409.847 269.487L406.497 271.571L412.333 274.892L415.684 272.807Z" fill="#322C5F"/>
<path d="M415.664 269.137L409.827 265.817L409.847 269.487L415.684 272.807L415.664 269.137Z" fill="#201C3E"/>
<path d="M406.131 267.292L400.294 263.972L396.944 266.055L402.78 269.377L406.131 267.292Z" fill="#322C5F"/>
<path d="M406.109 263.621L400.273 260.301L400.292 263.971L406.129 267.291L406.109 263.621Z" fill="#201C3E"/>
<path d="M396.85 261.948L391.013 258.628L387.663 260.711L393.499 264.033L396.85 261.948Z" fill="#322C5F"/>
<path d="M396.83 258.277L390.993 254.957L391.013 258.627L396.85 261.947L396.83 258.277Z" fill="#201C3E"/>
<path d="M387.297 256.433L381.46 253.113L378.11 255.196L383.946 258.518L387.297 256.433Z" fill="#322C5F"/>
<path d="M387.277 252.762L381.441 249.442L381.46 253.112L387.297 256.432L387.277 252.762Z" fill="#201C3E"/>
<path d="M377.744 250.872L371.907 247.552L368.558 249.636L374.394 252.957L377.744 250.872Z" fill="#322C5F"/>
<path d="M377.725 247.202L371.888 243.882L371.907 247.552L377.744 250.872L377.725 247.202Z" fill="#201C3E"/>
<path d="M368.191 245.366L362.354 242.046L359.005 244.129L364.841 247.451L368.191 245.366Z" fill="#322C5F"/>
<path d="M368.172 241.695L362.335 238.375L362.354 242.045L368.191 245.365L368.172 241.695Z" fill="#201C3E"/>
<path d="M358.908 240.013L353.071 236.693L349.722 238.776L355.558 242.098L358.908 240.013Z" fill="#322C5F"/>
<path d="M358.889 236.342L353.052 233.022L353.071 236.692L358.908 240.012L358.889 236.342Z" fill="#201C3E"/>
<path d="M349.355 234.507L343.519 231.187L340.169 233.27L346.005 236.592L349.355 234.507Z" fill="#322C5F"/>
<path d="M349.336 230.836L343.499 227.516L343.519 231.186L349.355 234.506L349.336 230.836Z" fill="#201C3E"/>
<path d="M341.852 212.07L429.868 263.055C429.908 264.725 429.387 272.422 429.868 268.718L341.838 217.813L341.852 212.07Z" fill="#0B8869"/>
<path d="M338.699 220.109L425.468 270.15L429.836 268.715L341.831 217.819L338.699 220.109Z" fill="#2C5B6F"/>
<path d="M417.611 261.609L411.774 258.289L408.425 260.372L414.261 263.694L417.611 261.609Z" fill="#322C5F"/>
<path d="M417.592 257.938L411.755 254.618L411.774 258.288L417.611 261.608L417.592 257.938Z" fill="#201C3E"/>
<path d="M408.059 256.093L402.222 252.773L398.872 254.857L404.708 258.178L408.059 256.093Z" fill="#322C5F"/>
<path d="M408.037 252.423L402.2 249.103L402.22 252.773L408.057 256.093L408.037 252.423Z" fill="#201C3E"/>
<path d="M398.777 250.749L392.94 247.429L389.591 249.513L395.427 252.834L398.777 250.749Z" fill="#322C5F"/>
<path d="M398.758 247.079L392.921 243.758L392.94 247.429L398.777 250.749L398.758 247.079Z" fill="#201C3E"/>
<path d="M389.225 245.234L383.388 241.914L380.038 243.997L385.874 247.319L389.225 245.234Z" fill="#322C5F"/>
<path d="M389.205 241.563L383.368 238.243L383.388 241.913L389.225 245.233L389.205 241.563Z" fill="#201C3E"/>
<path d="M379.672 239.674L373.835 236.354L370.485 238.437L376.321 241.759L379.672 239.674Z" fill="#322C5F"/>
<path d="M379.652 236.003L373.816 232.683L373.835 236.353L379.672 239.673L379.652 236.003Z" fill="#201C3E"/>
<path d="M370.119 234.167L364.282 230.847L360.933 232.931L366.769 236.252L370.119 234.167Z" fill="#322C5F"/>
<path d="M370.1 230.497L364.263 227.177L364.282 230.847L370.119 234.167L370.1 230.497Z" fill="#201C3E"/>
<path d="M360.836 228.814L354.999 225.494L351.649 227.578L357.485 230.899L360.836 228.814Z" fill="#322C5F"/>
<path d="M360.817 225.144L354.98 221.824L354.999 225.494L360.836 228.814L360.817 225.144Z" fill="#201C3E"/>
<path d="M351.285 223.308L345.448 219.988L342.099 222.071L347.935 225.393L351.285 223.308Z" fill="#322C5F"/>
<path d="M351.266 219.637L345.429 216.317L345.448 219.987L351.285 223.307L351.266 219.637Z" fill="#201C3E"/>
<path d="M342.37 237.291L419.697 282.153C419.738 283.823 419.217 291.52 419.697 287.816L342.355 243.033L342.37 237.291Z" fill="#0B8869"/>
<path d="M338.766 245.131L415.306 289.243L419.674 287.809L342.431 243.048L338.766 245.131Z" fill="#2C5B6F"/>
<path d="M415.684 285.424L409.847 282.104L406.497 284.187L412.333 287.509L415.684 285.424Z" fill="#322C5F"/>
<path d="M415.664 281.753L409.827 278.433L409.847 282.103L415.684 285.423L415.664 281.753Z" fill="#201C3E"/>
<path d="M406.131 279.908L400.294 276.588L396.944 278.672L402.78 281.993L406.131 279.908Z" fill="#322C5F"/>
<path d="M406.109 276.238L400.273 272.918L400.292 276.588L406.129 279.908L406.109 276.238Z" fill="#201C3E"/>
<path d="M396.85 274.564L391.013 271.244L387.663 273.328L393.499 276.649L396.85 274.564Z" fill="#322C5F"/>
<path d="M396.83 270.894L390.993 267.574L391.013 271.244L396.85 274.564L396.83 270.894Z" fill="#201C3E"/>
<path d="M387.297 269.049L381.46 265.729L378.11 267.812L383.946 271.134L387.297 269.049Z" fill="#322C5F"/>
<path d="M387.277 265.378L381.441 262.058L381.46 265.728L387.297 269.048L387.277 265.378Z" fill="#201C3E"/>
<path d="M377.744 263.489L371.907 260.169L368.558 262.252L374.394 265.574L377.744 263.489Z" fill="#322C5F"/>
<path d="M377.725 259.818L371.888 256.498L371.907 260.168L377.744 263.488L377.725 259.818Z" fill="#201C3E"/>
<path d="M368.191 257.982L362.354 254.662L359.005 256.746L364.841 260.067L368.191 257.982Z" fill="#322C5F"/>
<path d="M368.172 254.312L362.335 250.992L362.354 254.662L368.191 257.982L368.172 254.312Z" fill="#201C3E"/>
<path d="M358.908 252.629L353.071 249.309L349.722 251.393L355.558 254.714L358.908 252.629Z" fill="#322C5F"/>
<path d="M358.889 248.959L353.052 245.639L353.071 249.309L358.908 252.629L358.889 248.959Z" fill="#201C3E"/>
<path d="M349.355 247.123L343.519 243.803L340.169 245.886L346.005 249.208L349.355 247.123Z" fill="#322C5F"/>
<path d="M349.336 243.452L343.499 240.132L343.519 243.802L349.355 247.122L349.336 243.452Z" fill="#201C3E"/>
<path d="M422.959 259.022L429.923 254.989L429.954 282.566L409.126 294.59L409.111 288.351L414.827 285.118L414.602 277.578L420.041 274.188L419.864 266.949L422.944 264.764L422.959 259.022Z" fill="url(#paint4_linear)"/>
<path d="M184.277 312.801L268.797 361.731L272.369 359.765L187.41 310.512L184.277 312.801Z" fill="#0EB188"/>
<path d="M189.775 317.929L274.295 366.859L277.867 364.893L192.908 315.64L189.775 317.929Z" fill="#0EB188"/>
<path d="M183.557 313.279L268.077 362.209L271.648 360.243L186.689 310.99L183.557 313.279Z" fill="#2C5B6F"/>
<path d="M188.062 318.893L272.582 367.823L276.154 365.857L191.195 316.604L188.062 318.893Z" fill="#2C5B6F"/>
<path d="M176.799 307.863L257.144 354.587L257.39 382.344L176.873 335.858L176.799 307.863Z" fill="#0EB188"/>
<path d="M179.771 308.007L264.292 356.937L267.863 354.971L182.904 305.718L179.771 308.007Z" fill="#2C5B6F"/>
<path d="M264.124 350.552L257.16 354.585V382.484L277.988 370.586L277.926 364.891L272.619 367.818L272.393 359.765L268.076 362.208L267.899 354.969L264.327 356.935L264.124 350.552Z" fill="url(#paint5_linear)"/>
<path d="M183.737 303.834L264.082 350.558L257.118 354.591L176.602 308.105L183.737 303.834Z" fill="#249C7F"/>
<path d="M356.11 296.15L316.243 272.312C311.098 269.342 303.317 269.019 298.861 271.591L241.974 304.047C237.519 306.62 238.078 311.112 243.222 314.083L282.44 336.724C287.584 339.695 293.919 342.549 298.375 339.977L357.359 306.186C361.814 303.613 361.256 299.12 356.111 296.15L356.11 296.15Z" fill="#B5DFDF"/>
<path d="M285.914 325.526L323.494 304.012L325.996 305.461L288.416 326.975L285.914 325.526Z" fill="#B5DFDF"/>
<path d="M139.415 300.758L60.1235 253.421L59.6836 247.651L139.259 294.177L139.415 300.758Z" fill="#75CBBB"/>
<path d="M139.259 291.2L55.9501 242.545L55.9199 245.5L139.259 294.172V291.2Z" fill="#44A48B"/>
<path d="M213.037 172.879L213.415 82.186L229.111 81.5104L267.675 103.776L268.75 206.629L213.037 172.879Z" fill="#44A48B"/>
<path d="M248.179 200.637L121.236 273.927V199.57L248.179 126.28V200.637Z" fill="#44A48B"/>
<path d="M65.2812 242.039V167.682L119.541 199.01V273.367L65.2812 242.039Z" fill="#44A48B"/>
<path d="M263.738 102.638L271.617 96.0698L219.133 65.6987L65.5039 154.857L118.013 184.963L263.738 102.638Z" fill="#A2DCD2"/>
<path d="M250.801 108.638V124.762L121.246 199.578V183.459L250.801 108.638Z" fill="#44A48B"/>
<path d="M55.9238 242.559L66.9822 236.175V242.559L121.262 273.897L248.183 200.643L246.921 189.839L275.392 206.329L133.526 288.281L55.9238 242.559Z" fill="#D8F0EC"/>
<path d="M121.246 209.076V210.798L248.191 137.597V135.874L121.246 209.076Z" fill="#A9DFD6"/>
<path d="M121.246 199.68V201.401L248.191 128.202V126.479L121.246 199.68Z" fill="#A9DFD6"/>
<path d="M121.246 218.566V220.288L248.191 147.087V145.364L121.246 218.566Z" fill="#A9DFD6"/>
<path d="M121.246 228.069V229.791L248.191 156.59V154.868L121.246 228.069Z" fill="#A9DFD6"/>
<path d="M121.246 237.465V239.187L248.191 165.986V164.264L121.246 237.465Z" fill="#A9DFD6"/>
<path d="M121.246 246.861V248.583L248.191 175.382V173.66L121.246 246.861Z" fill="#A9DFD6"/>
<path d="M121.246 256.257V257.979L248.191 184.778V183.056L121.246 256.257Z" fill="#A9DFD6"/>
<path d="M121.246 265.653V267.375L248.191 194.175V192.453L121.246 265.653Z" fill="#A9DFD6"/>
<path d="M121.267 256.246V257.967L66.9824 226.665V224.942L121.267 256.246Z" fill="#028E67"/>
<path d="M121.267 265.647V267.369L66.9824 236.066V234.345L121.267 265.647Z" fill="#028E67"/>
<path d="M121.267 246.761V248.483L66.9824 217.18V215.458L121.267 246.761Z" fill="#028E67"/>
<path d="M121.267 237.266V238.988L66.9824 207.685V205.963L121.267 237.266Z" fill="#028E67"/>
<path d="M121.267 227.864V229.586L66.9824 198.283V196.562L121.267 227.864Z" fill="#028E67"/>
<path d="M121.267 218.462V220.185L66.9824 188.882V187.159L121.267 218.462Z" fill="#028E67"/>
<path d="M121.267 209.071V210.793L66.9824 179.491V177.769L121.267 209.071Z" fill="#028E67"/>
<path d="M121.267 199.68V201.402L66.9824 170.1V168.378L121.267 199.68Z" fill="#028E67"/>
<path d="M66.9805 242.601V168.244L121.24 199.572V273.929L66.9805 242.601Z" fill="#388973"/>
<path d="M234.987 132.226V209.397L232.377 210.883V133.712L234.987 132.226Z" fill="white"/>
<path d="M234.988 132.226L233.877 131.579L231.268 133.065L232.378 133.713L234.988 132.226Z" fill="white"/>
<path d="M231.277 133.073V210.243L232.388 210.891V133.72L231.277 133.073Z" fill="#56C0AE"/>
<path d="M198.051 154.454V231.624L195.441 233.11V155.94L198.051 154.454Z" fill="white"/>
<path d="M198.051 154.454L196.94 153.806L194.33 155.292L195.441 155.94L198.051 154.454Z" fill="white"/>
<path d="M194.328 155.287V232.458L195.439 233.105V155.935L194.328 155.287Z" fill="#56C0AE"/>
<path d="M159.393 176.072V253.243L156.783 254.729V177.559L159.393 176.072Z" fill="white"/>
<path d="M159.393 176.073L158.282 175.425L155.672 176.912L156.783 177.559L159.393 176.073Z" fill="white"/>
<path d="M155.67 176.906V254.076L156.781 254.724V177.553L155.67 176.906Z" fill="#56C0AE"/>
<path d="M121.227 190.133L267.17 105.589V109.741L121.227 194.285V190.133Z" fill="white"/>
<path d="M275.395 206.326L138.799 285.728L139.422 300.76L280.615 219.034L281.088 209.264L275.395 206.326Z" fill="#A6DDD4"/>
<path d="M275.395 206.326L133.529 288.28L138.766 291.414L281.09 209.263L275.395 206.326Z" fill="white"/>
<path d="M136.929 191.071L138.053 282.003C134.945 281.549 126.713 276.456 126.532 274.595L125.795 190.567L136.929 191.071Z" fill="url(#paint6_linear)"/>
<path d="M100.25 187.568L100.457 261.559L102.69 263.192L102.604 188.837L100.25 187.568Z" fill="#A9DFD6"/>
<path d="M174.71 169.464L175.834 260.396C172.727 259.942 164.495 254.849 164.313 252.988L163.576 168.959L174.71 169.464Z" fill="url(#paint7_linear)"/>
<path d="M212.757 147.578L213.881 238.51C210.773 238.056 202.403 232.963 202.221 231.102L201.484 147.074L212.757 147.578Z" fill="url(#paint8_linear)"/>
<path d="M251.105 139.403L251.722 216.708C248.467 216.254 240.327 211.078 240.137 209.217L239.391 125.189L251.105 139.403Z" fill="url(#paint9_linear)"/>
<path d="M80.2656 176.107L80.3512 250.081L82.962 252L82.6948 177.45L80.2656 176.107Z" fill="#A9DFD6"/>
<path d="M265.875 208.179C265.84 203.448 265.358 129.814 265.358 129.814L265.732 129.596L266.336 129.244C266.336 129.244 266.226 124.835 266.272 124.808C266.319 124.782 266.527 124.793 266.736 124.834C267.08 124.901 267.342 124.777 269.474 123.546C269.474 123.546 271.304 122.486 272.096 121.575C272.751 120.821 273.396 119.84 273.669 118.899C274.14 117.278 274.221 115.445 273.543 114.61C272.813 113.713 271.272 114.041 269.913 114.591C269.626 114.708 263.155 120.018 259.435 122.212C255.021 124.816 245.408 128.679 245.504 128.718C244.772 129.172 243.112 131.183 242.508 132.722C241.946 134.157 241.966 135.649 242.275 136.707C242.475 137.391 243.031 137.712 243.554 137.984C243.671 138.045 245.093 137.57 246.464 136.805C248.703 135.556 248.876 135.388 249.381 134.852L250.033 134.16L250.037 138.565C250.037 138.565 250.3 138.585 250.47 138.442C250.689 138.26 250.795 138.263 250.857 138.454C250.904 138.599 251.413 209.392 251.414 215.689C251.414 219.622 266.006 204.754 265.874 208.178L265.875 208.179Z" fill="#A6DDD4" stroke="#028E67" stroke-width="0.257062"/>
<path d="M264.867 130.884L251.254 138.744L252.907 215.751C252.907 215.751 256.985 215.114 258.789 214.187C261.633 212.725 266.189 208.082 266.189 208.082L264.867 130.884Z" fill="white"/>
<path d="M263.281 133.632L253.104 139.508L253.573 214.879C253.573 214.879 256.833 214.245 258.282 213.481C260.433 212.348 263.947 208.889 263.947 208.889L263.281 133.632Z" fill="#A6DDD4"/>
<path d="M261.268 135.556L259 136.866L259.613 212.423L261.832 210.871L261.268 135.556Z" fill="#FBFBFB"/>
<path d="M257.198 137.907L254.929 139.216L255.449 214.558L257.762 213.708L257.198 137.907Z" fill="#FBFBFB"/>
<path d="M267.629 120.476C267.629 121.235 267.895 121.81 268.367 122.074C268.839 122.338 269.479 122.27 270.147 121.884C270.814 121.499 271.455 120.828 271.927 120.018C272.399 119.209 272.664 118.328 272.664 117.569C272.664 116.811 272.399 116.236 271.927 115.972C271.455 115.708 270.814 115.776 270.147 116.162C269.479 116.547 268.839 117.218 268.367 118.027C267.895 118.836 267.629 119.717 267.629 120.476Z" fill="#44A48B"/>
<path d="M267.893 119.876C267.893 120.456 268.096 120.895 268.456 121.097C268.817 121.298 269.306 121.246 269.816 120.952C270.326 120.657 270.815 120.145 271.175 119.527C271.536 118.909 271.738 118.236 271.738 117.656C271.738 117.077 271.536 116.638 271.175 116.436C270.815 116.235 270.326 116.287 269.816 116.581C269.563 116.727 269.313 116.928 269.08 117.172C268.847 117.417 268.635 117.7 268.456 118.006C268.278 118.312 268.136 118.635 268.039 118.956C267.943 119.277 267.893 119.59 267.893 119.876Z" fill="white"/>
<path d="M248.08 131.763C248.08 132.521 247.815 133.402 247.343 134.212C246.871 135.021 246.23 135.692 245.563 136.077C244.895 136.463 244.255 136.531 243.783 136.267C243.311 136.003 243.045 135.428 243.045 134.669C243.045 133.911 243.311 133.03 243.783 132.22C244.255 131.411 244.895 130.74 245.563 130.355C246.23 129.969 246.871 129.901 247.343 130.165C247.815 130.429 248.08 131.004 248.08 131.763Z" fill="#44A48B"/>
<path d="M247.816 131.467C247.816 132.047 247.614 132.72 247.253 133.338C246.893 133.956 246.404 134.468 245.894 134.763C245.384 135.057 244.895 135.109 244.534 134.908C244.174 134.706 243.971 134.267 243.971 133.688C243.971 133.108 244.174 132.435 244.534 131.817C244.895 131.199 245.384 130.687 245.894 130.392C246.404 130.098 246.893 130.046 247.253 130.247C247.614 130.449 247.816 130.888 247.816 131.467Z" fill="white"/>
<path d="M250.018 134.04L250.047 129.75C249.513 130.084 248.978 130.418 248.683 130.983C248.388 131.547 248.331 132.343 248.209 133.113C248.087 133.883 247.899 134.627 247.514 135.269C247.128 135.912 246.546 136.452 245.963 136.992C246.528 136.716 247.092 136.441 247.694 136.069C248.295 135.696 248.933 135.226 249.326 134.872C249.72 134.517 249.869 134.279 250.018 134.04L250.018 134.04Z" fill="white"/>
<path d="M266.064 120.655C266.511 120.398 266.957 120.14 267.208 120.376C267.459 120.613 267.516 121.343 267.638 121.972C267.76 122.602 267.948 123.129 268.333 123.326C268.719 123.523 269.301 123.39 269.884 123.257C268.967 123.876 268.051 124.494 267.432 124.742C266.813 124.991 266.496 124.87 266.177 124.749L266.064 120.655L266.064 120.655Z" fill="white"/>
<path d="M262.656 130.483C262.768 128.829 262.904 126.807 263.142 126.042C263.38 125.276 263.993 124.891 264.298 125.316C264.604 125.74 264.784 127.664 264.929 129.209L262.656 130.483L262.656 130.483Z" fill="white"/>
<path d="M258.957 132.619C259.068 130.965 259.205 128.944 259.443 128.178C259.681 127.412 260.294 127.028 260.599 127.452C260.904 127.876 261.085 129.801 261.23 131.345L258.957 132.619L258.957 132.619Z" fill="white"/>
<path d="M255.256 134.755C255.367 133.101 255.503 131.08 255.742 130.314C255.98 129.548 256.592 129.164 256.898 129.588C257.203 130.012 257.384 131.937 257.529 133.481L255.256 134.755L255.256 134.755Z" fill="white"/>
<path d="M251.555 136.893C251.666 135.239 251.802 133.217 252.04 132.452C252.279 131.686 252.891 131.301 253.197 131.726C253.502 132.15 253.683 134.074 253.828 135.619L251.555 136.893L251.555 136.893Z" fill="white"/>
<path d="M190.066 251.951C190.032 247.22 189.55 173.586 189.55 173.586L189.923 173.367L190.528 173.015C190.528 173.015 190.417 168.607 190.463 168.58C190.51 168.553 190.719 168.565 190.928 168.606C191.271 168.672 191.534 168.549 193.665 167.318C193.665 167.318 195.495 166.258 196.287 165.347C196.943 164.592 197.587 163.612 197.861 162.67C198.331 161.05 198.413 159.216 197.734 158.382C197.005 157.485 195.463 157.813 194.104 158.363C193.817 158.48 187.847 163.856 184.295 165.984C179.725 168.723 169.599 172.451 169.695 172.49C168.964 172.944 167.303 174.955 166.7 176.494C166.137 177.929 166.157 179.421 166.466 180.479C166.667 181.163 167.223 181.484 167.746 181.756C167.863 181.817 169.284 181.342 170.655 180.577C172.894 179.328 173.067 179.16 173.573 178.624L174.225 177.932L174.229 182.337C174.229 182.337 174.491 182.356 174.662 182.214C174.88 182.032 174.986 182.035 175.049 182.226C175.096 182.371 175.605 253.163 175.605 259.46C175.605 263.394 190.198 248.526 190.066 251.95L190.066 251.951Z" fill="#A6DDD4" stroke="#028E67" stroke-width="0.313482"/>
<path d="M189.057 174.656L175.445 182.516L176.71 259.779C176.71 259.779 180.787 259.142 182.591 258.214C185.436 256.752 189.992 252.11 189.992 252.11L189.057 174.656Z" fill="white"/>
<path d="M187.472 177.404L177.296 183.28L177.764 258.651C177.764 258.651 181.025 258.016 182.474 257.253C184.625 256.12 188.139 252.661 188.139 252.661L187.472 177.404Z" fill="#A6DDD4"/>
<path d="M185.46 179.328L183.191 180.638L183.804 256.194L186.023 254.643L185.46 179.328Z" fill="#FBFBFB"/>
<path d="M181.389 181.678L179.121 182.988L179.64 258.33L181.953 257.48L181.389 181.678Z" fill="#FBFBFB"/>
<path d="M191.821 164.248C191.821 165.007 192.086 165.582 192.558 165.846C193.03 166.11 193.671 166.041 194.338 165.656C195.006 165.271 195.646 164.599 196.118 163.79C196.59 162.981 196.855 162.1 196.855 161.341C196.855 160.582 196.59 160.008 196.118 159.744C195.646 159.48 195.006 159.548 194.338 159.933C193.671 160.319 193.03 160.99 192.558 161.799C192.086 162.608 191.821 163.489 191.821 164.248Z" fill="#44A48B"/>
<path d="M192.084 163.648C192.084 164.228 192.287 164.667 192.648 164.868C193.008 165.07 193.497 165.018 194.007 164.724C194.517 164.429 195.006 163.917 195.367 163.299C195.727 162.681 195.93 162.008 195.93 161.428C195.93 160.849 195.727 160.41 195.367 160.208C195.006 160.006 194.517 160.059 194.007 160.353C193.755 160.499 193.505 160.7 193.271 160.944C193.038 161.189 192.826 161.472 192.648 161.778C192.469 162.084 192.327 162.407 192.231 162.728C192.134 163.048 192.084 163.361 192.084 163.648Z" fill="white"/>
<path d="M172.271 175.534C172.271 176.293 172.006 177.174 171.534 177.983C171.062 178.793 170.422 179.464 169.754 179.849C169.087 180.235 168.446 180.303 167.974 180.039C167.502 179.775 167.237 179.2 167.237 178.441C167.237 177.682 167.502 176.801 167.974 175.992C168.446 175.183 169.087 174.512 169.754 174.127C170.422 173.741 171.062 173.673 171.534 173.937C172.006 174.201 172.271 174.776 172.271 175.534Z" fill="#44A48B"/>
<path d="M172.01 175.239C172.01 175.819 171.807 176.492 171.447 177.11C171.086 177.728 170.597 178.24 170.087 178.535C169.577 178.829 169.088 178.881 168.728 178.68C168.367 178.478 168.165 178.039 168.165 177.459C168.165 176.88 168.367 176.207 168.728 175.589C169.088 174.971 169.577 174.458 170.087 174.164C170.597 173.87 171.086 173.817 171.447 174.019C171.807 174.221 172.01 174.66 172.01 175.239Z" fill="white"/>
<path d="M174.209 177.812L174.238 173.522C173.704 173.856 173.169 174.19 172.874 174.755C172.579 175.319 172.523 176.115 172.401 176.885C172.279 177.655 172.091 178.399 171.705 179.041C171.32 179.684 170.737 180.223 170.154 180.763C170.719 180.488 171.283 180.213 171.885 179.84C172.487 179.468 173.124 178.998 173.518 178.644C173.911 178.289 174.06 178.051 174.209 177.812L174.209 177.812Z" fill="#F3F9F8"/>
<path d="M190.256 164.427C190.702 164.17 191.149 163.912 191.4 164.148C191.651 164.385 191.707 165.115 191.829 165.744C191.951 166.373 192.139 166.901 192.524 167.098C192.91 167.295 193.493 167.162 194.075 167.029C193.158 167.648 192.242 168.265 191.623 168.514C191.005 168.763 190.687 168.642 190.369 168.521L190.256 164.427L190.256 164.427Z" fill="#F3F9F8"/>
<path d="M186.848 174.255C186.959 172.601 187.095 170.579 187.333 169.814C187.572 169.048 188.184 168.663 188.49 169.088C188.795 169.512 188.976 171.436 189.121 172.981L186.848 174.255L186.848 174.255Z" fill="#F3F9F8"/>
<path d="M183.148 176.391C183.26 174.737 183.396 172.715 183.634 171.95C183.872 171.184 184.485 170.799 184.79 171.224C185.096 171.648 185.276 173.572 185.421 175.117L183.148 176.391L183.148 176.391Z" fill="#F3F9F8"/>
<path d="M179.447 178.527C179.559 176.873 179.695 174.852 179.933 174.086C180.171 173.32 180.784 172.935 181.089 173.36C181.395 173.784 181.575 175.709 181.72 177.253L179.447 178.527L179.447 178.527Z" fill="#F3F9F8"/>
<path d="M175.746 180.664C175.858 179.011 175.994 176.989 176.232 176.223C176.47 175.458 177.083 175.073 177.388 175.497C177.693 175.922 177.874 177.846 178.019 179.39L175.746 180.665L175.746 180.664Z" fill="#F3F9F8"/>
<path d="M227.97 230.065C227.936 225.334 227.454 151.7 227.454 151.7L227.827 151.482L228.432 151.13C228.432 151.13 228.321 146.721 228.368 146.694C228.414 146.668 228.623 146.679 228.832 146.72C229.175 146.787 229.438 146.663 231.569 145.432C231.569 145.432 233.4 144.372 234.191 143.461C234.847 142.707 235.492 141.726 235.765 140.785C236.236 139.164 236.317 137.33 235.639 136.496C234.909 135.599 233.367 135.927 232.009 136.477C231.721 136.594 224.841 142.316 220.863 144.633C216.673 147.073 207.504 150.565 207.6 150.604C206.868 151.058 205.208 153.069 204.604 154.608C204.041 156.043 204.062 157.535 204.371 158.593C204.571 159.277 205.127 159.598 205.65 159.87C205.767 159.931 207.189 159.456 208.559 158.691C210.798 157.442 210.972 157.274 211.477 156.738L212.129 156.046L212.133 160.451C212.133 160.451 212.395 160.47 212.566 160.328C212.785 160.146 213.425 173.777 213.487 173.968C213.535 174.113 213.509 231.279 213.509 237.576C213.51 241.509 228.102 226.641 227.97 230.065L227.97 230.065Z" fill="#A6DDD4" stroke="#028E67" stroke-width="0.257062"/>
<path d="M226.963 152.77L213.35 160.63L215.003 237.637C215.003 237.637 219.08 237 220.884 236.072C223.728 234.61 228.285 229.968 228.285 229.968L226.963 152.77Z" fill="white"/>
<path d="M225.375 155.518L215.199 161.394L215.667 236.765C215.667 236.765 218.909 236.093 220.377 235.367C222.611 234.263 226.42 230.964 226.42 230.964L225.375 155.518Z" fill="#A6DDD4"/>
<path d="M223.364 157.442L221.095 158.752L221.708 234.308L223.928 232.757L223.364 157.442Z" fill="#FBFBFB"/>
<path d="M219.294 159.793L217.025 161.102L217.545 236.444L219.857 235.594L219.294 159.793Z" fill="#FBFBFB"/>
<path d="M229.725 142.362C229.725 143.121 229.99 143.696 230.462 143.96C230.935 144.224 231.575 144.156 232.242 143.77C232.91 143.385 233.55 142.713 234.022 141.904C234.495 141.095 234.76 140.214 234.76 139.455C234.76 138.697 234.495 138.122 234.022 137.858C233.55 137.594 232.91 137.662 232.242 138.047C231.575 138.433 230.935 139.104 230.462 139.913C229.99 140.722 229.725 141.603 229.725 142.362Z" fill="#44A48B"/>
<path d="M229.989 141.762C229.989 142.342 230.191 142.781 230.552 142.983C230.912 143.184 231.401 143.132 231.911 142.838C232.421 142.543 232.91 142.031 233.271 141.413C233.631 140.795 233.834 140.122 233.834 139.542C233.834 138.963 233.631 138.524 233.271 138.322C232.91 138.121 232.421 138.173 231.911 138.467C231.659 138.613 231.409 138.814 231.176 139.058C230.942 139.303 230.73 139.586 230.552 139.892C230.373 140.198 230.232 140.521 230.135 140.842C230.038 141.163 229.989 141.475 229.989 141.762Z" fill="white"/>
<path d="M210.176 153.649C210.176 154.407 209.911 155.288 209.438 156.097C208.966 156.907 208.326 157.578 207.658 157.963C206.991 158.349 206.351 158.417 205.878 158.153C205.406 157.889 205.141 157.314 205.141 156.555C205.141 155.796 205.406 154.916 205.878 154.106C206.351 153.297 206.991 152.626 207.658 152.241C208.326 151.855 208.966 151.787 209.438 152.051C209.911 152.315 210.176 152.89 210.176 153.649Z" fill="#44A48B"/>
<path d="M209.912 153.353C209.912 153.933 209.71 154.606 209.349 155.224C208.988 155.842 208.499 156.354 207.989 156.649C207.48 156.943 206.991 156.995 206.63 156.794C206.269 156.592 206.067 156.153 206.067 155.574C206.067 154.994 206.269 154.321 206.63 153.703C206.991 153.085 207.48 152.573 207.989 152.278C208.499 151.984 208.988 151.932 209.349 152.133C209.71 152.335 209.912 152.774 209.912 153.353Z" fill="white"/>
<path d="M212.113 155.926L212.143 151.636C211.608 151.97 211.074 152.304 210.778 152.869C210.483 153.433 210.427 154.229 210.305 154.999C210.183 155.769 209.995 156.513 209.61 157.155C209.224 157.798 208.642 158.338 208.059 158.878C208.623 158.602 209.188 158.327 209.789 157.955C210.391 157.582 211.028 157.112 211.422 156.758C211.815 156.403 211.964 156.165 212.113 155.926L212.113 155.926Z" fill="white"/>
<path d="M228.16 142.541C228.606 142.284 229.053 142.026 229.304 142.262C229.555 142.499 229.611 143.229 229.733 143.858C229.856 144.488 230.043 145.015 230.429 145.212C230.814 145.409 231.397 145.276 231.98 145.143C231.063 145.762 230.146 146.38 229.528 146.628C228.909 146.877 228.591 146.756 228.273 146.635L228.16 142.541L228.16 142.541Z" fill="white"/>
<path d="M224.752 152.369C224.863 150.715 225 148.693 225.238 147.928C225.476 147.162 226.089 146.777 226.394 147.202C226.699 147.626 226.88 149.55 227.025 151.095L224.752 152.369L224.752 152.369Z" fill="white"/>
<path d="M221.053 154.505C221.164 152.851 221.3 150.83 221.539 150.064C221.777 149.298 222.389 148.913 222.695 149.338C223 149.762 223.181 151.687 223.326 153.231L221.053 154.505L221.053 154.505Z" fill="white"/>
<path d="M217.352 156.641C217.463 154.987 217.599 152.966 217.837 152.2C218.076 151.434 218.688 151.05 218.993 151.474C219.299 151.898 219.48 153.823 219.625 155.367L217.352 156.641L217.352 156.641Z" fill="white"/>
<path d="M213.65 158.779C213.762 157.125 213.898 155.103 214.136 154.338C214.374 153.572 214.987 153.187 215.292 153.612C215.598 154.036 215.778 155.96 215.923 157.504L213.65 158.779L213.65 158.779Z" fill="white"/>
<path d="M152.095 273.66C152.061 268.929 151.579 195.295 151.579 195.295L151.952 195.076L152.557 194.724C152.557 194.724 152.446 190.316 152.493 190.289C152.539 190.262 152.748 190.274 152.957 190.314C153.3 190.381 153.563 190.258 155.694 189.027C155.694 189.027 157.525 187.966 158.316 187.055C158.972 186.301 159.617 185.321 159.89 184.379C160.361 182.758 160.442 180.925 159.764 180.091C159.034 179.193 157.492 179.522 156.134 180.072C155.846 180.189 149.605 185.819 145.887 188.025C141.458 190.653 131.628 194.16 131.725 194.199C130.993 194.653 129.333 196.663 128.729 198.203C128.166 199.638 128.187 201.13 128.496 202.187C128.696 202.872 129.252 203.193 129.775 203.465C129.892 203.525 131.314 203.05 132.684 202.286C134.923 201.037 135.097 200.869 135.602 200.332L136.254 199.641L136.258 204.046C136.258 204.046 136.52 204.065 136.691 203.923C136.91 203.741 137.016 203.744 137.078 203.935C137.125 204.08 137.634 274.872 137.634 281.169C137.635 285.103 152.227 270.235 152.095 273.659L152.095 273.66Z" fill="#A6DDD4" stroke="#028E67" stroke-width="0.257062"/>
<path d="M151.086 196.365L137.474 204.224L138.739 281.487C138.739 281.487 142.817 280.85 144.621 279.923C147.465 278.461 152.021 273.819 152.021 273.819L151.086 196.365Z" fill="white"/>
<path d="M149.501 199.113L139.325 204.988L139.793 280.359C139.793 280.359 143.054 279.725 144.503 278.962C146.654 277.829 150.168 274.37 150.168 274.37L149.501 199.113Z" fill="#A6DDD4"/>
<path d="M147.489 201.037L145.22 202.347L145.833 277.903L148.053 276.352L147.489 201.037Z" fill="#FBFBFB"/>
<path d="M143.419 203.387L141.15 204.697L141.67 280.038L143.982 279.189L143.419 203.387Z" fill="#FBFBFB"/>
<path d="M153.85 185.957C153.85 186.716 154.115 187.29 154.587 187.554C155.06 187.819 155.7 187.75 156.367 187.365C157.035 186.979 157.675 186.308 158.147 185.499C158.62 184.69 158.885 183.809 158.885 183.05C158.885 182.291 158.62 181.717 158.147 181.453C157.675 181.189 157.035 181.257 156.367 181.642C155.7 182.028 155.06 182.699 154.587 183.508C154.115 184.317 153.85 185.198 153.85 185.957Z" fill="#44A48B"/>
<path d="M154.114 185.357C154.114 185.937 154.316 186.376 154.677 186.577C155.037 186.779 155.526 186.727 156.036 186.432C156.546 186.138 157.035 185.625 157.396 185.007C157.756 184.389 157.959 183.717 157.959 183.137C157.959 182.558 157.756 182.119 157.396 181.917C157.035 181.715 156.546 181.767 156.036 182.062C155.784 182.208 155.534 182.408 155.301 182.653C155.067 182.897 154.855 183.181 154.677 183.487C154.498 183.793 154.357 184.115 154.26 184.436C154.163 184.757 154.114 185.07 154.114 185.357Z" fill="white"/>
<path d="M134.301 197.243C134.301 198.002 134.036 198.883 133.563 199.692C133.091 200.501 132.451 201.173 131.783 201.558C131.116 201.943 130.476 202.012 130.003 201.748C129.531 201.484 129.266 200.909 129.266 200.15C129.266 199.391 129.531 198.51 130.003 197.701C130.476 196.892 131.116 196.221 131.783 195.835C132.451 195.45 133.091 195.382 133.563 195.646C134.036 195.91 134.301 196.484 134.301 197.243Z" fill="#44A48B"/>
<path d="M134.039 196.948C134.039 197.528 133.836 198.201 133.476 198.819C133.115 199.437 132.626 199.949 132.116 200.244C131.607 200.538 131.117 200.59 130.757 200.388C130.396 200.187 130.194 199.748 130.194 199.168C130.194 198.589 130.396 197.916 130.757 197.298C131.117 196.68 131.607 196.167 132.116 195.873C132.626 195.578 133.115 195.526 133.476 195.728C133.837 195.93 134.039 196.369 134.039 196.948Z" fill="white"/>
<path d="M136.238 199.521L136.268 195.231C135.733 195.565 135.199 195.899 134.903 196.463C134.608 197.028 134.552 197.824 134.43 198.594C134.308 199.364 134.12 200.108 133.735 200.75C133.349 201.392 132.766 201.932 132.184 202.472C132.748 202.197 133.313 201.922 133.914 201.549C134.516 201.176 135.153 200.707 135.547 200.352C135.94 199.998 136.089 199.759 136.238 199.521L136.238 199.521Z" fill="#F3F9F8"/>
<path d="M152.285 186.136C152.731 185.879 153.178 185.621 153.429 185.857C153.68 186.093 153.736 186.824 153.858 187.453C153.981 188.082 154.168 188.61 154.554 188.807C154.939 189.004 155.522 188.871 156.105 188.738C155.188 189.356 154.271 189.974 153.653 190.223C153.034 190.472 152.716 190.351 152.398 190.23L152.285 186.136L152.285 186.136Z" fill="#F3F9F8"/>
<path d="M148.877 195.963C148.988 194.31 149.125 192.288 149.363 191.522C149.601 190.757 150.214 190.372 150.519 190.796C150.824 191.221 151.005 193.145 151.15 194.689L148.877 195.964L148.877 195.963Z" fill="#F3F9F8"/>
<path d="M145.178 198.1C145.289 196.446 145.425 194.424 145.664 193.659C145.902 192.893 146.514 192.508 146.82 192.933C147.125 193.357 147.306 195.281 147.451 196.826L145.178 198.1L145.178 198.1Z" fill="#F3F9F8"/>
<path d="M141.477 200.236C141.588 198.582 141.724 196.56 141.962 195.795C142.201 195.029 142.813 194.644 143.118 195.069C143.424 195.493 143.605 197.417 143.75 198.962L141.477 200.236L141.477 200.236Z" fill="#F3F9F8"/>
<path d="M137.775 202.373C137.887 200.719 138.023 198.698 138.261 197.932C138.499 197.167 139.112 196.782 139.417 197.206C139.723 197.631 139.903 199.555 140.048 201.099L137.775 202.373L137.775 202.373Z" fill="#F3F9F8"/>
<path d="M125.795 190.566C125.795 190.566 133.45 183.99 137.797 181.487C141.827 179.166 150.662 176.09 150.662 176.09L157.432 179.579C157.432 179.579 150.021 185.653 145.885 188.025C141.479 190.552 131.911 194.097 131.911 194.097L125.795 190.566Z" fill="#D2EEE9"/>
<path d="M163.578 168.96C163.578 168.96 171.775 162.013 176.425 159.388C180.193 157.261 188.445 154.483 188.445 154.483L195.215 157.972C195.215 157.972 188.339 163.81 184.463 166.07C179.826 168.774 169.695 172.491 169.695 172.491L163.578 168.96Z" fill="#D2EEE9"/>
<path d="M201.482 147.073C201.482 147.073 210.276 139.709 215.266 136.957C218.743 135.04 226.35 132.597 226.35 132.597L233.12 136.086C233.12 136.086 225.195 142.176 220.862 144.634C216.645 147.026 207.599 150.605 207.599 150.605L201.482 147.073Z" fill="#D2EEE9"/>
<path d="M239.396 125.187C239.396 125.187 246.63 118.893 250.745 116.488C254.976 114.015 264.264 110.711 264.264 110.711L271.034 114.2C271.034 114.2 263.518 119.876 259.444 122.213C254.998 124.763 245.512 128.718 245.512 128.718L239.396 125.187Z" fill="#D2EEE9"/>
<path d="M261.607 90.3625L104.84 177.569L113.494 182.565L113.685 199.337L273.555 109.374V97.0263L261.607 90.3625Z" fill="#C1E8E1"/>
<path d="M275.727 94.7012L118.017 184.967L117.846 203.181L278.52 110.901L278.177 95.7103L275.727 94.7012Z" fill="#E5F5F2"/>
<path d="M174.55 280.345L174.405 284.02L264.946 231.862L265.291 228.165L174.55 280.345Z" fill="#A6DDD4"/>
<path d="M255.673 223.659L165.532 275.509L174.549 280.343L265.289 228.164L255.673 223.659Z" fill="white"/>
<path d="M165.508 275.507L165.867 286.951L190.65 300.819L190.67 297.013L182.813 292.438L182.8 288.677L174.438 284.049L174.523 280.339L165.508 275.507Z" fill="#75CBBB"/>
<path d="M182.844 288.684L182.812 292.419L273.425 240.073L273.77 236.377L182.844 288.684Z" fill="#A6DDD4"/>
<path d="M265.011 231.871L174.427 284.02L182.849 288.682L273.771 236.376L265.011 231.871Z" fill="#FBFBFB"/>
<path d="M190.718 297.019L190.697 300.826L281.753 248.149L282.098 244.452L190.718 297.019Z" fill="#A6DDD4"/>
<path d="M273.335 239.948L182.813 292.42L190.715 297.02L282.094 244.454L273.335 239.948Z" fill="#FBFBFB"/>
<path d="M104.43 173.295L123.464 154.928L124.796 157.495L104.83 177.564L104.43 173.295Z" fill="#A2DCD2"/>
<path d="M109.808 179.895C109.726 179.895 119.773 186.2 119.773 186.2L278.166 95.7127L278.254 94.2863L273.49 91.6843C273.49 91.6843 201.622 92.858 202.293 92.4716C203.13 91.9901 110.252 179.892 109.81 179.894L109.808 179.895Z" fill="#A2DCD2"/>
<path d="M65.4961 154.865C65.0508 154.867 115.147 184.091 115.147 184.091L202.183 92.6771L187.292 84.0805C187.292 84.0805 65.9407 154.862 65.4987 154.863L65.4961 154.865Z" fill="#409D8F"/>
<path d="M116.447 188.875C116.055 188.882 278.072 95.4442 277.727 95.8617C277.425 96.2263 206.92 95.6012 206.92 95.6012L206.792 96.9976C206.792 96.9976 115.579 188.356 115.557 188.354L116.447 188.875Z" fill="#FBFBFB"/>
<path d="M151.039 162.466C150.774 162.471 254.123 102.278 253.892 102.559C253.659 102.841 206.718 102.949 207.216 102.663C207.714 102.376 151.306 162.46 151.039 162.466Z" fill="#E5F5F2" stroke="#30756A" stroke-width="0.388212" stroke-linecap="round"/>
<path d="M223.945 62.9203C224.39 62.9225 187.296 84.0801 187.296 84.0801L202.187 92.6769L273.498 91.6812C273.498 91.6812 223.5 62.9162 223.946 62.9208L223.945 62.9203Z" fill="#6DC3B6"/>
<path d="M110.389 181.299C110.307 181.299 115.148 184.092 115.148 184.092L205.902 94.9061L202.182 92.679C202.182 92.679 110.834 181.295 110.392 181.297L110.389 181.299Z" fill="#70C5B8"/>
<path d="M278.17 95.7109L206.787 97.0005L206.932 95.4176C206.932 95.4176 277.814 94.2821 278.26 94.2839L278.17 95.7109Z" fill="#9FBAB7"/>
<path d="M65.2617 173.191L65.5031 154.86L117.9 185.112L117.842 203.18L65.2617 173.191Z" fill="#82CBB7"/>
<path d="M323.881 300.986L303.638 288.348C301.025 286.774 297.074 286.603 294.812 287.966L265.926 305.173C263.663 306.537 263.947 308.919 266.559 310.493L286.473 322.497C289.085 324.072 292.303 325.585 294.565 324.221L324.516 306.306C326.778 304.943 321.981 303.004 319.368 301.43L323.881 300.986Z" fill="#245353" fill-opacity="0.33838"/>
<path d="M270.078 305.937V300.382L297.604 315.57L325.129 300.382V305.936L297.603 321.829L270.078 305.937Z" fill="url(#paint10_linear)"/>
<path d="M297.603 316.272L325.129 300.38L297.604 284.488L270.077 300.381L297.603 316.272Z" fill="url(#paint11_linear)"/>
<path opacity="0.5" d="M297.603 315.816L324.733 300.153L325.129 300.382L297.603 316.274L270.078 300.382L270.474 300.153L297.603 315.816Z" fill="white"/>
<path d="M297.603 310.203L314.619 300.378L297.603 290.554L280.586 300.379L297.603 310.203Z" fill="#0F054C"/>
<path opacity="0.5" d="M297.604 310.206L314.621 300.382L297.604 290.557L280.587 300.382L297.604 310.206Z" fill="url(#paint12_linear)"/>
<path opacity="0.5" d="M297.604 276.812L280.587 286.637V300.381L297.604 290.556V276.812Z" fill="url(#paint13_linear)"/>
<path opacity="0.5" d="M297.604 290.554L314.621 300.379V286.634L297.604 276.81L297.604 290.554Z" fill="url(#paint14_linear)"/>
<path opacity="0.5" d="M297.604 296.46L314.621 286.635L297.604 276.811L280.588 286.635L297.604 296.46Z" fill="url(#paint15_linear)"/>
<path opacity="0.5" d="M297.604 296.461V310.205L280.587 300.38V286.636L297.604 296.461Z" fill="url(#paint16_linear)"/>
<path opacity="0.5" d="M314.619 286.638V300.382L297.602 310.207V296.463L314.619 286.638Z" fill="url(#paint17_linear)"/>
<path d="M297.89 292.553L277.41 280.728L297.89 268.904L318.371 280.729L297.89 292.553Z" fill="#2C5B6F"/>
<path d="M297.892 289.325L283.004 280.729L297.892 272.133L312.781 280.729L297.892 289.325Z" fill="#C7F6FE" fill-opacity="0.99216"/>
<path d="M297.892 272.715L312.277 281.02L312.781 280.729L297.892 272.133L283.004 280.728L283.508 281.019L297.892 272.715Z" fill="white"/>
<path d="M318.371 280.729V287.431L297.891 299.256V292.553L318.371 280.729Z" fill="url(#paint18_linear)"/>
<g opacity="0.51">
<path opacity="0.51" d="M278.799 283.74V285.851L296.505 296.074V293.963L278.799 283.74Z" fill="#67CDB1"/>
</g>
<path d="M297.891 292.169L277.743 280.536L277.41 280.728L297.89 292.553L318.371 280.728L318.038 280.536L297.891 292.169Z" fill="white"/>
<path d="M315.301 285.426V286.626L300.965 294.903V293.703L315.301 285.426Z" fill="#236B7A"/>
<path d="M277.41 280.729V287.431L297.89 299.256V292.553L277.41 280.729Z" fill="#2C5B6F"/>
<path d="M291.914 292.198L288.206 290.057L288.205 290.499L291.914 292.641L291.914 292.198Z" fill="#1AD372"/>
<path d="M287.669 289.752L286.664 289.172L286.664 289.614L287.669 290.194L287.669 289.752Z" fill="#1AD372"/>
<path d="M282.963 287.033L280.907 285.846L280.906 286.288L282.962 287.475L282.963 287.033Z" fill="#1AD372"/>
<path d="M284.839 288.119L283.352 287.26L283.352 287.703L284.838 288.561L284.839 288.119Z" fill="#1AD372"/>
<path d="M286.234 288.923L285.229 288.343L285.229 288.785L286.233 289.366L286.234 288.923Z" fill="#1AD372"/>
<path d="M297.912 275.084L297.262 274.708L297.912 274.333L298.562 274.708L297.912 275.084Z" fill="#1AD372"/>
<path opacity="0.1" d="M299.215 275.835L298.564 275.459L299.215 275.084L299.865 275.459L299.215 275.835Z" fill="#1AD372"/>
<path opacity="0.4" d="M300.514 276.586L299.863 276.211L300.514 275.836L301.164 276.211L300.514 276.586Z" fill="#1AD372"/>
<path d="M301.818 277.337L301.168 276.961L301.818 276.586L302.469 276.961L301.818 277.337Z" fill="#1AD372"/>
<path opacity="0.4" d="M303.117 278.089L302.467 277.713L303.117 277.338L303.767 277.713L303.117 278.089Z" fill="#1AD372"/>
<path d="M304.418 278.841L303.768 278.465L304.418 278.09L305.068 278.465L304.418 278.841Z" fill="#1AD372"/>
<path d="M305.719 279.591L305.068 279.216L305.719 278.84L306.369 279.216L305.719 279.591Z" fill="#1AD372"/>
<path d="M307.02 280.341L306.369 279.966L307.019 279.59L307.67 279.966L307.02 280.341Z" fill="#1AD372"/>
<path opacity="0.1" d="M308.318 281.092L307.668 280.716L308.318 280.341L308.969 280.716L308.318 281.092Z" fill="#1AD372"/>
<path d="M296.609 275.841L295.959 275.465L296.609 275.09L297.26 275.465L296.609 275.841Z" fill="#1AD372"/>
<path d="M297.908 276.59L297.258 276.215L297.908 275.839L298.559 276.215L297.908 276.59Z" fill="#1AD372"/>
<path d="M299.209 277.342L298.559 276.966L299.209 276.591L299.859 276.966L299.209 277.342Z" fill="#1AD372"/>
<path d="M300.51 278.091L299.859 277.715L300.51 277.34L301.16 277.715L300.51 278.091Z" fill="#1AD372"/>
<path d="M301.812 278.843L301.162 278.467L301.812 278.092L302.463 278.467L301.812 278.843Z" fill="#1AD372"/>
<path d="M303.111 279.593L302.461 279.218L303.111 278.842L303.762 279.218L303.111 279.593Z" fill="#1AD372"/>
<path d="M304.414 280.345L303.764 279.97L304.414 279.594L305.064 279.97L304.414 280.345Z" fill="#1AD372"/>
<path d="M305.713 281.095L305.062 280.72L305.713 280.344L306.363 280.72L305.713 281.095Z" fill="#1AD372"/>
<path d="M307.014 281.847L306.363 281.472L307.014 281.096L307.664 281.472L307.014 281.847Z" fill="#1AD372"/>
<path d="M295.303 276.592L294.652 276.216L295.303 275.841L295.953 276.216L295.303 276.592Z" fill="#1AD372"/>
<path d="M296.602 277.344L295.951 276.969L296.601 276.593L297.252 276.969L296.602 277.344Z" fill="#1AD372"/>
<path d="M297.902 278.094L297.252 277.719L297.902 277.344L298.553 277.719L297.902 278.094Z" fill="#1AD372"/>
<path opacity="0.1" d="M299.203 278.846L298.553 278.471L299.203 278.095L299.853 278.471L299.203 278.846Z" fill="#1AD372"/>
<path opacity="0.4" d="M300.504 279.597L299.854 279.221L300.504 278.846L301.154 279.221L300.504 279.597Z" fill="#1AD372"/>
<path opacity="0.4" d="M301.805 280.347L301.154 279.972L301.805 279.596L302.455 279.972L301.805 280.347Z" fill="#1AD372"/>
<path d="M303.107 281.098L302.457 280.722L303.107 280.347L303.758 280.722L303.107 281.098Z" fill="#1AD372"/>
<path d="M304.406 281.849L303.756 281.474L304.406 281.098L305.057 281.474L304.406 281.849Z" fill="#1AD372"/>
<path d="M305.709 282.601L305.059 282.226L305.709 281.85L306.359 282.226L305.709 282.601Z" fill="#1AD372"/>
<path opacity="0.4" d="M293.996 277.346L293.346 276.97L293.996 276.595L294.646 276.97L293.996 277.346Z" fill="#1AD372"/>
<path opacity="0.4" d="M295.295 278.097L294.645 277.721L295.295 277.346L295.945 277.721L295.295 278.097Z" fill="#1AD372"/>
<path opacity="0.1" d="M296.596 278.849L295.945 278.473L296.596 278.098L297.246 278.473L296.596 278.849Z" fill="#1AD372"/>
<path d="M297.896 279.6L297.246 279.225L297.896 278.849L298.547 279.225L297.896 279.6Z" fill="#1AD372"/>
<path d="M299.197 280.351L298.547 279.975L299.197 279.6L299.848 279.975L299.197 280.351Z" fill="#1AD372"/>
<path d="M300.498 281.103L299.848 280.727L300.498 280.352L301.148 280.727L300.498 281.103Z" fill="#1AD372"/>
<path opacity="0.4" d="M301.801 281.853L301.15 281.478L301.801 281.102L302.451 281.478L301.801 281.853Z" fill="#1AD372"/>
<path d="M303.1 282.603L302.449 282.228L303.1 281.853L303.75 282.228L303.1 282.603Z" fill="#1AD372"/>
<path d="M304.402 283.354L303.752 282.978L304.402 282.603L305.053 282.978L304.402 283.354Z" fill="#1AD372"/>
<path d="M292.691 278.103L292.041 277.727L292.691 277.352L293.342 277.727L292.691 278.103Z" fill="#1AD372"/>
<path d="M293.99 278.852L293.34 278.477L293.99 278.101L294.641 278.477L293.99 278.852Z" fill="#1AD372"/>
<path d="M295.293 279.603L294.643 279.227L295.293 278.852L295.943 279.227L295.293 279.603Z" fill="#1AD372"/>
<path d="M296.592 280.353L295.941 279.977L296.592 279.602L297.242 279.977L296.592 280.353Z" fill="#1AD372"/>
<path d="M297.893 281.105L297.242 280.729L297.893 280.354L298.543 280.729L297.893 281.105Z" fill="#1AD372"/>
<path d="M299.193 281.855L298.543 281.48L299.193 281.104L299.844 281.48L299.193 281.855Z" fill="#1AD372"/>
<path d="M300.494 282.607L299.844 282.232L300.494 281.856L301.144 282.232L300.494 282.607Z" fill="#1AD372"/>
<path d="M301.795 283.357L301.145 282.982L301.795 282.606L302.445 282.982L301.795 283.357Z" fill="#1AD372"/>
<path d="M303.098 284.109L302.447 283.734L303.098 283.358L303.748 283.734L303.098 284.109Z" fill="#1AD372"/>
<path d="M291.385 278.854L290.734 278.478L291.385 278.103L292.035 278.478L291.385 278.854Z" fill="#1AD372"/>
<path d="M292.684 279.606L292.033 279.231L292.684 278.855L293.334 279.231L292.684 279.606Z" fill="#1AD372"/>
<path opacity="0.4" d="M293.986 280.356L293.336 279.981L293.986 279.606L294.637 279.981L293.986 280.356Z" fill="#1AD372"/>
<path d="M295.285 281.108L294.635 280.733L295.285 280.357L295.935 280.733L295.285 281.108Z" fill="#1AD372"/>
<path opacity="0.1" d="M296.586 281.859L295.936 281.483L296.586 281.108L297.236 281.483L296.586 281.859Z" fill="#1AD372"/>
<path d="M297.887 282.609L297.236 282.234L297.887 281.858L298.537 282.234L297.887 282.609Z" fill="#1AD372"/>
<path d="M299.187 283.36L298.537 282.984L299.187 282.609L299.838 282.984L299.187 283.36Z" fill="#1AD372"/>
<path d="M300.488 284.111L299.838 283.736L300.488 283.36L301.139 283.736L300.488 284.111Z" fill="#1AD372"/>
<path d="M301.791 284.863L301.141 284.488L301.791 284.112L302.441 284.488L301.791 284.863Z" fill="#1AD372"/>
<path d="M290.078 279.608L289.428 279.232L290.078 278.857L290.728 279.232L290.078 279.608Z" fill="#1AD372"/>
<path d="M291.377 280.359L290.727 279.983L291.377 279.608L292.027 279.983L291.377 280.359Z" fill="#1AD372"/>
<path opacity="0.4" d="M292.68 281.11L292.029 280.735L292.68 280.36L293.33 280.735L292.68 281.11Z" fill="#1AD372"/>
<path d="M293.978 281.862L293.328 281.487L293.978 281.111L294.629 281.487L293.978 281.862Z" fill="#1AD372"/>
<path d="M295.279 282.613L294.629 282.237L295.279 281.862L295.93 282.237L295.279 282.613Z" fill="#1AD372"/>
<path opacity="0.1" d="M296.58 283.365L295.93 282.989L296.58 282.614L297.23 282.989L296.58 283.365Z" fill="#1AD372"/>
<path opacity="0.4" d="M297.881 284.115L297.23 283.739L297.881 283.364L298.531 283.739L297.881 284.115Z" fill="#1AD372"/>
<path d="M299.182 284.865L298.531 284.49L299.182 284.114L299.832 284.49L299.182 284.865Z" fill="#1AD372"/>
<path opacity="0.1" d="M300.484 285.616L299.834 285.24L300.484 284.865L301.135 285.24L300.484 285.616Z" fill="#1AD372"/>
<path d="M288.773 280.364L288.123 279.989L288.773 279.613L289.424 279.989L288.773 280.364Z" fill="#1AD372"/>
<path opacity="0.4" d="M290.072 281.114L289.422 280.739L290.072 280.363L290.723 280.739L290.072 281.114Z" fill="#1AD372"/>
<path d="M291.375 281.864L290.725 281.489L291.375 281.114L292.025 281.489L291.375 281.864Z" fill="#1AD372"/>
<path d="M292.674 282.615L292.023 282.239L292.674 281.864L293.324 282.239L292.674 282.615Z" fill="#1AD372"/>
<path d="M293.975 283.367L293.324 282.991L293.975 282.616L294.625 282.991L293.975 283.367Z" fill="#1AD372"/>
<path d="M295.275 284.117L294.625 283.742L295.275 283.366L295.926 283.742L295.275 284.117Z" fill="#1AD372"/>
<path d="M296.576 284.869L295.926 284.493L296.576 284.118L297.226 284.493L296.576 284.869Z" fill="#1AD372"/>
<path opacity="0.4" d="M297.877 285.619L297.227 285.244L297.877 284.868L298.527 285.244L297.877 285.619Z" fill="#1AD372"/>
<path d="M299.178 286.371L298.527 285.996L299.178 285.62L299.828 285.996L299.178 286.371Z" fill="#1AD372"/>
<path d="M287.467 281.116L286.816 280.74L287.467 280.365L288.117 280.74L287.467 281.116Z" fill="#1AD372"/>
<path opacity="0.1" d="M288.766 281.868L288.115 281.492L288.766 281.117L289.416 281.493L288.766 281.868Z" fill="#1AD372"/>
<path d="M290.068 282.618L289.418 282.243L290.068 281.867L290.719 282.243L290.068 282.618Z" fill="#1AD372"/>
<path d="M291.367 283.37L290.717 282.995L291.367 282.619L292.017 282.995L291.367 283.37Z" fill="#1AD372"/>
<path d="M292.67 284.119L292.02 283.744L292.67 283.368L293.32 283.744L292.67 284.119Z" fill="#1AD372"/>
<path d="M293.969 284.871L293.318 284.496L293.969 284.12L294.619 284.496L293.969 284.871Z" fill="#1AD372"/>
<path opacity="0.4" d="M295.269 285.623L294.619 285.247L295.269 284.872L295.92 285.247L295.269 285.623Z" fill="#1AD372"/>
<path d="M296.57 286.373L295.92 285.998L296.57 285.622L297.221 285.998L296.57 286.373Z" fill="#1AD372"/>
<path d="M297.871 287.125L297.221 286.75L297.871 286.374L298.521 286.75L297.871 287.125Z" fill="#1AD372"/>
<g filter="url(#filter0_f)">
<path d="M320.526 262.606L318.944 263.747L302.727 252.048C301.886 251.44 300.614 251.375 299.885 251.901L283.464 263.747L282.086 262.753C281.245 262.146 281.154 261.228 281.883 260.702L299.885 247.715C300.614 247.19 301.886 247.255 302.728 247.862L320.322 260.555C321.163 261.162 321.254 262.08 320.526 262.606L320.526 262.606Z" fill="url(#paint19_linear)"/>
</g>
<g opacity="0.5">
<g opacity="0.5">
<g opacity="0.5">
<path opacity="0.5" d="M303.35 235.981L307.176 233.482V231.482L303.35 233.982V235.981Z" fill="#42E8E0"/>
<path opacity="0.5" d="M303.35 240.446L307.176 237.947V235.947L303.35 238.447V240.446Z" fill="#42E8E0"/>
<path opacity="0.5" d="M303.35 244.913L307.176 242.414V240.414L303.35 242.914V244.913Z" fill="#42E8E0"/>
<path opacity="0.5" d="M303.35 249.378L307.176 246.879V244.879L303.35 247.378V249.378Z" fill="#42E8E0"/>
<path opacity="0.5" d="M303.35 253.843L307.176 251.344V249.344L303.35 251.843V253.843Z" fill="#42E8E0"/>
</g>
<g opacity="0.5">
<path opacity="0.848" d="M308.929 239.321L310.858 238.061C311.4 237.706 311.734 237.051 311.734 236.343V230.025C311.734 229.431 311.167 229.061 310.713 229.357L308.785 230.617C308.243 230.971 307.908 231.626 307.908 232.335V238.653C307.908 239.246 308.476 239.617 308.929 239.321L308.929 239.321Z" fill="#85F0EB" stroke="white" stroke-width="0.177562"/>
<path opacity="0.713" d="M313.486 241.917L315.415 240.658C315.957 240.303 316.291 239.649 316.291 238.94V232.621C316.291 232.029 315.724 231.658 315.27 231.955L313.341 233.214C312.799 233.569 312.465 234.223 312.465 234.932V241.251C312.465 241.843 313.032 242.214 313.486 241.917H313.486Z" fill="#C1F7F5" stroke="white" stroke-width="0.177562"/>
<path opacity="0.736" d="M318.045 245.316L319.973 244.056C320.515 243.702 320.85 243.047 320.85 242.338V236.02C320.85 235.427 320.282 235.056 319.828 235.353L317.9 236.613C317.358 236.967 317.024 237.622 317.024 238.33V244.649C317.024 245.242 317.591 245.612 318.045 245.316Z" fill="#C3F8F5" stroke="white" stroke-width="0.177562"/>
</g>
<g opacity="0.5">
<path opacity="0.713" d="M322.601 247.769L324.53 246.509C325.072 246.155 325.406 245.5 325.406 244.791V238.473C325.406 237.88 324.839 237.51 324.385 237.806L322.457 239.066C321.914 239.42 321.58 240.075 321.58 240.784V247.102C321.58 247.695 322.148 248.065 322.601 247.769V247.769Z" fill="#42E8E0" stroke="white" stroke-width="0.177562"/>
<path opacity="0.5" d="M303.35 231.267L307.176 228.767V226.768L303.35 229.267V231.267Z" fill="#42E8E0"/>
<path opacity="0.5" d="M303.35 226.945L307.176 224.446V222.446L303.35 224.946V226.945Z" fill="#42E8E0"/>
</g>
<path opacity="0.5" d="M303.35 222.624L307.176 220.124V218.125L303.35 220.624V222.624Z" fill="#7CEFEA" fill-opacity="0.68182"/>
<path opacity="0.5" d="M303.35 217.909L307.176 215.41V213.41L303.35 215.91V217.909Z" fill="#85F0EB" fill-opacity="0.69697"/>
<path opacity="0.5" d="M303.262 213.941L307.088 211.442V209.442L303.262 211.942V213.941Z" fill="#8CF1EC" fill-opacity="0.46465"/>
<path opacity="0.713" d="M282.559 258.137L289.955 253.829C291.073 253.099 291.762 251.749 291.762 250.288V237.263C291.762 236.04 290.592 235.276 289.657 235.888L282.261 240.195C281.143 240.925 280.454 242.275 280.454 243.736V256.762C280.454 257.984 281.623 258.748 282.559 258.137Z" fill="#42E8E0" stroke="white" stroke-width="0.542098"/>
<path opacity="0.713" d="M290.353 233.235L293.277 231.324C294.099 230.787 294.605 229.794 294.605 228.72V219.14C294.605 218.24 293.745 217.678 293.057 218.128L290.133 220.038C289.311 220.575 288.804 221.568 288.804 222.642V232.223C288.804 233.122 289.665 233.684 290.353 233.235V233.235Z" fill="#42E8E0" stroke="white" stroke-width="0.398734"/>
</g>
<g opacity="0.5">
<path opacity="0.5" d="M296.985 240.139L298.268 239.301V237.302L296.985 238.139V240.139Z" fill="#42E8E0"/>
<path opacity="0.5" d="M296.985 244.606L298.268 243.768V241.768L296.985 242.606V244.606Z" fill="#42E8E0"/>
<path opacity="0.5" d="M296.985 249.069L298.268 248.231V246.232L296.985 247.069V249.069Z" fill="#42E8E0"/>
<path opacity="0.5" d="M296.985 253.534L298.268 252.696V250.697L296.985 251.534V253.534Z" fill="#42E8E0"/>
<path opacity="0.5" d="M296.985 258.001L298.268 257.163V255.163L296.985 256.001V258.001Z" fill="#42E8E0"/>
<path opacity="0.5" d="M296.985 235.673L298.268 234.836L298.18 232.218L296.898 233.056L296.985 235.673Z" fill="#42E8E0"/>
<path opacity="0.5" d="M296.985 226.638L298.268 225.8L298.18 223.183L296.898 224.02L296.985 226.638Z" fill="#42E8E0"/>
</g>
<g opacity="0.5">
<g opacity="0.5">
<path opacity="0.5" d="M301.533 250.031L300.084 250.978V255.977L301.533 255.03V250.031Z" fill="#42E8E0"/>
<path opacity="0.5" d="M301.533 245.566L300.084 246.513V248.513L301.533 247.566V245.566Z" fill="#42E8E0"/>
<path opacity="0.5" d="M301.533 241.101L300.084 242.048V244.048L301.533 243.101V241.101Z" fill="#42E8E0"/>
</g>
<path opacity="0.5" d="M301.533 230.58L300.084 231.527V239.581L301.533 238.634V230.58Z" fill="#91F2ED"/>
<path opacity="0.5" d="M301.533 226.17L300.084 227.117V229.117L301.533 228.17V226.17Z" fill="#42E8E0"/>
<path opacity="0.5" d="M301.533 216.044L300.084 216.991V225.045L301.533 224.098V216.044Z" fill="#42E8E0" fill-opacity="0.59091"/>
</g>
</g>
<g opacity="0.625" filter="url(#filter1_f)">
<path d="M305.897 281.488L316.914 261.705L311.52 262.174L303.168 281.095L305.897 281.488Z" fill="url(#paint20_linear)"/>
</g>
<g opacity="0.625" filter="url(#filter2_f)">
<path d="M301.865 280.791L310.119 260.868L305.992 261.617L300.98 280.678L301.865 280.791Z" fill="url(#paint21_linear)"/>
</g>
<g opacity="0.625" filter="url(#filter3_f)">
<path d="M299.561 279.116L285.664 253.331L289.791 254.08L300.446 279.002L299.561 279.116Z" fill="url(#paint22_linear)"/>
</g>
<g opacity="0.625" filter="url(#filter4_f)">
<path d="M300.827 280.37L296.834 263.657L300.961 264.406L301.712 280.256L300.827 280.37Z" fill="url(#paint23_linear)"/>
</g>
<g opacity="0.625" filter="url(#filter5_f)">
<path d="M296.608 281.82L270.92 254.258L274.581 254.776L297.34 281.945L296.608 281.82Z" fill="url(#paint24_linear)"/>
</g>
<g opacity="0.625" filter="url(#filter6_f)">
<path d="M297.63 281.684L280.596 258.829L284.769 258.792L298.49 281.405L297.63 281.684Z" fill="url(#paint25_linear)"/>
</g>
<g opacity="0.625" filter="url(#filter7_f)">
<path d="M297.898 277.344L278.252 245.194L281.734 246.436L298.59 277.613L297.898 277.344Z" fill="url(#paint26_linear)"/>
</g>
<defs>
<filter id="filter0_f" x="280.824" y="246.793" width="40.7608" height="17.5207" filterUnits="userSpaceOnUse" color-interpolation-filters="sRGB">
<feFlood flood-opacity="0" result="BackgroundImageFix"/>
<feBlend mode="normal" in="SourceGraphic" in2="BackgroundImageFix" result="shape"/>
<feGaussianBlur stdDeviation="0.283441" result="effect1_foregroundBlur"/>
</filter>
<filter id="filter1_f" x="301.636" y="260.172" width="16.8101" height="22.8474" filterUnits="userSpaceOnUse" color-interpolation-filters="sRGB">
<feFlood flood-opacity="0" result="BackgroundImageFix"/>
<feBlend mode="normal" in="SourceGraphic" in2="BackgroundImageFix" result="shape"/>
<feGaussianBlur stdDeviation="0.766121" result="effect1_foregroundBlur"/>
</filter>
<filter id="filter2_f" x="299.448" y="259.336" width="12.2037" height="22.9875" filterUnits="userSpaceOnUse" color-interpolation-filters="sRGB">
<feFlood flood-opacity="0" result="BackgroundImageFix"/>
<feBlend mode="normal" in="SourceGraphic" in2="BackgroundImageFix" result="shape"/>
<feGaussianBlur stdDeviation="0.766121" result="effect1_foregroundBlur"/>
</filter>
<filter id="filter3_f" x="284.132" y="251.798" width="17.8466" height="28.8496" filterUnits="userSpaceOnUse" color-interpolation-filters="sRGB">
<feFlood flood-opacity="0" result="BackgroundImageFix"/>
<feBlend mode="normal" in="SourceGraphic" in2="BackgroundImageFix" result="shape"/>
<feGaussianBlur stdDeviation="0.766121" result="effect1_foregroundBlur"/>
</filter>
<filter id="filter4_f" x="295.302" y="262.125" width="7.94272" height="19.7769" filterUnits="userSpaceOnUse" color-interpolation-filters="sRGB">
<feFlood flood-opacity="0" result="BackgroundImageFix"/>
<feBlend mode="normal" in="SourceGraphic" in2="BackgroundImageFix" result="shape"/>
<feGaussianBlur stdDeviation="0.766121" result="effect1_foregroundBlur"/>
</filter>
<filter id="filter5_f" x="268.793" y="252.13" width="30.675" height="31.9417" filterUnits="userSpaceOnUse" color-interpolation-filters="sRGB">
<feFlood flood-opacity="0" result="BackgroundImageFix"/>
<feBlend mode="normal" in="SourceGraphic" in2="BackgroundImageFix" result="shape"/>
<feGaussianBlur stdDeviation="1.06368" result="effect1_foregroundBlur"/>
</filter>
<filter id="filter6_f" x="279.062" y="257.258" width="20.961" height="25.959" filterUnits="userSpaceOnUse" color-interpolation-filters="sRGB">
<feFlood flood-opacity="0" result="BackgroundImageFix"/>
<feBlend mode="normal" in="SourceGraphic" in2="BackgroundImageFix" result="shape"/>
<feGaussianBlur stdDeviation="0.766796" result="effect1_foregroundBlur"/>
</filter>
<filter id="filter7_f" x="276.125" y="243.067" width="24.5926" height="36.6731" filterUnits="userSpaceOnUse" color-interpolation-filters="sRGB">
<feFlood flood-opacity="0" result="BackgroundImageFix"/>
<feBlend mode="normal" in="SourceGraphic" in2="BackgroundImageFix" result="shape"/>
<feGaussianBlur stdDeviation="1.06367" result="effect1_foregroundBlur"/>
</filter>
<linearGradient id="paint0_linear" x1="161.824" y1="405.822" x2="513.785" y2="308.237" gradientUnits="userSpaceOnUse">
<stop stop-color="#ECF6F6"/>
<stop offset="1" stop-color="#CDEAEA"/>
</linearGradient>
<linearGradient id="paint1_linear" x1="-28.1455" y1="320.842" x2="574.506" y2="239.333" gradientUnits="userSpaceOnUse">
<stop offset="0.40017" stop-color="#C7EDE2"/>
<stop offset="0.62107" stop-color="#67CDB1"/>
</linearGradient>
<linearGradient id="paint2_linear" x1="24.9446" y1="272.556" x2="495.884" y2="271.589" gradientUnits="userSpaceOnUse">
<stop stop-color="#F2FFFD"/>
<stop offset="1" stop-color="#01C38D"/>
</linearGradient>
<linearGradient id="paint3_linear" x1="338.93" y1="227.245" x2="349.351" y2="230.837" gradientUnits="userSpaceOnUse">
<stop stop-color="#53BCA2"/>
<stop offset="1" stop-color="#0EB188"/>
</linearGradient>
<linearGradient id="paint4_linear" x1="430.005" y1="270.705" x2="417.962" y2="271.347" gradientUnits="userSpaceOnUse">
<stop stop-color="#C9EAE2"/>
<stop offset="1" stop-color="#53BCA2"/>
</linearGradient>
<linearGradient id="paint5_linear" x1="277.911" y1="364.869" x2="257.146" y2="369.831" gradientUnits="userSpaceOnUse">
<stop stop-color="#C9EAE2"/>
<stop offset="1" stop-color="#38917B"/>
</linearGradient>
<linearGradient id="paint6_linear" x1="125.795" y1="236.285" x2="138.053" y2="236.285" gradientUnits="userSpaceOnUse">
<stop stop-color="#6CC6B8"/>
<stop offset="1" stop-color="#DEF2EF"/>
</linearGradient>
<linearGradient id="paint7_linear" x1="163.577" y1="214.678" x2="175.834" y2="214.678" gradientUnits="userSpaceOnUse">
<stop stop-color="#6CC6B8"/>
<stop offset="1" stop-color="#DEF2EF"/>
</linearGradient>
<linearGradient id="paint8_linear" x1="201.485" y1="192.791" x2="213.882" y2="192.791" gradientUnits="userSpaceOnUse">
<stop stop-color="#6CC6B8"/>
<stop offset="1" stop-color="#DEF2EF"/>
</linearGradient>
<linearGradient id="paint9_linear" x1="239.392" y1="170.947" x2="251.723" y2="170.947" gradientUnits="userSpaceOnUse">
<stop stop-color="#6CC6B8"/>
<stop offset="1" stop-color="#DEF2EF"/>
</linearGradient>
<linearGradient id="paint10_linear" x1="325.131" y1="311.104" x2="285.906" y2="311.104" gradientUnits="userSpaceOnUse">
<stop offset="0.24731" stop-color="#53BCA2"/>
<stop offset="0.43628" stop-color="#0B8869"/>
<stop offset="0.82448" stop-color="#98D7C7"/>
<stop offset="1" stop-color="#0B8869"/>
</linearGradient>
<linearGradient id="paint11_linear" x1="325.125" y1="300.382" x2="270.073" y2="300.382" gradientUnits="userSpaceOnUse">
<stop stop-color="#E9FBF7"/>
<stop offset="0.37736" stop-color="#7BCCB8"/>
<stop offset="0.63992" stop-color="#72C8B3"/>
<stop offset="1" stop-color="#0B8869"/>
</linearGradient>
<linearGradient id="paint12_linear" x1="314.617" y1="300.381" x2="280.581" y2="300.381" gradientUnits="userSpaceOnUse">
<stop stop-color="#42E8E0"/>
<stop offset="0.15073" stop-color="#42E3DF"/>
<stop offset="0.32849" stop-color="#44D4DE"/>
<stop offset="0.5199" stop-color="#48BDDD"/>
<stop offset="0.72093" stop-color="#4D9BDA"/>
<stop offset="0.92742" stop-color="#5471D8"/>
<stop offset="1" stop-color="#5761D7"/>
</linearGradient>
<linearGradient id="paint13_linear" x1="297.604" y1="288.599" x2="280.586" y2="288.599" gradientUnits="userSpaceOnUse">
<stop stop-color="#42E8E0"/>
<stop offset="0.15073" stop-color="#42E3DF"/>
<stop offset="0.32849" stop-color="#44D4DE"/>
<stop offset="0.5199" stop-color="#48BDDD"/>
<stop offset="0.72093" stop-color="#4D9BDA"/>
<stop offset="0.92742" stop-color="#5471D8"/>
<stop offset="1" stop-color="#5761D7"/>
</linearGradient>
<linearGradient id="paint14_linear" x1="314.622" y1="288.599" x2="297.604" y2="288.599" gradientUnits="userSpaceOnUse">
<stop stop-color="#42E8E0"/>
<stop offset="0.15073" stop-color="#42E3DF"/>
<stop offset="0.32849" stop-color="#44D4DE"/>
<stop offset="0.5199" stop-color="#48BDDD"/>
<stop offset="0.72093" stop-color="#4D9BDA"/>
<stop offset="0.92742" stop-color="#5471D8"/>
<stop offset="1" stop-color="#5761D7"/>
</linearGradient>
<linearGradient id="paint15_linear" x1="314.617" y1="286.634" x2="280.581" y2="286.634" gradientUnits="userSpaceOnUse">
<stop stop-color="#42E8E0"/>
<stop offset="0.15073" stop-color="#42E3DF"/>
<stop offset="0.32849" stop-color="#44D4DE"/>
<stop offset="0.5199" stop-color="#48BDDD"/>
<stop offset="0.72093" stop-color="#4D9BDA"/>
<stop offset="0.92742" stop-color="#5471D8"/>
<stop offset="1" stop-color="#5761D7"/>
</linearGradient>
<linearGradient id="paint16_linear" x1="297.603" y1="298.421" x2="280.585" y2="298.421" gradientUnits="userSpaceOnUse">
<stop stop-color="#42E8E0"/>
<stop offset="0.15073" stop-color="#42E3DF"/>
<stop offset="0.32849" stop-color="#44D4DE"/>
<stop offset="0.5199" stop-color="#48BDDD"/>
<stop offset="0.72093" stop-color="#4D9BDA"/>
<stop offset="0.92742" stop-color="#5471D8"/>
<stop offset="1" stop-color="#5761D7"/>
</linearGradient>
<linearGradient id="paint17_linear" x1="314.617" y1="298.425" x2="297.602" y2="298.425" gradientUnits="userSpaceOnUse">
<stop stop-color="#42E8E0"/>
<stop offset="0.15073" stop-color="#42E3DF"/>
<stop offset="0.32849" stop-color="#44D4DE"/>
<stop offset="0.5199" stop-color="#48BDDD"/>
<stop offset="0.72093" stop-color="#4D9BDA"/>
<stop offset="0.92742" stop-color="#5471D8"/>
<stop offset="1" stop-color="#5761D7"/>
</linearGradient>
<linearGradient id="paint18_linear" x1="318.038" y1="280.537" x2="299.953" y2="301.071" gradientUnits="userSpaceOnUse">
<stop offset="0.40017" stop-color="#C7EDE2"/>
<stop offset="0.81056" stop-color="#67CDB1"/>
</linearGradient>
<linearGradient id="paint19_linear" x1="301.312" y1="263.949" x2="301.113" y2="247.724" gradientUnits="userSpaceOnUse">
<stop stop-color="#8EF2EB"/>
<stop offset="1" stop-color="#9CF3EF" stop-opacity="0"/>
</linearGradient>
<linearGradient id="paint20_linear" x1="312.15" y1="262.374" x2="303.564" y2="282.949" gradientUnits="userSpaceOnUse">
<stop stop-color="#92DEDC"/>
<stop offset="1" stop-color="#90EBE6"/>
</linearGradient>
<linearGradient id="paint21_linear" x1="308.118" y1="261.677" x2="299.533" y2="282.253" gradientUnits="userSpaceOnUse">
<stop stop-color="#90EDE7"/>
<stop offset="1" stop-color="#90EDE7"/>
</linearGradient>
<linearGradient id="paint22_linear" x1="289.622" y1="253.301" x2="301.46" y2="280.781" gradientUnits="userSpaceOnUse">
<stop stop-color="#92E4E0"/>
<stop offset="1" stop-color="#90EDE7"/>
</linearGradient>
<linearGradient id="paint23_linear" x1="297.338" y1="261.117" x2="305.924" y2="281.693" gradientUnits="userSpaceOnUse">
<stop stop-color="#91ECE7"/>
<stop offset="1" stop-color="#91EAE5"/>
</linearGradient>
<linearGradient id="paint24_linear" x1="280.724" y1="260.162" x2="287.698" y2="285.228" gradientUnits="userSpaceOnUse">
<stop stop-color="#67CDB1"/>
<stop offset="1" stop-color="#13382D"/>
</linearGradient>
<linearGradient id="paint25_linear" x1="284.501" y1="258.055" x2="300.545" y2="282.427" gradientUnits="userSpaceOnUse">
<stop stop-color="#92E0DD"/>
<stop offset="1" stop-color="#A7F1EB"/>
</linearGradient>
<linearGradient id="paint26_linear" x1="286.674" y1="252.943" x2="288.485" y2="278.898" gradientUnits="userSpaceOnUse">
<stop stop-color="#67CDB1"/>
<stop offset="1" stop-color="#13382D"/>
</linearGradient>
</defs>
</svg>
