<svg width="32" height="32" viewBox="0 0 32 32" fill="none" xmlns="http://www.w3.org/2000/svg">
<g clip-path="url(#clip0)">
<path opacity="0.1" d="M16.0018 31.9997C24.8383 31.9997 32.0017 24.8363 32.0017 15.9999C32.0017 7.16338 24.8383 0 16.0018 0C7.16533 0 0.00195312 7.16338 0.00195312 15.9999C0.00195312 24.8363 7.16533 31.9997 16.0018 31.9997Z" fill="white"/>
<path d="M25.8011 11.4986C25.1154 11.8027 24.3779 12.0083 23.6044 12.1001C24.3941 11.627 25.0002 10.8783 25.2863 9.98471C24.5473 10.4231 23.7284 10.7411 22.8577 10.9125C22.1601 10.1695 21.1661 9.7052 20.0655 9.7052C17.9537 9.7052 16.241 11.4179 16.241 13.5296C16.241 13.8294 16.275 14.1211 16.3406 14.4012C13.1622 14.2418 10.344 12.7193 8.45759 10.4048C8.12845 10.9695 7.93964 11.627 7.93964 12.3277C7.93964 13.6543 8.61531 14.8253 9.64093 15.511C9.01432 15.4913 8.42422 15.3193 7.90884 15.0321C7.90855 15.0484 7.90855 15.0646 7.90855 15.0806C7.90855 16.9336 9.22738 18.4792 10.9766 18.8303C10.656 18.9181 10.3175 18.9646 9.96921 18.9646C9.72222 18.9646 9.48293 18.941 9.24962 18.8965C9.7362 20.4155 11.1483 21.5213 12.8222 21.5524C11.5131 22.5783 9.86426 23.1895 8.07198 23.1895C7.76395 23.1895 7.45877 23.1715 7.16016 23.1359C8.85175 24.2214 10.8625 24.8543 13.0221 24.8543C20.0566 24.8543 23.9036 19.0268 23.9036 13.9726C23.9036 13.8068 23.8999 13.6417 23.8924 13.478C24.6403 12.9389 25.2886 12.2656 25.8011 11.4986Z" fill="white"/>
</g>
<defs>
<clipPath id="clip0">
<rect width="32" height="32" fill="white"/>
</clipPath>
</defs>
</svg>
