<svg width="32" height="32" viewBox="0 0 32 32" fill="none" xmlns="http://www.w3.org/2000/svg">
<circle opacity="0.1" cx="16" cy="16" r="16" fill="white"/>
<path d="M24.6291 11.6791C24.4216 10.908 23.8137 10.3002 23.0427 10.0925C21.6341 9.70703 15.9998 9.70703 15.9998 9.70703C15.9998 9.70703 10.3656 9.70703 8.95707 10.0778C8.20094 10.2853 7.57815 10.9081 7.37065 11.6791C7 13.0875 7 16.0085 7 16.0085C7 16.0085 7 18.9442 7.37065 20.3379C7.57829 21.1089 8.18611 21.7168 8.95721 21.9245C10.3805 22.3099 16 22.3099 16 22.3099C16 22.3099 21.6341 22.3099 23.0427 21.9392C23.8138 21.7317 24.4216 21.1237 24.6293 20.3527C24.9999 18.9442 24.9999 16.0233 24.9999 16.0233C24.9999 16.0233 25.0148 13.0875 24.6291 11.6791Z" fill="white"/>
<path d="M14.2051 18.707L18.8903 16.0085L14.2051 13.3099V18.707Z" fill="#425583"/>
</svg>
